<svg xmlns="http://www.w3.org/2000/svg" width="64" height="64" viewBox="0 0 64 64">
  <g id="australian_football" transform="translate(0.025)">
    <path id="패스_850" data-name="패스 850" d="M0,0V64H64V0Z" transform="translate(-0.025)" fill="rgba(255,255,255,0)"/>
    <path id="패스_851" data-name="패스 851" d="M471.725,612.2q-7.7,0-11,3-5.3,5-2.9,19.4a46.8,46.8,0,0,0,13.6,26.9,49.277,49.277,0,0,0,18.1,11.2,47.553,47.553,0,0,0,17.9,3.5q8.1,0,10.8-3,4.4-5.5,2-19.5a47.385,47.385,0,0,0-13.8-26.8,51.036,51.036,0,0,0-34.7-14.7m-7,7q.9-1.4,7-1.4a45.807,45.807,0,0,1,30.8,13.1,41.739,41.739,0,0,1,12.2,23.6q1.9,11.2-.8,15-1.2,1.2-6.5,1.2a45.077,45.077,0,0,1-16.1-3.3,43.663,43.663,0,0,1-15.8-9.9,43.816,43.816,0,0,1-12.7-30.3q0-6.1,1.9-8m32.2,13.3a3,3,0,0,0-1.9-.9,2.4,2.4,0,0,0-1.9.8l-2.4,2.2-3.1-3.1,2.3-2.3a2.567,2.567,0,0,0,.7-1.9,2.928,2.928,0,0,0-.7-2,2.714,2.714,0,0,0-2-.8,3.317,3.317,0,0,0-2.1.8l-2.1,2.1-1.8-1.8a2.4,2.4,0,0,0-1.9-.8,2.281,2.281,0,0,0-1.9.7l-.1.1a2.565,2.565,0,0,0-.9,2,3.047,3.047,0,0,0,.7,1.9l1.9,1.8-2.1,2.3a2.463,2.463,0,0,0-.9,1.9,2.907,2.907,0,0,0,2.8,2.8,2.281,2.281,0,0,0,1.9-.7l2.2-2.2,3.1,3-2.1,2.3a3,3,0,0,0-.9,1.9,2.6,2.6,0,0,0,.8,1.9l.1.1a2.84,2.84,0,0,0,2.1.8,2.6,2.6,0,0,0,1.9-.8l2.1-2.1,3.1,3.2-2.1,2.2a2.289,2.289,0,0,0-.8,2,2.94,2.94,0,0,0,.8,2,2.6,2.6,0,0,0,1.9.8,2.384,2.384,0,0,0,2-.9l2.1-2.2,2.1,2.1a2.714,2.714,0,0,0,2,.8,2.28,2.28,0,0,0,1.9-.7l.1-.1a2.713,2.713,0,0,0,.8-2,2.6,2.6,0,0,0-.8-1.9l-2-2.1,2.2-2.1a1.946,1.946,0,0,0,.7-1.9,2.873,2.873,0,0,0-.7-2.1,2.279,2.279,0,0,0-1.9-.9,2.676,2.676,0,0,0-2.1.9l-2.3,2.1-3-3.1,2.2-2.2a2.713,2.713,0,0,0,.8-2A1.8,1.8,0,0,0,496.927,632.5Z" transform="translate(-457.101 -612.2)" fill="#fff"/>
  </g>
</svg>
