<svg xmlns="http://www.w3.org/2000/svg" width="64" height="64" viewBox="0 0 64 64">
  <g id="badminton" transform="translate(0.023)">
    <g id="그룹_1430" data-name="그룹 1430" transform="translate(0.023)">
      <g id="그룹_1429" data-name="그룹 1429">
        <path id="패스_790" data-name="패스 790" d="M0,0V64H63.955V0Z" fill="rgba(255,255,255,0)"/>
      </g>
    </g>
    <g id="그룹_1432" data-name="그룹 1432" transform="translate(-0.023)">
      <g id="그룹_1431" data-name="그룹 1431">
        <path id="패스_791" data-name="패스 791" d="M432.586,454.55l-2-10.5-10.193-2.1-6.9,9.4q-7.495,10.5-7.994,11.6a64,64,0,0,0-4,8.7l-2.7,2.7-4-4.2,2.5-5a11.508,11.508,0,0,0,6.2-5,138.107,138.107,0,0,1,8.094-11.8l6.8-9.2-3.5-9-8.294,2.5-10.293,23.7a26.754,26.754,0,0,0-2.6,8.4l-5.9,10.1-.9-1.1-3.7,3.9q-5.4,6.2-.9,10.7l2.8,2.9a9.364,9.364,0,0,0,6,2.8,9.683,9.683,0,0,0,6.5-1.7h.1l3.7-3.6-1.1-1.1,10.293-6.1a32.435,32.435,0,0,0,8.194-2.6l23.084-10.5,2.4-8.3-8.894-3.6q-17.687,13.6-20.186,15a11.441,11.441,0,0,0-3.7,3.9l-1.4,2.5-5,2.6-4.1-4.1,2.5-2.7a41.831,41.831,0,0,0,8.494-4q3.4-2.1,20.585-15.2m-39.472,25.6-2.4-2.4,2.7-4.8,3.5,3.5-3.8,3.7m4.3,4.6-2.2-2.5,3.7-3.8,3.5,3.5Z" transform="translate(-380.277 -430.15)" fill="#fff"/>
      </g>
    </g>
  </g>
</svg>
