<svg id="baseball" xmlns="http://www.w3.org/2000/svg" width="64" height="64" viewBox="0 0 64 64">
  <path id="패스_830" data-name="패스 830" d="M0,0V64H64V0Z" fill="rgba(255,255,255,0)"/>
  <path id="패스_831" data-name="패스 831" d="M335.4,555.8l-6.1.7-5.6,1.6-5.2,2.6-4,2.8-1.8,1.8a31.693,31.693,0,0,0-6.8,10l-1,2.8-.3.3-1.2,6.3v6.5l1.2,6.3.3.3,1,2.6v.2a27.822,27.822,0,0,0,6.8,10l5.8,4.6L322,617l5.9,2.1,4.4.7h7.1l7.7-1.9,8.3-4.9,1.8-1.8a24.319,24.319,0,0,0,4.3-4.6v-.2l1.5-2.6h.2l1.2-2.7.3-.2,1-2.6v-.5l.8-2.5.9-7.4-.7-6.4-1.8-6-1.4-2.7a29.62,29.62,0,0,0-5.5-7.4l-3.7-3.3-.3-.1-4.3-2.7-2.6-1.2-7.4-2-4.3-.3m-19.5,11.7,1.8,2-1.4,1.5q-.8.8,0,1.1.3.8,1.2.4v-.1l1.3-1.4,1.3,1.7-1.6,1.4a.787.787,0,0,0,.1,1.1h.1a.855.855,0,0,0,1.3.2h.1l.8-.9,1.3,3.2-1.7.4q-.9.2-.6,1.2.3.8.9.6l1.8-.6.7,2.9-1.6.3a1,1,0,0,0-.7,1.1q0,1.1.9.8l1.6-.4.2,3.1-2.1.7q-.7.1-.6,1.1.2.8.9.5l1.8-.7-.2,3.2-1.6.2q-.7-.2-.9.6v.2q0,.8.7.8l1.6-.1-.7,3.4-2.1.1q-.7,0-.7.8a.436.436,0,0,0,.1.6.673.673,0,0,0,.6.3l1.5-.2a11.152,11.152,0,0,1-1.4,3.2l-2.3-.4a.926.926,0,0,0-1,.7q-.4.8.4.8l2.1.5-1.8,2.7-1.8-1.2q-.8-.4-1.1.3-.3,0-.3.4a.462.462,0,0,0,.3.5l1.8,1.3-1,1a27.58,27.58,0,0,1-6.6-9.3,27.088,27.088,0,0,1-2.2-11.2,27.15,27.15,0,0,1,8.8-20.4m3.6.5-1.8-2a27.154,27.154,0,0,1,17.7-6.3,26.78,26.78,0,0,1,17.8,6.4l-1.6,1.6-1.9-1.4q-.5-.5-.8.4-.4.7,0,1l1.8,1.2-1.8,2.7-2-1.5q-.7-.5-1.1.4a.925.925,0,0,0,.3,1.4l1.8,1.4-1.5,3.6-2.1-1.3q-.6-.4-1,.3a.76.76,0,0,0,.2,1.2l.1.1,2.2,1.4-.8,3.3-2-1.3q-.6-.2-1,.5a.637.637,0,0,0,.2,1l.1.1,2.3,1.5h.1l-.3,3.4-1.8-.7q-.8-.2-.8.7a.839.839,0,0,0,.5,1.1l2,.5.1,3.1-1.8-.1q-.5-.2-.7.5v.2q0,.9.8.9h.1l1.9.2.4,3-1.9.3q-.8,0-.4,1,.3,1.1,1.1.8l1.8-.2a23.118,23.118,0,0,0,1.4,3.7l-1.7.3q-.5,0-.4,1,.2.6,1,.5l1.8-.3,1.6,3-1.2.4q-.6,0-.4.8t.9.6l1.8-.3a7.7,7.7,0,0,0,2,2.2,26.647,26.647,0,0,1-17.1,5.9,27.154,27.154,0,0,1-17.7-6.3l1.4-1.5,1.8,1.2q.7.4,1-.2.4-.9,0-1.3l-1.7-1,1.8-2.6,1.8,1.2q.7.7,1.1-.4a.76.76,0,0,0-.2-1.2h-.1l-1.6-1.3,1.5-3.8,1.9,1.3q.4.4.9-.4.5-.5-.1-1.1h-.1l-2-1.4.7-3.4,1.9,1.3a.81.81,0,0,0,1-.4.825.825,0,0,0-.3-1.2l-2.2-1.4-.2-.1.3-3.3,1.8.5q.7.3.9-.5a.925.925,0,0,0-.5-1.2l-2.2-.7-.3-2.9,2.1.2q.6,0,.6-.9,0-.8-.7-.8l-2.1-.2a14.163,14.163,0,0,0-.7-2.9l2.4-.4q.8-.2.4-1-.5-1.1-1.1-.8l-2.3.3a17.187,17.187,0,0,0-1.4-3.7l2.1-.4q.5-.1.5-1a1.028,1.028,0,0,0-1-.7l-2.2.5-2-3,2-.4q.7,0,.4-.8a.926.926,0,0,0-1-.7l-2.5.6m33.4,4.8-1.8-.2,1.7-2.7,1.6,1.1q.6.4,1.3-.3.5-.4,0-.9l-1.8-1.1.9-1a25.575,25.575,0,0,1,8.7,20.2,29.325,29.325,0,0,1-2.5,11.7,26.1,26.1,0,0,1-6.7,9.2l-1.8-2,1.8-2q.5-.4,0-1.2a.908.908,0,0,0-1.3-.1l-1.6,1.7-1.1-1.7,1.8-1.7q.4-.8-.2-1.2a.79.79,0,0,0-1.2-.1v.1l-1.3,1.1-1.1-3.4,2-.6q.7-.2.5-1-.3-.9-.8-.7l-2.1.8-.7-3.1,1.8-.2a1.1,1.1,0,0,0,.7-1.1q0-1-.8-1l-1.8.5-.3-3,2.3-.7a1.255,1.255,0,0,0,.6-1.1q-.3-.9-.8-.7l-2,.7.1-3.1,1.8-.2a.738.738,0,0,0,.9-.6V583q0-1-.7-.7h-1.5l.8-3.3,1.9-.2q.7-.1.7-1,.2-.6-.5-.6l-.2-.1-1.4.2,1.4-3.2,2.1.4q.7.3,1-.7Q353.5,572.9,352.9,572.8Z" transform="translate(-303.4 -555.8)" fill="#fff"/>
</svg>
