<svg xmlns="http://www.w3.org/2000/svg" width="64" height="64" viewBox="0 0 64 64">
  <g id="basketball" transform="translate(-88)">
    <path id="패스_3188" data-name="패스 3188" d="M0,0V64H64V0Z" transform="translate(88 0.004)" fill="rgba(255,255,255,0)"/>
    <path id="basketball-2" data-name="basketball" d="M31.663,64h.088l.362,0A30.419,30.419,0,0,0,44.3,61.6a31.783,31.783,0,0,0,6.058-3.379,32.077,32.077,0,0,0,5.567-4.962A29.38,29.38,0,0,0,61.7,44.2,30.762,30.762,0,0,0,64,32.223c0-.081,0-.161,0-.241s0-.147,0-.221a31.262,31.262,0,0,0-2.3-12.152,29.444,29.444,0,0,0-7-10.3,30.458,30.458,0,0,0-10.4-7A30.958,30.958,0,0,0,33.265.02C32.888.007,32.508,0,32.128,0c-.186,0-.371,0-.556,0a29.787,29.787,0,0,0-11.863,2.21,29.059,29.059,0,0,0-10.2,7.1,30.645,30.645,0,0,0-7.1,10.3,30.159,30.159,0,0,0-2.4,11.685q-.018.652-.01,1.3A28.827,28.827,0,0,0,2.314,44.3a30.314,30.314,0,0,0,1.594,3.174,32.059,32.059,0,0,0,2.825,4.294A31.588,31.588,0,0,0,22.451,62.61,29.89,29.89,0,0,0,31.514,64Zm.343-4.1a26.221,26.221,0,0,1-10.8-2.1,26.353,26.353,0,0,1-9.1-6.1q-.195-.19-.384-.382c-1.643-5.833.842-11.826,3.462-18.127a43.846,43.846,0,0,0,4.469-16.505q0-.161-.005-.313-.008-.432-.035-.837a37.3,37.3,0,0,1,5.631-1.369c.28,25.976,1.869,33.374,8.7,45.7Q32.99,59.915,32.005,59.9ZM51.9,51.7a26.684,26.684,0,0,1-14.94,7.863c-6.785-11.98-8.614-18.176-8.93-45.744a43.646,43.646,0,0,1,5.467-.157q.007.121.016.243c0,6.952,7.253,15.3,13.656,22.646,3.579,4.112,7.266,8.344,8.258,10.945A27.073,27.073,0,0,1,51.9,51.7ZM16.885,16.678a41.809,41.809,0,0,1-4.257,15.431c-2.073,4.986-4.194,10.084-4.214,15.233a25.57,25.57,0,0,1-4.5-15.336,28.889,28.889,0,0,1,.619-6.6l.2-.224a36.508,36.508,0,0,1,12.149-8.6ZM60.1,32.006A25.963,25.963,0,0,1,58,42.7q-.413,1-.9,1.958a33.59,33.59,0,0,0-2.664-3.813A58.266,58.266,0,0,0,49.26,34.72C43.483,28.088,36.29,19.825,36.29,13.9v-.061a44.083,44.083,0,0,1,19.048,6.212,19.944,19.944,0,0,1,3.42,2.724A27.628,27.628,0,0,1,60.1,32.006ZM15.649,11.722a6.263,6.263,0,0,1,.724,1.478,4.974,4.974,0,0,1,.133.543A39.408,39.408,0,0,0,6.461,19.765a27.4,27.4,0,0,1,5.65-7.753q.92-.943,1.891-1.777A5.107,5.107,0,0,1,15.649,11.722Zm36.25.391a28.01,28.01,0,0,1,4.228,5.133,40.607,40.607,0,0,0-8.4-3.857,44.394,44.394,0,0,0-9.691-2.174q-.717-.088-1.444-.156a7,7,0,0,1,.434-1.566,8.6,8.6,0,0,1,1.708-2.482l0,0a7.834,7.834,0,0,1,3.307-1.412A28.019,28.019,0,0,1,51.9,12.112Zm-26.675-.835a39.412,39.412,0,0,0-6.085,1.488q-.107-.362-.231-.694a8.281,8.281,0,0,0-.52-1.147,7.787,7.787,0,0,0-2.075-2.471,25.7,25.7,0,0,1,8.887-3.9Q25.2,8.1,25.224,11.277ZM28,10.93c0-.121,0-.241,0-.363q-.021-3.081-.024-6.5a31.864,31.864,0,0,1,4.035-.25,29.485,29.485,0,0,1,5.659.532,8.469,8.469,0,0,0-.692.512l-.033.025-.035.034a9.816,9.816,0,0,0-2.665,4.014,11.331,11.331,0,0,0-.553,1.906q-1.1-.062-2.206-.062C30.315,10.776,29.152,10.828,28,10.93Z" transform="translate(88 64) rotate(-90)" fill="#fff"/>
  </g>
</svg>
