<svg xmlns="http://www.w3.org/2000/svg" width="64" height="64" viewBox="0 0 64 64">
  <g id="bawls" transform="translate(0.002 0.002)">
    <g id="그룹_1383" data-name="그룹 1383" transform="translate(0.002 0.002)">
      <g id="그룹_1382" data-name="그룹 1382">
        <path id="패스_769" data-name="패스 769" d="M0,0V63.981H63.992V0Z" fill="rgba(255,255,255,0)"/>
      </g>
    </g>
    <g id="그룹_1385" data-name="그룹 1385" transform="translate(13.386 13.491)">
      <g id="그룹_1384" data-name="그룹 1384">
        <path id="패스_770" data-name="패스 770" d="M546.307,384.2a18.463,18.463,0,0,0,0,26.292,17.316,17.316,0,0,0,13.1,5.6,18.672,18.672,0,0,0,13.2-5.6,16.981,16.981,0,0,0,5.4-13.2,18.435,18.435,0,0,0-18.6-18.495,16.869,16.869,0,0,0-13.1,5.4m-3.3,13.1a15.165,15.165,0,0,1,4.7-11.6,15.921,15.921,0,0,1,11.7-4.8,14.729,14.729,0,0,1,11.5,4.8,15.214,15.214,0,0,1,4.8,11.6,14.954,14.954,0,0,1-4.8,11.7,15.64,15.64,0,0,1-11.5,4.7,16.313,16.313,0,0,1-11.7-4.7A15.284,15.284,0,0,1,543.007,397.3Z" transform="translate(-540.793 -378.796)" fill="#fff"/>
      </g>
    </g>
    <g id="그룹_1387" data-name="그룹 1387" transform="translate(21.588 21.584)">
      <g id="그룹_1386" data-name="그룹 1386">
        <path id="패스_771" data-name="패스 771" d="M547.905,385.855a9.126,9.126,0,0,0-3,7.4,10.074,10.074,0,0,0,10,10.4h.5a9.6,9.6,0,0,0,7.3-2.9,9.816,9.816,0,0,0,3-7.2v-.3a9.126,9.126,0,0,0-3-7.4,10.378,10.378,0,0,0-7.3-3A9.594,9.594,0,0,0,547.905,385.855Z" transform="translate(-544.894 -382.844)" fill="#fff"/>
      </g>
    </g>
    <g id="그룹_1389" data-name="그룹 1389" transform="translate(-0.002 -0.002)">
      <g id="그룹_1388" data-name="그룹 1388">
        <path id="패스_772" data-name="패스 772" d="M553.8,374.451a30.4,30.4,0,0,0-10.4,7.1,29.446,29.446,0,0,0-7,10.3,30.317,30.317,0,0,0-2.3,12.2,31.015,31.015,0,0,0,2.3,12.3,32.678,32.678,0,0,0,17.4,17.395,28.855,28.855,0,0,0,12.3,2.3,29.265,29.265,0,0,0,22.5-9.3,31.722,31.722,0,0,0,7.1-10.4,32.706,32.706,0,0,0,0-24.593,29.6,29.6,0,0,0-7.1-10.2,30.643,30.643,0,0,0-10.3-7.1,29.317,29.317,0,0,0-12.2-2.4,29.989,29.989,0,0,0-12.3,2.4m-7.7,9.7a25.715,25.715,0,0,1,9.1-6.2,26.9,26.9,0,0,1,10.9-2.1,25.206,25.206,0,0,1,19.8,8.3,26.1,26.1,0,0,1,8.2,19.894,25.086,25.086,0,0,1-2,10.8,25.711,25.711,0,0,1-6.2,9.1,26.352,26.352,0,0,1-9.1,6.1,25.974,25.974,0,0,1-10.7,2.1,26.618,26.618,0,0,1-20-8.2,25.714,25.714,0,0,1-6.2-9.1,27.245,27.245,0,0,1-2-10.8A26.492,26.492,0,0,1,546.1,384.148Z" transform="translate(-534.098 -372.048)" fill="#fff"/>
      </g>
    </g>
  </g>
</svg>
