<svg xmlns="http://www.w3.org/2000/svg" width="64" height="64" viewBox="0 0 64 64">
  <g id="beachvolleyball" transform="translate(0.002 0.002)">
    <g id="그룹_1402" data-name="그룹 1402" transform="translate(0.002 0.002)">
      <g id="그룹_1401" data-name="그룹 1401">
        <path id="패스_777" data-name="패스 777" d="M0,0V64H63.992V0Z" fill="rgba(255,255,255,0)"/>
      </g>
    </g>
    <g id="그룹_1404" data-name="그룹 1404" transform="translate(-0.002 -0.002)">
      <g id="그룹_1403" data-name="그룹 1403">
        <path id="패스_778" data-name="패스 778" d="M707.549,437.052a48.736,48.736,0,0,0-1.4,12.3,43.091,43.091,0,0,0,3.7,19.2l-3.9,2.3a8.781,8.781,0,0,1,2,.6l.9.5a39.937,39.937,0,0,0,10.8-8.2q4.2,1.2,7.5,2.5a24.723,24.723,0,0,1-3.9,4.9l.7.3,1.6,1.1a34.232,34.232,0,0,0,3.9-5l5.5,3.2,1.2-.2a8.385,8.385,0,0,1,3.8.9l1.5,1a45.316,45.316,0,0,0-7.9-5.7,41.038,41.038,0,0,0-12.8-5.3q-.9-3.5-1.6-7.8,7.5,0,17.2,5.7a46.268,46.268,0,0,1,11.2,9.3l-1.4,4.2,2.3-1.4a9.226,9.226,0,0,1,2.6-.7,30.931,30.931,0,0,0,1.1-8.6,29.991,29.991,0,0,0-2.4-12.3,33.23,33.23,0,0,0-17.3-17.3,29.985,29.985,0,0,0-12.3-2.4,30.522,30.522,0,0,0-22.7,9.4,31.561,31.561,0,0,0-9.3,22.6,35.391,35.391,0,0,0,1.1,8.6,7.018,7.018,0,0,1,2.7.7l2.2,1.4a26.272,26.272,0,0,1-2.2-10.7,26.9,26.9,0,0,1,6-17.3,51.982,51.982,0,0,0-.9,9.6,46.162,46.162,0,0,0,3.1,17.1l.3-.1a7.73,7.73,0,0,1,2.2-.7,37.2,37.2,0,0,1-2.9-16.3,45.75,45.75,0,0,1,1.8-13.4,27.674,27.674,0,0,1,6-4m3.2-1.4a31.183,31.183,0,0,1,7.5-1.5,46.384,46.384,0,0,0-2,13.9,51.079,51.079,0,0,0,1.8,13.5,31.33,31.33,0,0,1-6,5.4q-3.4-5.9-3.4-17.6a41.174,41.174,0,0,1,2.1-13.7m8.2,15.2.1-7.7a37.506,37.506,0,0,1,17.3,5.7,42.012,42.012,0,0,1,11.8,10.1v6.4a53.547,53.547,0,0,0-10.6-8.2,39.925,39.925,0,0,0-18.6-6.3m.4-10.3,1.7-6.4a27.3,27.3,0,0,1,16.2,5.7,26.248,26.248,0,0,1,9.8,14,65.3,65.3,0,0,0-9.3-7.2A40.456,40.456,0,0,0,719.348,440.551Z" transform="translate(-688.148 -430.148)" fill="#fff"/>
      </g>
    </g>
    <g id="그룹_1406" data-name="그룹 1406" transform="translate(0.002 42.699)">
      <g id="그룹_1405" data-name="그룹 1405">
        <path id="패스_779" data-name="패스 779" d="M688.15,451.5v2.3a3.2,3.2,0,0,1,2,1,10.285,10.285,0,0,0,6,2.2,10.154,10.154,0,0,0,5.9-2.2,2.963,2.963,0,0,1,2.1-1,3.2,3.2,0,0,1,2,1,10.285,10.285,0,0,0,6,2.2,10.154,10.154,0,0,0,5.9-2.2,2.963,2.963,0,0,1,2.1-1,3.2,3.2,0,0,1,2,1,8.772,8.772,0,0,0,6,2.2,10.153,10.153,0,0,0,5.9-2.2,2.964,2.964,0,0,1,2.1-1,3.2,3.2,0,0,1,2,1,10.285,10.285,0,0,0,6,2.2,10.153,10.153,0,0,0,5.9-2.2,2.964,2.964,0,0,1,2.1-1v-2.3a9.623,9.623,0,0,0-3.7.7l-3.4,2.2-1,.1-.9-.1-3.2-2.2a9.893,9.893,0,0,0-3.8-.7,9.622,9.622,0,0,0-3.7.7l-3.4,2.2-.9.1-1-.1-3.2-2.2a9.893,9.893,0,0,0-3.8-.7,9.623,9.623,0,0,0-3.7.7l-3.4,2.2-.9.1-1-.1-3.2-2.2a9.893,9.893,0,0,0-3.8-.7,9.623,9.623,0,0,0-3.7.7l-3.4,2.2-.9.1-1-.1-3.2-2.2A9.892,9.892,0,0,0,688.15,451.5Z" transform="translate(-688.15 -451.5)" fill="#fff"/>
      </g>
    </g>
    <g id="그룹_1408" data-name="그룹 1408" transform="translate(0.002 50.599)">
      <g id="그룹_1407" data-name="그룹 1407">
        <path id="패스_780" data-name="패스 780" d="M688.15,455.45v2.4a2.772,2.772,0,0,1,2,.9,11.25,11.25,0,0,0,6,2.3,11.136,11.136,0,0,0,5.9-2.3,2.877,2.877,0,0,1,2.1-.9,2.772,2.772,0,0,1,2,.9,11.25,11.25,0,0,0,6,2.3,11.136,11.136,0,0,0,5.9-2.3,2.878,2.878,0,0,1,2.1-.9,2.772,2.772,0,0,1,2,.9,10.275,10.275,0,0,0,6,2.3,11.135,11.135,0,0,0,5.9-2.3,2.878,2.878,0,0,1,2.1-.9,2.772,2.772,0,0,1,2,.9,11.249,11.249,0,0,0,6,2.3,11.135,11.135,0,0,0,5.9-2.3,2.878,2.878,0,0,1,2.1-.9v-2.4a9.623,9.623,0,0,0-3.7.7l-3.4,2.2-.9.2-1-.2-3.2-2.2a12.14,12.14,0,0,0-3.8-.7,9.622,9.622,0,0,0-3.7.7l-3.4,2.2-.9.2-1-.2-3.2-2.2a12.14,12.14,0,0,0-3.8-.7,9.623,9.623,0,0,0-3.7.7l-3.4,2.2-.9.2-1-.2-3.2-2.2a12.141,12.141,0,0,0-3.8-.7,9.623,9.623,0,0,0-3.7.7l-3.4,2.2-.9.2-1-.2-3.2-2.2A12.14,12.14,0,0,0,688.15,455.45Z" transform="translate(-688.15 -455.45)" fill="#fff"/>
      </g>
    </g>
    <g id="그룹_1410" data-name="그룹 1410" transform="translate(0.002 58.398)">
      <g id="그룹_1409" data-name="그룹 1409">
        <path id="패스_781" data-name="패스 781" d="M688.15,459.35v2.3a5.646,5.646,0,0,1,2,1,9.267,9.267,0,0,0,6,2.2,9.139,9.139,0,0,0,5.9-2.2,3.619,3.619,0,0,1,2.1-1,5.645,5.645,0,0,1,2,1,9.268,9.268,0,0,0,6,2.2,9.139,9.139,0,0,0,5.9-2.2,3.619,3.619,0,0,1,2.1-1,5.647,5.647,0,0,1,2,1,8.772,8.772,0,0,0,6,2.2,9.139,9.139,0,0,0,5.9-2.2,3.62,3.62,0,0,1,2.1-1,7.009,7.009,0,0,1,2,1,9.267,9.267,0,0,0,6,2.2,9.139,9.139,0,0,0,5.9-2.2,3.62,3.62,0,0,1,2.1-1v-2.3a7.786,7.786,0,0,0-3.7.8,10.35,10.35,0,0,0-2.3,1.5l-1.1.7-1,.2-.9-.2-3.2-2.2a9.723,9.723,0,0,0-3.8-.8,7.785,7.785,0,0,0-3.7.8,15.229,15.229,0,0,0-2.3,1.5l-1.1.7-.9.2-1-.2-3.2-2.2a9.723,9.723,0,0,0-3.8-.8,7.786,7.786,0,0,0-3.7.8,10.35,10.35,0,0,0-2.3,1.5l-1.1.7-.9.2-1-.2-3.2-2.2a9.724,9.724,0,0,0-3.8-.8,7.786,7.786,0,0,0-3.7.8,15.241,15.241,0,0,0-2.3,1.5l-1.1.7-.9.2-1-.2-3.2-2.2A9.723,9.723,0,0,0,688.15,459.35Z" transform="translate(-688.15 -459.35)" fill="#fff"/>
      </g>
    </g>
  </g>
</svg>
