<svg xmlns="http://www.w3.org/2000/svg" width="64" height="64.001" viewBox="0 0 64 64.001">
  <g id="biathlon" transform="translate(-352 -501)">
    <rect id="사각형_1029" data-name="사각형 1029" width="64" height="64" transform="translate(352 501)" fill="#fff" opacity="0"/>
    <path id="합치기_194" data-name="합치기 194" d="M-9758,1398v-1.657h44.808a2.629,2.629,0,0,0,1.886-.829,2.612,2.612,0,0,0,.829-1.883l1.812-.152a4.41,4.41,0,0,1-1.282,3.239,4.423,4.423,0,0,1-3.244,1.281Zm27.686-5.18-5.772-22.612h-1.075l-6.229,22.672a3.458,3.458,0,0,1-3.33,2.538,3.418,3.418,0,0,1-.913-.127,3.442,3.442,0,0,1-2.417-4.234l6.883-25.048v-16.037a3.45,3.45,0,0,1,3.452-3.446h5.94a4.872,4.872,0,0,1,.619.037h31.591v-1.51h1.244l.4,1.51h.923v1.2h-13v1.8a1.2,1.2,0,0,1-1.2,1.2h-4.4a2.811,2.811,0,0,1-.431.667l-7.458,7.5a3.272,3.272,0,0,1-2.059,1.08,2.272,2.272,0,0,1-1.542-.318l-.966-.953.045,7.329,6.392,25.043a3.449,3.449,0,0,1-2.493,4.192,3.488,3.488,0,0,1-.854.109A3.458,3.458,0,0,1-9730.314,1392.821Zm.215-41.02,2.292,2.3,3.375-3.336h-5.675Zm-12.644-12.215a5.591,5.591,0,0,1,5.6-5.585,5.591,5.591,0,0,1,5.6,5.585,5.592,5.592,0,0,1-5.6,5.588A5.592,5.592,0,0,1-9742.743,1339.586Z" transform="translate(10113 -833)" fill="#fff"/>
  </g>
</svg>
