<svg xmlns="http://www.w3.org/2000/svg" width="64" height="64" viewBox="0 0 64 64">
  <g id="bobsleigh" transform="translate(-5 -592)">
    <rect id="사각형_1030" data-name="사각형 1030" width="64" height="64" transform="translate(5 592)" fill="#fff" opacity="0"/>
    <path id="bobsled" d="M63.794,60.559a3.721,3.721,0,0,1-4.971,2.966L2.434,42.728a3.721,3.721,0,1,1,2.575-6.982l51.2,18.885a13.439,13.439,0,0,0-8.46-9.58L2.478,28.992a3.721,3.721,0,1,1,2.487-7.013L50.254,38.043l.024.009A20.819,20.819,0,0,1,63.794,60.559ZM9.277,21.211a5.893,5.893,0,1,0-5.793-4.837A5.923,5.923,0,0,0,9.277,21.211Zm14.82,5A5.893,5.893,0,1,0,18.3,21.373,5.921,5.921,0,0,0,24.1,26.21Zm14.82,5a5.939,5.939,0,0,0,1.061-.1,5.893,5.893,0,0,0-1.052-11.69,5.939,5.939,0,0,0-1.061.1,5.893,5.893,0,0,0,1.052,11.69Zm14.82,5a5.938,5.938,0,0,0,1.061-.1,5.893,5.893,0,0,0-1.052-11.69,5.893,5.893,0,0,0-.009,11.786Zm-14.8,24.53a2.046,2.046,0,0,0,1.183,2.641l13.386,5.1a4.093,4.093,0,0,0,5.282-2.367l-17.21-6.56A2.047,2.047,0,0,0,38.934,60.737ZM.6,46.922h0a2.046,2.046,0,0,0,1.183,2.641l13.386,5.1A4.093,4.093,0,0,0,20.454,52.3l-17.21-6.56A2.047,2.047,0,0,0,.6,46.922Z" transform="translate(5 584.575)" fill="#fff"/>
  </g>
</svg>
