<svg xmlns="http://www.w3.org/2000/svg" width="64" height="64" viewBox="0 0 64 64">
  <g id="boxing" transform="translate(0 0.001)">
    <g id="그룹_1522" data-name="그룹 1522" transform="translate(0 0.001)">
      <g id="그룹_1521" data-name="그룹 1521">
        <path id="패스_828" data-name="패스 828" d="M0,0V64H64V0Z" fill="rgba(255,255,255,0)"/>
      </g>
    </g>
    <g id="그룹_1524" data-name="그룹 1524" transform="translate(0 -0.001)">
      <g id="그룹_1523" data-name="그룹 1523">
        <path id="패스_829" data-name="패스 829" d="M394.7,562.251l-.8,2.1v.3a23.977,23.977,0,0,0,.1,9.5l.4.9-.7-1.1v.2a8.027,8.027,0,0,0-3.3-3.2,4.983,4.983,0,0,0-4.9-.6,3.625,3.625,0,0,0-2.2,1.2,3.71,3.71,0,0,0-.9,2.4v.2l1.8,10.2a25.757,25.757,0,0,0,7.6,14.4q4.7,4.7,7.6,5.3l.2,14.1a1.63,1.63,0,0,0,.4,1.2,3.113,3.113,0,0,0,1.3.4h27.9a2.017,2.017,0,0,0,1.3-.4,1.637,1.637,0,0,0,.5-1.2v-14.1l4.1-11.4a64.857,64.857,0,0,0,2.9-15.3,22.762,22.762,0,0,0-2.5-13.4,11.739,11.739,0,0,0-2.7-3.1q-5.7-5.2-20.6-5.1-15.4.3-17.5,6.5m2.7,2.7.5-1.8v.1q2.1-4.2,14.4-4.5,13.1,0,18.2,4.2l1.4,1.8h-.1a47.14,47.14,0,0,1-7.1,7.5q-3,2.7-10.7,2.7a17.369,17.369,0,0,1-11.9-3.8,15.081,15.081,0,0,1-4.7-6.2m-8.9,8.5a4.81,4.81,0,0,1,2,2l6.4,8.9.2.2q5.2,8.5,2.8,16.4a16.553,16.553,0,0,1-5.5-4.2,23.931,23.931,0,0,1-6.7-12.9q-1.8-9-1.8-9.9,0-.7,1-.8a2.359,2.359,0,0,1,1.5.3h.1m8.8-.1.2.2-.3-2.7a16.825,16.825,0,0,0,2.5,2.6,20.867,20.867,0,0,0,14.3,4.6q9.5,0,13.2-3.7a42.639,42.639,0,0,0,6.5-6.5,27.232,27.232,0,0,1,.8,9.2,58.32,58.32,0,0,1-2.7,14.7l-3.9,10.5H419v-12.9a3.49,3.49,0,0,0-.9-2.9,4.184,4.184,0,0,0-2.8-1.5h-.9a4.131,4.131,0,0,0-3,.8,3.424,3.424,0,0,0-1.5,2.5v13.9h-6.8q3.3-9-3-19v-.2l-2.8-9.6m17.2,14.6v.1q1,0,1,1.5v12.6h-2.1v-12.8a1.254,1.254,0,0,1,1.1-1.4m9.5,17.5h3.5v11.2H424v-11.2m-3.5,11.2H403.1l-.2-11.2h17.6Z" transform="translate(-382.4 -555.749)" fill="#fff"/>
      </g>
    </g>
  </g>
</svg>
