<svg id="chess_1569" data-name="chess 1569" xmlns="http://www.w3.org/2000/svg" width="64" height="64" viewBox="0 0 64 64">
  <g id="그룹_1562" data-name="그룹 1562">
    <g id="그룹_1561" data-name="그룹 1561">
      <path id="패스_844" data-name="패스 844" d="M0,0V64H64V0Z" fill="rgba(255,255,255,0)"/>
    </g>
  </g>
  <g id="그룹_1564" data-name="그룹 1564" transform="translate(24.978 21.4)">
    <g id="그룹_1563" data-name="그룹 1563">
      <path id="패스_845" data-name="패스 845" d="M320.961,643.2h2.7l10.3-19.9h-2.6l-10.4,19.9m10.2-10.7a7.932,7.932,0,0,0,0,9,3.551,3.551,0,0,0,3.4,1.6,4.035,4.035,0,0,0,3.5-1.6,7.932,7.932,0,0,0,0-9,4.4,4.4,0,0,0-3.5-1.5,4.1,4.1,0,0,0-3.4,1.5m3.4,1q1.7,0,1.7,3.5,0,3.6-1.7,3.6t-1.7-3.6q0-3.5,1.7-3.5m-14.3-10.2a4,4,0,0,0-3.3,1.5,7.932,7.932,0,0,0,0,9,3.822,3.822,0,0,0,3.3,1.7,4.014,4.014,0,0,0,3.5-1.7,7.932,7.932,0,0,0,0-9,4.4,4.4,0,0,0-3.5-1.5m0,9.6q-1.6,0-1.6-3.6,0-3.5,1.6-3.5,1.7,0,1.7,3.5Q321.961,632.9,320.261,632.9Z" transform="translate(-315.539 -623.3)" fill="#fff"/>
    </g>
  </g>
  <g id="그룹_1566" data-name="그룹 1566" transform="translate(17.9 10)">
    <g id="그룹_1565" data-name="그룹 1565">
      <path id="패스_846" data-name="패스 846" d="M312,655.7V660h46.1V617.6H312v4.2h41.7v33.9Z" transform="translate(-312 -617.6)" fill="#fff"/>
    </g>
  </g>
  <g id="그룹_1568" data-name="그룹 1568" transform="translate(0 10)">
    <g id="그룹_1567" data-name="그룹 1567">
      <path id="패스_847" data-name="패스 847" d="M308.85,627.6v-4.3h7.7v-5.7h-13.5V660h13.5v-6.8h-4.3V649h4.3v-3.6h-7.7V641h7.7v-4.3h-4.3v-4.3h4.3v-4.8Z" transform="translate(-303.05 -617.6)" fill="#fff"/>
    </g>
  </g>
</svg>
