<svg xmlns="http://www.w3.org/2000/svg" width="64" height="64" viewBox="0 0 64 64">
  <g id="cricket" transform="translate(0 0.004)">
    <g id="그룹_1460" data-name="그룹 1460" transform="translate(0 0.004)">
      <g id="그룹_1459" data-name="그룹 1459">
        <path id="패스_802" data-name="패스 802" d="M0,0V63.993H64V0Z" fill="rgba(255,255,255,0)"/>
      </g>
    </g>
    <g id="그룹_1462" data-name="그룹 1462" transform="translate(0 -0.004)">
      <g id="그룹_1461" data-name="그룹 1461">
        <path id="패스_803" data-name="패스 803" d="M166.1,538.049l-.2-.2a5.585,5.585,0,0,0-4.4-1.8,5.662,5.662,0,0,0-4.6,1.8,6.674,6.674,0,0,0-1.8,4.6,6.444,6.444,0,0,0,1.8,4.6,5.661,5.661,0,0,0,4.6,1.8,5.585,5.585,0,0,0,4.4-1.8,6.524,6.524,0,0,0,2-4.5,6.322,6.322,0,0,0-1.8-4.5m33.2,3.2,2.5-2.4v.1a4.943,4.943,0,0,0,1.8-4,4.735,4.735,0,0,0-1.8-3.8l-35.3-35.3a5.063,5.063,0,0,0-3.4-1.8,5.427,5.427,0,0,0-3.8,1.2l-8.1,8.1a5.025,5.025,0,0,0-1.8,3.9,4.837,4.837,0,0,0,1.8,3.9v-.1l35.3,35.3v.1a4.752,4.752,0,0,0,3.6,1.8,5.013,5.013,0,0,0,3.8-1.4l.4-.4v-.1l2.4-2.4,13.2,13.4a1.518,1.518,0,0,0,1.5.5,1.919,1.919,0,0,0,1.4-.6,1.612,1.612,0,0,0,.6-1.3,1.918,1.918,0,0,0-.6-1.4l-13.5-13.3m-8.8,2.8a1.486,1.486,0,0,1-1.1-.4l-35.4-35.4-.6-1a1.43,1.43,0,0,1,.6-1.1h.1l7.4-7.5a1.392,1.392,0,0,1,2-.3l.2.3,35.2,35.3a4.066,4.066,0,0,1,.9,1,2.671,2.671,0,0,1-.9,1l-7.4,7.6A1.231,1.231,0,0,1,190.5,544.048Z" transform="translate(-149.4 -494.046)" fill="#fff"/>
      </g>
    </g>
  </g>
</svg>
