<svg xmlns="http://www.w3.org/2000/svg" width="64" height="64" viewBox="0 0 64 64">
  <g id="dart" transform="translate(0.002 0.002)">
    <g id="그룹_1340" data-name="그룹 1340" transform="translate(0.002 0.002)">
      <g id="그룹_1339" data-name="그룹 1339">
        <path id="패스_750" data-name="패스 750" d="M0,0V63.981H63.948V0Z" fill="rgba(255,255,255,0)"/>
      </g>
    </g>
    <g id="그룹_1342" data-name="그룹 1342" transform="translate(-0.002 -0.002)">
      <g id="그룹_1341" data-name="그룹 1341">
        <path id="패스_751" data-name="패스 751" d="M213.75,386.248H202.359l-2.8-2.8v-11.4l-13.989,14.2,2.1,6.4-3.9,3.7-2-.2a7.162,7.162,0,0,0-5.7,2.3,7.675,7.675,0,0,0-2.4,5.6,7.577,7.577,0,0,0,2.4,5.7,7.779,7.779,0,0,0,5.7,2.4,7.667,7.667,0,0,0,5.6-2.4,7.17,7.17,0,0,0,2.3-5.7l-.2-2,3.9-3.7,6.195,2.1,14.188-14.2m-43.365,29.192a14.892,14.892,0,0,1-4.6-11.4,15.869,15.869,0,0,1,15.987-16v-3.9a19.945,19.945,0,1,0,14.188,34.09,18.873,18.873,0,0,0,5.7-14.2h-3.9a14.564,14.564,0,0,1-4.7,11.4,14.758,14.758,0,0,1-11.291,4.6,15.9,15.9,0,0,1-11.391-4.6m-.9-40.988a31.7,31.7,0,0,0-10.392,7.1,29.447,29.447,0,0,0-6.994,10.3,30.336,30.336,0,0,0-2.3,12.2,31.034,31.034,0,0,0,2.3,12.3,32.667,32.667,0,0,0,17.386,17.395,28.818,28.818,0,0,0,12.29,2.3,28.818,28.818,0,0,0,12.29-2.3,29.43,29.43,0,0,0,10.292-7,31.661,31.661,0,0,0,8.593-15.4,30.457,30.457,0,0,0-1-17.595l-3.2,3.2a24.374,24.374,0,0,1,1,7.1,25.1,25.1,0,0,1-2,10.8,25.713,25.713,0,0,1-6.195,9.1,26.333,26.333,0,0,1-9.093,6.1,25.94,25.94,0,0,1-10.691,2.1A27.915,27.915,0,0,1,153.7,404.043a25.975,25.975,0,0,1,2.1-10.7,25.565,25.565,0,0,1,6.1-8.9,26.872,26.872,0,0,1,9.093-6.3,26.189,26.189,0,0,1,10.791-2.1,37.463,37.463,0,0,1,7.194,1l3.2-3.2a37.714,37.714,0,0,0-10.392-1.8A29.95,29.95,0,0,0,169.486,374.451Z" transform="translate(-149.798 -372.048)" fill="#fff"/>
      </g>
    </g>
  </g>
</svg>
