<svg id="dota2" xmlns="http://www.w3.org/2000/svg" width="64" height="64" viewBox="0 0 64 64">
  <g id="그룹_1621" data-name="그룹 1621">
    <g id="그룹_1620" data-name="그룹 1620">
      <path id="패스_868" data-name="패스 868" d="M63.364,3a1.113,1.113,0,0,0-.1-.5,2.857,2.857,0,0,0-2.3-1.9V.3Q31.982,0,3.1,0V.6a1.886,1.886,0,0,0-.6.1A7.721,7.721,0,0,0,.6,2.4V3H0Q0,31.293.3,59.687H.6a1.62,1.62,0,0,0,.3,1q0,.2.4.2v.6q-.4,1.2.6,1.2h.6q.2,1,1.8.6H6.7a9.893,9.893,0,0,0,5.5.6H51.171q3.1,0,6.1-.3v-.3h3.7q1.6.1,1.8-1.2v-1.2a2.669,2.669,0,0,0,.5-.7,1.113,1.113,0,0,0,.1-.5h.3q.8-29.094-.3-56.687M54.269,6.7h.6q2.9-.2,3,2.4v.6h-.6a4.8,4.8,0,0,0,.3,1.7q0,.1.3.1V22.3a.579.579,0,0,1-.1.4,3.466,3.466,0,0,0-1.7,2.6,3.392,3.392,0,0,0,1.1,2.6.579.579,0,0,1,.1.4v5.5h-.6q-.3,1.2.6,1.2h.6v15.6a1.888,1.888,0,0,0,.1.6q.7,3.2-1.3,3.6h-.6q0-.3-.1-.3a20.086,20.086,0,0,0-3.5-.3v1.2H35.979v.6a.678.678,0,0,0-.5.2,4.2,4.2,0,0,1-1.9.4q0-.3-.1-.3a5.657,5.657,0,0,0-1.8-.3,1.886,1.886,0,0,0-.6.1q-2.8,1.1-3.6-.7,0-.3-.1-.3a21.842,21.842,0,0,0-3.6-.3H9.195a1.886,1.886,0,0,0-.6.1q-1.3.3-1.3-.7v-9.6a1.258,1.258,0,0,0,.5-.7.678.678,0,0,0,.2-.5q1-.2.6-1.8v-1.2q.4-1.6-.6-1.8a.678.678,0,0,1-.5-.2.4.4,0,0,1-.2-.4v-6.1a.79.79,0,0,0,.5-.1.678.678,0,0,0,.2-.5q.3,0,.3-.1.7-1.5-.3-1.7v-3.6q.4-1.9-.7-2.4v-.6a1.888,1.888,0,0,1,.1-.6q.3-1.3-.7-1.2V16.9q1,.1.7-1.2a1.888,1.888,0,0,1-.1-.6V6.7H20.088q.5,1,2.5.6h.6q2.7.2,3.8-1.1a.678.678,0,0,1,.5-.2,48.817,48.817,0,0,0,5.4-.3V5.4h.7q-.1,1,1.2.7a1.886,1.886,0,0,1,.6-.1,7.813,7.813,0,0,0,1.9,1.1.678.678,0,0,0,.5.2q.5,1,2.4.3.1,0,.1-.3V6h8.5q1.9-.1,2.4,1V6.7h3.1M16.491,36.792q-.3,0-.3.1a21.039,21.039,0,0,1-2.8,5.3v1.2h-.6a4.8,4.8,0,0,0,.3,1.7q0,.1.3.1a13.4,13.4,0,0,0,3.6,2.7q.1,0,.1.3a6.043,6.043,0,0,0,4.4-.5,1.112,1.112,0,0,1,.5-.1,4.8,4.8,0,0,0,1.7-.3q.1,0,.1-.3,1.2,0,1.1-.4-1.9-5.4-8.4-9.8m32.881-1.2a.678.678,0,0,1-.5-.2,3.83,3.83,0,0,0-1.9-.4.678.678,0,0,0-.2-.5,50.413,50.413,0,0,0-6.5-4.4q0-.3-.2-.3Q28.384,22.3,17.09,14.5q0-.3-.1-.3a4.8,4.8,0,0,0-1.7-.3v.6h-1.2v.6h-1.3a2.1,2.1,0,0,0,.3,1.1q0,.1.3.1,6.9,7.6,14.192,14.9a1.112,1.112,0,0,0,.5.1q7,7.9,14.092,15.6a1.112,1.112,0,0,0,.5.1q.2,1,1.8.7a1.886,1.886,0,0,1,.6-.1h1.3q.4,1,2.3.3.1,0,.1-.3a10.882,10.882,0,0,0,2.4-4.8v-.6q1,.1.7-1.2a1.888,1.888,0,0,1-.1-.6.579.579,0,0,0,.4-.1q.7-1.8-.4-2.3v-.4a2.9,2.9,0,0,1-2.4-2m-1.2-19.3a.4.4,0,0,1-.4-.2,3.888,3.888,0,0,0-3.3-1.6h-1.8v.6a1.886,1.886,0,0,0-.6.1,23.741,23.741,0,0,1-4.3,1.1q4.1,5.6,9.794,6.3v-.3q1,.1.6-1.2V19.3q.3,0,.3-.1Q49.172,17.1,48.172,16.3Z" fill="#fff"/>
    </g>
  </g>
</svg>
