<svg xmlns="http://www.w3.org/2000/svg" width="64" height="64" viewBox="0 0 64 64">
  <g id="esports" transform="translate(0.008 0.008)">
    <path id="패스_806" data-name="패스 806" d="M0,0V64H64V0Z" transform="translate(-0.008 -0.008)" fill="rgba(255,255,255,0)"/>
    <path id="패스_807" data-name="패스 807" d="M305.357,541.3a7.726,7.726,0,0,0,2.2.7h21.289q0,6-4.3,7.8a8.961,8.961,0,0,1-4.2.6v4.4h29.785v-4.3q-6.2,0-8.2-4.2l-.3-4.3h21.289a3.467,3.467,0,0,0,3.7-2.1l.6-2.2v-38.39a3.856,3.856,0,0,0-2.1-3.8l-2.2-.4H307.556a3.747,3.747,0,0,0-3.8,2.1,4.636,4.636,0,0,0-.5,2.1V537.7a3.389,3.389,0,0,0,2.1,3.6m28.386,0a1.919,1.919,0,0,1-.6-1.4q0-2.3,2.1-2.2,2.1,0,2.1,2.2a1.919,1.919,0,0,1-.6,1.4l-.2.2a2.119,2.119,0,0,1-1.4.5,2.03,2.03,0,0,1-1.4-.7m-26.187-7.8V499.307h55.372V533.5H307.556m36.882-28.093a4.66,4.66,0,0,0-3.1-1,16.2,16.2,0,0,0-7.8,2.4,17.266,17.266,0,0,0-6.2,6.2,16.3,16.3,0,0,0-2.3,8,5.981,5.981,0,0,0,7.1,6.1,12.165,12.165,0,0,0,5.7-1.3,16.344,16.344,0,0,0,5.3-4.7l-.8-.7a14.388,14.388,0,0,1-3.8,2.9,8.128,8.128,0,0,1-3.3.9,3.629,3.629,0,0,1-2.8-1.2,3.97,3.97,0,0,1-1-2.9l.2-2.5a27.913,27.913,0,0,0,4.6-.7,14.049,14.049,0,0,0,4.8-2.1,9.549,9.549,0,0,0,3.4-3.7,5.038,5.038,0,0,0,1.1-3.2,3.052,3.052,0,0,0-1.1-2.5m-5.7.7a.687.687,0,0,1,.9.3,1.529,1.529,0,0,1,.5,1.1,8.132,8.132,0,0,1-.9,3.3,16.07,16.07,0,0,1-1.9,3.1l-2.3,1.8-3.2.7a20.309,20.309,0,0,1,4.4-8.8A3.687,3.687,0,0,1,338.74,506.105Z" transform="translate(-303.25 -493.1)" fill="#fff"/>
  </g>
</svg>
