<svg xmlns="http://www.w3.org/2000/svg" width="64" height="64" viewBox="0 0 64 64">
  <g id="figure-skating" transform="translate(0 -0.1)">
    <rect id="사각형_14" data-name="사각형 14" width="64" height="64" transform="translate(0 0.1)" fill="#fff" opacity="0"/>
    <path id="패스_35" data-name="패스 35" d="M15.349,12.114H2.956L2.16,13.6a1.193,1.193,0,0,1-1.023.571,1.021,1.021,0,0,1-.568-.114,1.269,1.269,0,0,1-.455-1.6L1.25,10.4a1.355,1.355,0,0,1,1.023-.571H15.349a1.142,1.142,0,0,1,1.137,1.143,1.226,1.226,0,0,1-1.137,1.143Zm36.5,47.657a1.147,1.147,0,0,0-1.592.457l-.8,1.486H37.178a1.143,1.143,0,0,0,0,2.286H50.253a1.193,1.193,0,0,0,1.023-.571l1.137-2.057a1.317,1.317,0,0,0-.568-1.6ZM52.3,0a6.738,6.738,0,0,0-6.708,6.743,6.708,6.708,0,1,0,13.416,0A6.666,6.666,0,0,0,52.3,0ZM40.021,32.8l6.367,10.057a3.3,3.3,0,0,1,.341,2.514l-2.842,8.457H46.5A2.943,2.943,0,0,1,49.457,56.8,2.849,2.849,0,0,1,46.5,59.657H39.793A2.962,2.962,0,0,1,37.406,58.4a2.727,2.727,0,0,1-.341-2.629L40.7,44.8,33.654,33.714c-.114-.114-.114-.229-.227-.343A26.255,26.255,0,0,1,10.914,20.114H6.253A3,3,0,0,1,3.41,17.143a2.921,2.921,0,0,1,2.842-2.971h6.594A2.955,2.955,0,0,1,15.576,16,20.345,20.345,0,0,0,34.449,27.543c8.755,0,12.165-4.343,13.416-7.429a22.981,22.981,0,0,1-10.8,2.629A16.672,16.672,0,0,1,23.307,16a2.9,2.9,0,0,1,.8-4,2.793,2.793,0,0,1,3.979.8,10.816,10.816,0,0,0,8.868,4.114,15.937,15.937,0,0,0,9.778-3.086,9.061,9.061,0,0,0,5.457,1.943c.568,0,1.137-.114,1.705-.114a2.765,2.765,0,0,1,.455,1.714A17.625,17.625,0,0,1,40.021,32.8Zm0,0" transform="translate(1.997 0.1)" fill="#fff"/>
  </g>
</svg>
