<svg xmlns="http://www.w3.org/2000/svg" width="64" height="64" viewBox="0 0 64 64">
  <g id="floorball" transform="translate(0.009)">
    <g id="그룹_1581" data-name="그룹 1581" transform="translate(0.009)">
      <g id="그룹_1580" data-name="그룹 1580">
        <path id="패스_852" data-name="패스 852" d="M0,0V64H63.981V0Z" fill="rgba(255,255,255,0)"/>
      </g>
    </g>
    <g id="그룹_1583" data-name="그룹 1583" transform="translate(-0.009)">
      <g id="그룹_1582" data-name="그룹 1582">
        <path id="패스_853" data-name="패스 853" d="M571.948,629.2h.1a5.532,5.532,0,0,0-1.6-3,7.888,7.888,0,0,0-2.3-1.4l.2.1v.1h-1v-.1h-.3v-.1h-.4v-.3h.6l-1.3-.2a6.262,6.262,0,0,0-4.6,1.9,9.314,9.314,0,0,0-1.8,3.3h.2v-.2h.2v.3l.2.1v.9h-.2v.6h-.2v-.3h-.2a6.442,6.442,0,0,0,1.8,4.7,5.7,5.7,0,0,0,1.5,1.1v-.3h.6v.1h.4v.2h.3v.1h.3v.2h.1v.3h-.3l1.7.1,2-.3h-.3v-.3h.1l.2-.1h.1v-.2h.3v-.1h.8v.1l1.3-1a5.115,5.115,0,0,0,1.9-4.6l-.1-1v.7h-.2v.1h-.1v-.4h-.1v-.4h-.2v-1h.3v.3m-2.2-2.6h.3v.3h.1v.7h-.2v.1h-.1v.2h-.3v-.2h-.3v-.1h-.1v-.1h-.3v-.3h-.1v-1h.7l.1.1v.2h.2v.1m.2,3h.2v-.1h.8v.2l.2.2v.1h.1v.7h-.1v.2h-.2v.3h-.1v.1h-.7V631h-.2v-.1l-.1-.2v-.8h.1v-.3m.7,3.3h.3v1h-.1v.1h-.2v.1h-.1v.3h-.1v.2h-.6v-.7h.1v-.3h.2v-.3h.1v-.2h.3V633h.1v-.1m-5.5-8.1v.1h.1v.2h.2v.1h-.2v.1h-.1v.2h-.2v.1h-.5v.2h-.7v-.2h-.3v-.4h.3v-.1h.1v-.2h.3v-.1h1m1.2,2.4h.3v.1h.1v.2h.2v.8h-.2v.2h-.4v.1h-.7v-.1h-.3v-.2h-.1V628h-.1v-.1l.1-.2v-.2h.1v-.2h.2v-.1h.1V627h.7v.2m-4.3-.7v.1h.2v.3h-.2v.4h-.1v.2h-.2v.2h-.1v.2h-.1v.1h-.5v.2h-.1V628h-.1v-.5h.1V627h.1v-.1h.2v-.1h.1v-.2h.3v-.1h.4m-.1,2.5v-.1h.9v.1h.2v.2h.1v.2l.2.2v.4h-.2v.4h-.1v.3h-1.1v-.1h-.2v-.3h-.1v-1h.1V629h.2m1.8,3.3v-.2h1.1v.2h.1v.4h.2v.6h-.2v.3h-.1v.1h-.3v.2h-.1v.1h-.4v-.1h-.3v-.2h-.2v-.1h-.1v-.2h-.1v-.8h.1v-.2h.1v-.1h.2m-1.7,1.3v.1h.2v.1l.1.2v.8h-.1v.2h-.2v-.2h-.3v-.1l-.1-.1h-.1l-.2-.2v-.3h-.1V634h-.2v-.9h.5l.1.2h.1v.3h.3m6.4-2.6v.2h.1v.4h.2v.1h-.2v.4h-.2v.2h-.2v.3h-.8v-.2h-.1l-.2-.1h-.1V632h-.2v-.7h.2v-.4h.3v-.2h.9v.2h.2v.1h.1m-2.9,4.1V635h1.1v.1h.3v.2l.1.1h.2v.2h-.2v.2h-.1v.2h-.6v.1h-.4V636h-.7v-.2h-.1v-.4h.1v-.1h.2v-.2h.1m30.291-17.7a2.51,2.51,0,0,0,2.1-1.6,2.308,2.308,0,0,0-2.1-2,3.446,3.446,0,0,0-1.1,2.5L565.85,649l-28.692-32.7a3.684,3.684,0,0,0-1.2-2.5,2.15,2.15,0,0,0-2,2,2.979,2.979,0,0,0,2,1.6l28.092,33.8-9.9,11.3-.6.9-1.8,1.2a35.112,35.112,0,0,1-11.8.2q-4.2-.8-4.7.5a9.582,9.582,0,0,0-1,2.2l-.3,1.4q-.3,1.4,4.2,2.4a23.793,23.793,0,0,0,9.4.9,12.138,12.138,0,0,0,6-1.5,5.178,5.178,0,0,0,1.1-2.7l.2-1.4,11-13.3,11.1,13.3.1,1.4a4.91,4.91,0,0,0,1.3,2.7q.9,1,5.8,1.5a24.173,24.173,0,0,0,9.5-.9q4.3-1,4.3-2.4l-.4-1.4a5.458,5.458,0,0,0-1-2.1q-.6-1.3-4.6-.6a38.66,38.66,0,0,1-11.8-.2,5.327,5.327,0,0,1-1.8-1.2l-10.7-12.2,28.192-33.8m-59.483,48.4h1.2l1.4.3-.2,1.8-3.1-1.1.4-.6v-.1l.3-.3m2.8,4.7v-.2l.2-1.4,3.1.3-.1,1.5-3.2-.2m-.9-.3a6.866,6.866,0,0,1-3-1.4q-.2,0,.1-1.2a9.314,9.314,0,0,0,3.2,1.2l-.3,1.4m1.7-4,2.6.3-.1,2-2.9-.5.4-1.8m3.2,4.7.1-1.6h3.5l.2,1.6h-3.8m4.6,0v-1.6l2.9-.3.3,1.5a12.373,12.373,0,0,1-3.2.4m-1-2.4h-3.5l.2-1.9,3.3-.1v2m1,0-.2-2,2.5-.3.3,2-2.6.3m3.2-2.4,1.2-.2a1.682,1.682,0,0,1,1,2l-1.8.1-.4-1.9m2.1,2.7-.7,1.1-.7.3-.3-1.2,1.7-.2m26.392,1.1-.7-1.1,1.7.2-.3,1.2-.7-.3m-.7-2a1.472,1.472,0,0,1,1-2l1.1.2-.3,1.9-1.8-.1m6.4-1.4,3.2.1.1,1.9h-3.4l.1-2m-3.5-.3,2.5.3v2l-2.8-.3.3-2m-.5,2.8,3,.3v1.6a12.372,12.372,0,0,1-3.2-.4l.2-1.5m8.3,1.7-.1-1.5,3.2-.3.1,1.4v.2l-3.2.2m-1-1.4.2,1.6h-3.8l.2-1.6h3.4m.9-.8v-2l2.6-.3.4,1.8-3,.5m6.2-2.7.2.3v.1l.4.6a31.029,31.029,0,0,1-3.1,1.1l-.3-1.8,1.6-.3h1.2m-2.1,4.4-.1-1.4a9.343,9.343,0,0,0,3.1-1.2q.2,1.2.1,1.2A6.89,6.89,0,0,1,593.442,670.2Z" transform="translate(-533.941 -613.8)" fill="#fff"/>
      </g>
    </g>
  </g>
</svg>
