<svg xmlns="http://www.w3.org/2000/svg" width="64.001" height="64" viewBox="0 0 64.001 64">
  <g id="formula_e" data-name="formula e" transform="translate(-176.999 -843)">
    <rect id="사각형_1040" data-name="사각형 1040" width="64" height="64" transform="translate(177 843)" fill="#fff" opacity="0"/>
    <path id="패스_3207" data-name="패스 3207" d="M-9881.532,1437.323a4.026,4.026,0,0,1-.8-.12,2.287,2.287,0,0,1-1.171-.682c-.77-.795-.807-1.741-.2-5.009a7.453,7.453,0,0,1,.538-2.239,4.057,4.057,0,0,1,1.572-.055c.187.07.161.341-.239,2.526-.2,1.089-.381,2.287-.4,2.663-.043.665-.038.688.184.934a.89.89,0,0,0,.686.316,1.544,1.544,0,0,1,.538.142,2.648,2.648,0,0,1-.215,1.353c-.086.135-.17.172-.431.172Zm-8.933-.047a2.612,2.612,0,0,1-1.369-.777,2.421,2.421,0,0,1-.65-1.8,42.031,42.031,0,0,1,.922-5.355c.109-.172.159-.179.876-.159.613.017.777.05.845.157a10.155,10.155,0,0,1-.331,2.5c-.528,3.011-.528,3.442,0,3.714a2.025,2.025,0,0,0,1.5-.065c.623-.314.737-.638,1.258-3.547a26.237,26.237,0,0,1,.556-2.648c.08-.095.264-.125.8-.125.867,0,.947.03.947.349,0,.339-.763,4.65-.92,5.193a3.311,3.311,0,0,1-2.493,2.5,6.755,6.755,0,0,1-1.308.112A3.438,3.438,0,0,1-9890.465,1437.276Zm-25.271-.022a2.664,2.664,0,0,1-1.754-1.42,4.778,4.778,0,0,1-.112-2.822,5.011,5.011,0,0,1,1.144-2.782,3.809,3.809,0,0,1,3.1-1.116,2.637,2.637,0,0,1,1.848.653,2.732,2.732,0,0,1,.857,1.883,10.4,10.4,0,0,1-.723,3.577,3.44,3.44,0,0,1-2.426,1.98,5.734,5.734,0,0,1-1.184.111A3.487,3.487,0,0,1-9915.736,1437.254Zm1.968-6.5a1.732,1.732,0,0,0-1.609,1.128,9.019,9.019,0,0,0-.476,2.476c0,.929.421,1.338,1.325,1.288a1.326,1.326,0,0,0,.832-.267c.5-.349.734-.887.981-2.209a3.354,3.354,0,0,0,.114-1.514,1.061,1.061,0,0,0-1.16-.9Zm47.635,6.444c-1.639-.5-2.18-1.883-1.687-4.309a12.509,12.509,0,0,1,.366-1.432,3.624,3.624,0,0,1,3.908-2.346,2.486,2.486,0,0,1,2.376,1.537,2.851,2.851,0,0,1,.17,1.452,5.376,5.376,0,0,1-.117,1.387l-.114.316-2.389.04c-1.315.022-2.416.065-2.449.1a1.341,1.341,0,0,0-.057.476,1.039,1.039,0,0,0,.64,1.108c.349.154.464.162,1.971.11a6.213,6.213,0,0,1,1.651.032,2.487,2.487,0,0,1-.274,1.3,7.4,7.4,0,0,1-2.691.347A5.284,5.284,0,0,1-9866.134,1437.2Zm.67-5.689c-.249.391-.366.772-.284.907a12.552,12.552,0,0,0,2.853,0,1.876,1.876,0,0,0-.075-1.1,1.141,1.141,0,0,0-1.059-.561A1.719,1.719,0,0,0-9865.464,1431.51Zm-12.053,5.712a2.368,2.368,0,0,1-1.739-1.624,6.75,6.75,0,0,1,.212-3.457c.558-2.438,2.337-3.4,5.428-2.934,1.051.159,1.484.279,1.564.428a17.142,17.142,0,0,1-.359,2.546c-.233,1.328-.5,2.877-.6,3.44a3.438,3.438,0,0,1-.307,1.161,7.65,7.65,0,0,1-3.182.533A4.293,4.293,0,0,1-9877.517,1437.221Zm.819-5.966a3.836,3.836,0,0,0-.652,2c-.265,1.577-.215,1.955.315,2.312.255.172.342.184,1.124.162a3.324,3.324,0,0,0,.927-.107c.042-.042.259-1.123.482-2.4a8.855,8.855,0,0,0,.312-2.436c-.069-.082-.3-.11-.879-.11C-9875.963,1430.675-9876.289,1430.79-9876.7,1431.256Zm-19.907,5.669c0-.09.217-1.392.483-2.9.53-3.019.53-3.1.053-3.268a2.287,2.287,0,0,0-1.331.037,1.008,1.008,0,0,0-.363.374c-.072.14-.354,1.515-.628,3.059s-.53,2.835-.57,2.877c-.087.087-.254.1-1.1.08-.483-.01-.655-.042-.687-.13-.025-.065.167-1.315.426-2.782s.471-2.785.471-2.927a.823.823,0,0,0-.149-.443c-.127-.157-.234-.187-.732-.209-.692-.032-1.036.132-1.223.578-.062.154-.331,1.5-.593,2.989a25.163,25.163,0,0,1-.586,2.82,3.477,3.477,0,0,1-1.688.045c-.119-.087-.087-.334.371-2.929.274-1.559.551-2.979.613-3.156a2.719,2.719,0,0,1,1.663-1.734,3.988,3.988,0,0,1,1.612-.174c1.1,0,1.165.007,1.574.219l.426.219.525-.214a3.5,3.5,0,0,1,1.357-.247,3.285,3.285,0,0,1,2.115.4,1.706,1.706,0,0,1,.754,1.612,44.218,44.218,0,0,1-1.019,5.968c-.082.085-.307.122-.8.13h-.164C-9896.424,1437.223-9896.6,1437.15-9896.6,1436.925Zm-28.214.264a.271.271,0,0,1-.177-.142,11.993,11.993,0,0,1,.227-1.639c.147-.839.379-2.157.514-2.932.286-1.641.448-2.127.849-2.541.646-.665,1.211-.782,3.632-.75l1.741.022-.015.583c-.03.991.027.962-1.868.964a7.31,7.31,0,0,0-1.8.1,1.262,1.262,0,0,0-.523,1.029l-.055.456h1.3a13.7,13.7,0,0,1,1.484.052c.18.047.187.072.142.541a2.766,2.766,0,0,1-.142.7l-.095.212h-1.447a4.356,4.356,0,0,0-1.509.095c-.033.055-.175.755-.316,1.557a8.7,8.7,0,0,1-.361,1.559,4.6,4.6,0,0,1-1.3.153A1.614,1.614,0,0,1-9924.818,1437.189Zm15.125,0c-.1-.02-.14-.1-.14-.319,0-.488,1.171-6.987,1.282-7.121a4.938,4.938,0,0,1,2.641-.633c1.1-.057,1.113-.045.979.767a2,2,0,0,1-.194.67,2.53,2.53,0,0,1-.874.149,3.159,3.159,0,0,0-.842.122c-.062.06-.291,1.29-.994,5.306a4.824,4.824,0,0,1-.227.961,6.623,6.623,0,0,1-1.344.113A1.738,1.738,0,0,1-9909.693,1437.187Zm38.65-2.967c-.145-.107-.145-.137-.013-.937.194-1.181.2-1.183,1.1-1.183.977,0,.969-.007.795,1.066a4.288,4.288,0,0,1-.239.974,1.936,1.936,0,0,1-1,.179A1.4,1.4,0,0,1-9871.043,1434.22Zm-27.046-14.821c-6.65,0-8.653-4.135-9.924-6l47.013-.007c-.946,1.191-5.264,6.038-11.729,6.04Zm15.728-10.006H-9925a14.513,14.513,0,0,1,11.426-5.973l32.946-.045h.024c.14-.01.277-.02.409-.035,2.456-.394,2.623-3.933.476-3.968h-.055a.068.068,0,0,0,.022.005h-1.714c-3.357.007-8.444.01-13.077,0h-10.987c.013-.015.025-.032.04-.047h-.015c2.027-2.556,6.389-6.03,11.906-6l3.5.017c3.677-.032,4.3-.042,9.63.052a4.9,4.9,0,0,1,3.359,1.328,4.673,4.673,0,0,0-3.292-1.328c.966-.015.824,0,2.1.008a6.438,6.438,0,0,1,6.212,6.533,9.874,9.874,0,0,1-9.9,9.46C-9882.11,1409.4-9882.234,1409.4-9882.361,1409.394Zm1.73-6.018h0Z" transform="translate(10101.999 -540.324)" fill="#fff"/>
  </g>
</svg>
