<svg xmlns="http://www.w3.org/2000/svg" width="64" height="64" viewBox="0 0 64 64">
  <g id="freestyle_skiing" data-name="freestyle skiing" transform="translate(-10405 678)">
    <rect id="사각형_1045" data-name="사각형 1045" width="64" height="64" transform="translate(10405 -678)" fill="#fff" opacity="0"/>
    <path id="skiing" d="M51.9,56.308a5.64,5.64,0,1,1-5.64-5.64A5.64,5.64,0,0,1,51.9,56.308Zm11.323-45.3a29.014,29.014,0,0,1,1.039,4.361l5.684,1.687a3.76,3.76,0,0,1,2.535,4.674h0L64.6,19.392c.068,4.332-1.413,11-2.885,15.5L57.982,45.083A23.552,23.552,0,0,1,65.774,56.2l1.1,3.3a3.418,3.418,0,1,1-6.485,2.162l-1.1-3.3A16.88,16.88,0,0,0,37.938,47.683l-3.3,1.1A3.418,3.418,0,1,1,32.472,42.3l3.3-1.1A23.561,23.561,0,0,1,48.7,40.6l3.221-8.786L51,27.23a22.067,22.067,0,0,0-1.252-4.1L45.623,15.9a3.4,3.4,0,0,1-.4-2.262l-14.2-4.214a1.88,1.88,0,0,1,1.07-3.6L56.721,13.13c-.031-.1-.059-.192-.091-.288A3.415,3.415,0,0,1,57.5,9.307L38.545,3.683a1.88,1.88,0,0,1-1.267-2.337h0A1.88,1.88,0,0,1,39.615.078L77.462,11.312A3.76,3.76,0,0,1,80,15.986Zm-5.6,6.314-4-1.187,2.162,3.792a3.438,3.438,0,0,1,.175.353,28.937,28.937,0,0,1,1.362,3.978A21.965,21.965,0,0,0,57.624,17.32Z" transform="translate(10382.32 -678)" fill="#fff"/>
  </g>
</svg>
