<svg xmlns="http://www.w3.org/2000/svg" width="63.999" height="64" viewBox="0 0 63.999 64">
  <g id="ice_hockey" data-name="ice hockey" transform="translate(-10312 1082)">
    <path id="패스_796" data-name="패스 796" d="M0,0V64H63.894V0Z" transform="translate(10312 -1082)" fill="rgba(255,255,255,0)"/>
    <path id="패스_3192" data-name="패스 3192" d="M48.488,55.6A9.66,9.66,0,0,1,42.7,52.7L32.016,39.9,21.434,52.7a10.977,10.977,0,0,1-5.99,2.9H.768a1,1,0,0,1-.7-1.4l.9-2.6q1-1.8,1.6-1.9H17.839l1.8-1.2L29.42,37,.068,1.6,2.365,0,32.016,34.1,61.566,0l2.3,1.6L34.511,36.9l9.983,11.6a3.329,3.329,0,0,0,1.8,1.2H61.367q.5.1,1.6,1.8l.9,2.7a.934.934,0,0,1-.7,1.4ZM23.752,13.978v-4.3c0-2.817,3.782-5.022,8.609-5.022s8.609,2.2,8.609,5.022v4.3C40.97,16.794,37.188,19,32.36,19S23.752,16.794,23.752,13.978Zm1.435,0c0,1.944,3.286,3.587,7.174,3.587s7.175-1.643,7.175-3.587V12.485A11.108,11.108,0,0,1,32.36,14.7a11.107,11.107,0,0,1-7.174-2.21Zm0-4.3c0,1.944,3.286,3.587,7.174,3.587s7.175-1.642,7.175-3.587S36.249,6.087,32.36,6.087,25.187,7.729,25.187,9.674Z" transform="translate(10312.03 -1078)" fill="#fff"/>
  </g>
</svg>
