<svg id="lacrosse" xmlns="http://www.w3.org/2000/svg" width="64" height="64" viewBox="0 0 64 64">
  <g id="그룹_1603" data-name="그룹 1603">
    <g id="그룹_1602" data-name="그룹 1602">
      <path id="패스_861" data-name="패스 861" d="M0,0V63.95H64V0Z" fill="rgba(255,255,255,0)"/>
    </g>
  </g>
  <g id="그룹_1605" data-name="그룹 1605" transform="translate(0.018)">
    <g id="그룹_1604" data-name="그룹 1604">
      <path id="패스_862" data-name="패스 862" d="M287.491,668.1l-.1-.2a9.483,9.483,0,0,0-6.6-2.8,9.762,9.762,0,0,0-7.2,3.4,26.278,26.278,0,0,0-2.4,3,13.589,13.589,0,0,0-1.2,2.8,10.12,10.12,0,0,1-1.4,3l-3.3,4.2a24.649,24.649,0,0,0-2.3,4.6l-.9,2.8.1,1-3.9,3.9-3.8-3.9a1.3,1.3,0,0,0,0-1l-.9-2.8a23.092,23.092,0,0,0-2.2-4.6l-1.6-2q-1.2-1.5-1.8-2.2a10.412,10.412,0,0,1-1.3-3,13.809,13.809,0,0,0-1.3-2.8,12.883,12.883,0,0,0-2.3-3,9.762,9.762,0,0,0-7.2-3.4,9.483,9.483,0,0,0-6.6,2.8l-.2.2a11.576,11.576,0,0,0-2.7,5.6,8.782,8.782,0,0,0,.5,4.3,9.879,9.879,0,0,0,4,5.1,12.372,12.372,0,0,0,4.9,2.3,18.367,18.367,0,0,1,3.1,1l2.5,1.5a20.514,20.514,0,0,0,7,3.3l2.9.8,4.4,4.5-28.8,29.377a1.937,1.937,0,0,0,0,2.6,1.816,1.816,0,0,0,1.3.6,1.92,1.92,0,0,0,1.4-.6l28.7-29.377,28.8,29.377a1.727,1.727,0,0,0,2.7,0,1.635,1.635,0,0,0,.5-1.2,2.4,2.4,0,0,0-.5-1.4l-28.9-29.377,4.4-4.5h.1l2.9-.8a26.7,26.7,0,0,0,4.8-1.9l4.6-2.9a17.582,17.582,0,0,1,3.1-1,11.554,11.554,0,0,0,4.9-2.3,10.406,10.406,0,0,0,4.1-5.1,9.219,9.219,0,0,0,.4-4.3,10.462,10.462,0,0,0-2.7-5.6m-4.6,1.2a6.981,6.981,0,0,1,1.8,1.2,6.3,6.3,0,0,1,1.4,2.4l-.3.1-2.8,2.3-2.8-2.6,2.7-3.4m-6.2,1.3a8.735,8.735,0,0,1,1.9-1.3,5.775,5.775,0,0,1,2.2-.5l1.2.1-2.6,3.3a13.5,13.5,0,0,0-2.7-1.6m9.7,3.1a3.918,3.918,0,0,1-.2,3,5.951,5.951,0,0,1-1.2,2.1,11.477,11.477,0,0,0-1.5-2.8l2.9-2.3m-5.2,1,1.1,1.2-2.6,2.1-2.3-2,2.2-2.6,1.6,1.3m3,4.9-2.3,1.6a8.887,8.887,0,0,0-1.6-2.5l2.5-2.1a8.934,8.934,0,0,1,1.4,3m-3.2,1.9-.9.3a16.16,16.16,0,0,0-3.2.9l-.5-.6,3.2-2.7a5.793,5.793,0,0,1,1.4,2.1m-2.1-8.593-2.2,2.6a15.731,15.731,0,0,0-2.6-1.5,13.543,13.543,0,0,1,1.9-2.7,14.379,14.379,0,0,1,2.9,1.6m-5.3,2.5.1-.5a11.188,11.188,0,0,1,2.4,1.3l-2.7,3-1.1-.8a14.073,14.073,0,0,0,1.3-3m-.9,4.5q-.3.4-2.5,2.6l-.6-.5.2-.1,2-2.6.9.6m-1.8,3.2q2.1-2.1,2.5-2.6l1.7,1.6-2.7,2.5-1.5-1.5m4.8-.3.4.3-2.1,1.2,1.7-1.5m3.3-4.1q-2.2,1.8-3.2,2.8l-1.7-1.7q2.3-2.6,2.7-3.1l1.6,1.3.6.7m-10.7,4.9.7-.9.6.5-2.1,2,.8-1.6m-.6,3.3-.5-.2,3.1-2.9,1.4,1.4-1.3,1.3-2.4.9-.3-.5m-35.7-16.387a8.473,8.473,0,0,1,1.8-1.2l2.7,3.4-1.7,1.4-1.1,1.2-2.9-2.3-.3-.1a11.149,11.149,0,0,1,1.5-2.4m3.9-1.7a5.65,5.65,0,0,1,4.1,1.8,17.017,17.017,0,0,0-2.8,1.6l-2.5-3.3,1.2-.1m6.6,5.2a11.282,11.282,0,0,0-2.5,1.5l-2.2-2.6,2.9-1.6,1.8,2.7m.4.9.2.5a15.464,15.464,0,0,0,1.3,3.1l-1.1.8-2.7-3.1a12.065,12.065,0,0,1,2.3-1.3m-2.7,7.194-.5.6a16.16,16.16,0,0,0-3.2-.9l-.9-.3a8,8,0,0,1,1.5-2.1l3.1,2.7m1.4,0,1.6-1.6,2.5,2.6-.3.4-1.1,1.1-2.7-2.5m.2-1.6-.9,1-3.2-2.8,2.1-1.9,2.8,3-.8.7m-1.2,2.6.3-.3,1.7,1.5-2-1.2m7-.4.7.9.9,1.6-2.1-2,.5-.5m-1.7-2v-.1l1,1.3.1.1-.6.5-2.5-2.6,1-.6,1,1.4m3.5,6-.4.2a4.9,4.9,0,0,1-.3.5l-2.5-.9-1.3-1.3,1.1-1.1.4-.3,3,2.9m-12.3-13.29,2.1,2.6-1.6,1.4-.6.7-2.6-2.2,1.1-1.2,1.6-1.3m-6.8.3,2.8,2.3a10.947,10.947,0,0,0-1.4,2.8,5.928,5.928,0,0,1-1.3-2.1,5.142,5.142,0,0,1-.1-3m6,5a11.258,11.258,0,0,0-1.5,2.5,12.449,12.449,0,0,1-2.4-1.6,10.121,10.121,0,0,1,1.4-3Z" transform="translate(-226.309 -665.1)" fill="#fff"/>
    </g>
  </g>
</svg>
