<svg id="lol" xmlns="http://www.w3.org/2000/svg" width="64" height="64" viewBox="0 0 64 64">
  <g id="그룹_1618" data-name="그룹 1618">
    <g id="그룹_1617" data-name="그룹 1617">
      <path id="패스_867" data-name="패스 867" d="M0,0V64H64V0H0M6.4,57.6V6.4H57.6V57.6H6.4m43.4-11q-1,.5-1.9.9a28.538,28.538,0,0,1-7.1,2.2q-.8.1-5.2,0t-5.3-.2q-.6-.2-.8-1.2,0-.4-.1-1.3a7.333,7.333,0,0,0-.1-1.5q-.1-1.2-.1-2.7V37.7L29.3,13q0-.7,2.5-2.2,1.2-.7,2.5-1.3A7.056,7.056,0,0,0,35,9a.392.392,0,0,0,.3-.4q0-.6-1.4-.6H16.6q-1.4,0-1.4.6a.678.678,0,0,0,.2.5q.3.2.8.5l.8.3a16.772,16.772,0,0,1,1.6,1q2.5,1.4,2.5,2.1l.1,24.7v5.5q-.1,2.3-.3,6.5-.2,1.3-2.7,3.6-.3.3-1.7,1.4a3.524,3.524,0,0,0-.7.8q0,.6,1.2.6l8-.2q5.6.1,11.2.1,11.2.1,11.5,0,.3-.2,1.7-5t1.2-4.8A3.772,3.772,0,0,0,49.8,46.6Z" fill="#fff"/>
    </g>
  </g>
</svg>
