<svg xmlns="http://www.w3.org/2000/svg" width="64" height="64" viewBox="0 0 64 64">
  <g id="luge" transform="translate(0 -5.461)">
    <rect id="사각형_1034" data-name="사각형 1034" width="64" height="64" transform="translate(0 5.461)" fill="#fff" opacity="0"/>
    <path id="합치기_1" data-name="합치기 1" d="M45.612,58.559.549,13.5A1.875,1.875,0,1,1,3.2,10.844L48.264,55.908a8.12,8.12,0,0,0,11.485,0A1.875,1.875,0,1,1,62.4,58.56a11.871,11.871,0,0,1-16.789,0Zm8.774-6.77a5.579,5.579,0,0,1-3.971-1.644L24.183,23.913a5.616,5.616,0,1,1,7.942-7.943L58.358,42.2a5.615,5.615,0,0,1-3.97,9.587ZM21.847,11.139a5.581,5.581,0,1,1,3.947,1.635A5.541,5.541,0,0,1,21.847,11.139Z" transform="translate(1.001 5.85)" fill="#fff"/>
  </g>
</svg>
