<svg xmlns="http://www.w3.org/2000/svg" width="64" height="64.001" viewBox="0 0 64 64.001">
  <g id="mma" transform="translate(0 0.001)">
    <rect id="사각형_1043" data-name="사각형 1043" width="64" height="64" fill="#fff" opacity="0"/>
    <path id="패스_3620" data-name="패스 3620" d="M-2843.9-714h-26.4l-18.7-18.8.1-26.5,18.8-18.7,26.4.1,18.7,18.8-.1,26.5-18.8,18.6Zm-24.106-58.888-15.8,15.712-.084,22.266,15.712,15.8h22.181l15.8-15.628.084-22.266-15.712-15.8-22.181-.085h0Zm8.107,33.288h-2.7v-12.8h4l3,8.8h.1l2.8-8.8h4v12.8h-2.7v-9.1l-3.1,9.1h-2.2l-3.2-9v9Zm-16.3,0h-2.7v-12.8h4l3,8.8h.1l2.8-8.8h4v12.8h-2.7v-9.1l-3.1,9.1h-2.2l-3.2-9v9Zm31.4,0h-2.8l4.9-12.8h2.8l4.9,12.8h-3l-.9-2.9h-4.9l-1,2.9Zm3.5-9.7h0l-1.7,4.7h3.3l-1.6-4.7Z" transform="translate(2889 778)" fill="#fff"/>
  </g>
</svg>
