<svg id="olympic" xmlns="http://www.w3.org/2000/svg" width="64" height="64" viewBox="0 0 64 64">
  <g id="그룹_1542" data-name="그룹 1542">
    <g id="그룹_1541" data-name="그룹 1541">
      <path id="패스_836" data-name="패스 836" d="M0,0V64H63.989V0Z" fill="rgba(255,255,255,0)"/>
    </g>
  </g>
  <g id="그룹_1544" data-name="그룹 1544" transform="translate(0 17.996)">
    <g id="그룹_1543" data-name="그룹 1543">
      <path id="패스_837" data-name="패스 837" d="M83.448,564.3a10.584,10.584,0,0,0-10.5,10.5,10.335,10.335,0,0,0,3.1,7.6,9.127,9.127,0,0,0,7.4,3h.4a10.523,10.523,0,0,0,3.5,6.3,9.987,9.987,0,0,0,6.9,2.6,9.5,9.5,0,0,0,6.7-2.6,8.876,8.876,0,0,0,3.6-6.3h.6a9.989,9.989,0,0,0,3.6,6.3,10.189,10.189,0,0,0,13.6,0,9.224,9.224,0,0,0,3.7-6.3h.4a9.127,9.127,0,0,0,7.4-3,10.623,10.623,0,0,0,0-15,9.923,9.923,0,0,0-6.9-3.1,10.447,10.447,0,0,0-7.2,2.5,10.7,10.7,0,0,0-3.7,6.3h-.7a9.432,9.432,0,0,0-3.6-6.3,10.2,10.2,0,0,0-6.7-2.5,10.465,10.465,0,0,0-6.9,2.5,10.912,10.912,0,0,0-3.5,6.3h-.8a9.823,9.823,0,0,0-3.5-6.3,10.465,10.465,0,0,0-6.9-2.5m-5.6,4.9a7.008,7.008,0,0,1,5.6-2.2,7.592,7.592,0,0,1,7.8,6.5,11.5,11.5,0,0,0-5.1,3.5,10.251,10.251,0,0,0-2.4,5.8h-.3a7.673,7.673,0,0,1-5.6-2.4,8.228,8.228,0,0,1,0-11.2m22-.4a6.935,6.935,0,0,1,5.2-1.8,7.244,7.244,0,0,1,5,1.8,8.973,8.973,0,0,1,2.7,4.7,9.191,9.191,0,0,0-5.2,3.4,10.36,10.36,0,0,0-2.4,5.9h-.4a10.251,10.251,0,0,0-2.4-5.8,11.446,11.446,0,0,0-5.2-3.5,8.973,8.973,0,0,1,2.7-4.7m21.5,0a7.6,7.6,0,0,1,5.1-1.8,7.008,7.008,0,0,1,5.4,2.1,7.422,7.422,0,0,1,2.4,5.3v.4a7.182,7.182,0,0,1-2.2,5.6,7.673,7.673,0,0,1-5.6,2.4h-.4a9.382,9.382,0,0,0-2.3-5.8,10.193,10.193,0,0,0-5-3.5,7.7,7.7,0,0,1,2.6-4.7m-8.2,12.7a9.774,9.774,0,0,0,2.4-5.7h.4a8.775,8.775,0,0,0,2.4,5.6,9.209,9.209,0,0,0,5,3.5,7.518,7.518,0,0,1-2.7,4.7,7.348,7.348,0,0,1-5.1,2,7.567,7.567,0,0,1-5.1-1.8,8.608,8.608,0,0,1-2.6-4.8,11.086,11.086,0,0,0,5.3-3.5m10.1.6a7.782,7.782,0,0,1-4.5-5.6,6.667,6.667,0,0,1,4.5,5.6m-31.694-.6a9.774,9.774,0,0,0,2.4-5.7h.6a9.112,9.112,0,0,0,2.3,5.7,9.7,9.7,0,0,0,5.1,3.5,7.582,7.582,0,0,1-2.7,4.8,7.429,7.429,0,0,1-5,1.8,8.214,8.214,0,0,1-5.2-1.8,8.66,8.66,0,0,1-2.7-4.8,9.7,9.7,0,0,0,5.2-3.5m10.4.6a6.73,6.73,0,0,1-4.6-5.8,7.835,7.835,0,0,1,4.6,5.8m5.9.1a7,7,0,0,1,4.9-5.9,7.071,7.071,0,0,1-4.9,5.9m-21.3-.1a7.161,7.161,0,0,1,4.6-5.8A6.937,6.937,0,0,1,86.548,582.1Z" transform="translate(-72.95 -564.298)" fill="#fff"/>
    </g>
  </g>
</svg>
