<svg xmlns="http://www.w3.org/2000/svg" width="64" height="64" viewBox="0 0 64 64">
  <g id="pesapallo" transform="translate(0 -10.343)">
    <g id="그룹_3656" data-name="그룹 3656" transform="translate(0 10.343)">
      <g id="그룹_1631" data-name="그룹 1631">
        <path id="패스_872" data-name="패스 872" d="M-201.6,68.243h-64v64h64Z" transform="translate(265.6 -68.243)" fill="rgba(252,252,252,0)"/>
      </g>
    </g>
    <path id="패스_890" data-name="패스 890" d="M55.649,60.761l-4.822-3.5L40.011,45.555,61.489,25.711A7.13,7.13,0,1,0,51.411,15.638L31.9,36.779,12.367,15.635a7.13,7.13,0,0,0-10.279-.2,7.13,7.13,0,0,0,.206,10.282L23.8,45.559,12.981,57.283l-4.845,3.48a1.888,1.888,0,0,0-2.2,3.012l7.415,7.415a1.888,1.888,0,0,0,3.014-2.2l3.5-4.822L31.908,53.041l12.031,11.1,3.48,4.845a1.888,1.888,0,0,0,3.012,2.2l7.415-7.415a1.888,1.888,0,0,0-2.2-3.014ZM16.916,61.8l-3.2,4.413-2.8-2.8,4.425-3.178a1.866,1.866,0,0,0,.286-.253l3.536-3.832,1.831,1.831-3.831,3.539A1.9,1.9,0,0,0,16.916,61.8Zm6.853-6.382-2.043-2.043L54.186,18.2a3.354,3.354,0,1,1,4.74,4.737ZM3.777,20.541A3.354,3.354,0,0,1,9.593,18.2l19.74,21.365-2.972,3.22L4.856,22.938A3.325,3.325,0,0,1,3.777,20.541Zm33.46,27.577,4.839,5.237L40.032,55.4,34.691,50.47Zm7.4,8.013,3.539,3.831a1.885,1.885,0,0,0,.278.247l4.413,3.2-2.8,2.8L46.9,61.784a1.866,1.866,0,0,0-.253-.286L42.81,57.962Z" transform="translate(0)" fill="#fff"/>
    <path id="패스_891" data-name="패스 891" d="M239.29,131.265A7.707,7.707,0,1,0,247,138.972,7.715,7.715,0,0,0,239.29,131.265Zm0,11.637a3.93,3.93,0,1,1,3.93-3.93A3.934,3.934,0,0,1,239.29,142.9Z" transform="translate(-182.997 -93.182)" fill="#fff"/>
  </g>
</svg>
