<svg id="rugby" xmlns="http://www.w3.org/2000/svg" width="64" height="64" viewBox="0 0 64 64">
  <rect id="사각형_1041" data-name="사각형 1041" width="64" height="64" fill="#fff" opacity="0"/>
  <path id="rugby-ball_1_" data-name="rugby-ball (1)" d="M63.038,3.564a2.678,2.678,0,0,0-2.1-2.1A68.452,68.452,0,0,0,43.878.709c-12.721.979-23.37,5.423-30.795,12.847S1.218,31.634.239,44.357A68.528,68.528,0,0,0,.992,61.42a2.677,2.677,0,0,0,2.1,2.1,64.424,64.424,0,0,0,11.589.962c1.7,0,3.542-.059,5.469-.208,12.721-.979,23.37-5.423,30.795-12.847s11.866-18.077,12.845-30.8A68.528,68.528,0,0,0,63.038,3.564Zm-4.966,2.87a67.469,67.469,0,0,1,.3,14.552L43.532,6.14a67.8,67.8,0,0,1,14.539.293Zm-41.2,10.91C22.676,11.536,29.988,8.556,36.928,7.11l8.339,8.34-5.679,5.68-1.894-1.894-3.786,3.788L35.8,24.918,32.015,28.7l-3.786-3.787L24.442,28.7l3.786,3.787-3.786,3.787-1.893-1.894-3.787,3.788,1.893,1.894-5.679,5.681L6.626,37.394C8.073,30.462,11.057,23.158,16.87,17.343ZM5.96,58.549A67.469,67.469,0,0,1,5.657,44L20.5,58.841a67.875,67.875,0,0,1-14.54-.292Zm41.2-10.91C41.355,53.446,34.042,56.426,27.1,57.872l-8.34-8.339,5.679-5.68,1.894,1.894,3.786-3.787-1.893-1.894,3.786-3.787L35.8,40.066l3.786-3.787L35.8,32.492,39.587,28.7,41.481,30.6l3.787-3.787-1.893-1.894,5.679-5.681L57.4,27.589C55.957,34.521,52.973,41.825,47.16,47.64Zm0,0" transform="translate(-0.015 -0.485)" fill="#fff"/>
</svg>
