<svg xmlns="http://www.w3.org/2000/svg" width="64" height="64" viewBox="0 0 64 64">
  <g id="snooker" transform="translate(-10302 1070)">
    <path id="패스_3197" data-name="패스 3197" d="M0,0V64H64V0Z" transform="translate(10302 -1070)" opacity="0"/>
    <g id="패스_3198" data-name="패스 3198" transform="translate(10302 -1065)" fill="#fff">
      <path d="M 59.52091979980469 54.50024032592773 L 59.52077865600586 54.50024032592773 C 59.50447082519531 54.50024032592773 59.48802947998047 54.50012969970703 59.47169876098633 54.49993896484375 L 59.46870040893555 54.49990081787109 L 59.4656982421875 54.49990081787109 L 4.528799533843994 54.49990081787109 L 4.525769710540771 54.49990081787109 L 4.522739887237549 54.49993896484375 C 4.506409645080566 54.50012969970703 4.48997974395752 54.5002326965332 4.473679542541504 54.5002326965332 C 3.043869733810425 54.50028228759766 1.715429782867432 53.73445892333984 1.006789684295654 52.50163269042969 C 0.3216897249221802 51.32612991333008 0.3323297500610352 49.8751220703125 1.03305971622467 48.71226119995117 L 28.50128746032715 2.455484867095947 C 28.84146881103516 1.897333741188049 29.31842613220215 1.424037218093872 29.88075065612793 1.086650848388672 C 30.52005958557129 0.7029008269309998 31.25046920776367 0.5000908374786377 31.99308013916016 0.5000908374786377 C 33.43834686279297 0.5000908374786377 34.74664688110352 1.231067419052124 35.49336242675781 2.45574164390564 L 62.95978927612305 48.70949172973633 C 63.66257095336914 49.87578964233398 63.67325973510742 51.32670974731445 62.98933792114258 52.49880981445312 C 62.27909851074219 53.73442077636719 60.95069885253906 54.50024032592773 59.52091979980469 54.50024032592773 Z M 59.46165084838867 53.38130187988281 C 59.47715377807617 53.38154983520508 59.49272155761719 53.38167953491211 59.50817108154297 53.38167953491211 C 60.53234100341797 53.38172149658203 61.48756790161133 52.83394241333008 62.00107955932617 51.95211029052734 C 62.49058151245117 51.12409591674805 62.48352813720703 50.09677505493164 61.98133850097656 49.27298355102539 L 34.51472091674805 3.018010854721069 L 34.51200866699219 3.013450860977173 L 34.50920104980469 3.008940696716309 C 34.26794052124023 2.621630907058716 33.93540954589844 2.291400909423828 33.54755783081055 2.053960800170898 C 33.08129119873047 1.767870783805847 32.5460205078125 1.61651086807251 32.00003051757812 1.61651086807251 C 30.96814918518066 1.61651086807251 30.0283203125 2.137160778045654 29.48600006103516 3.009260892868042 L 29.48329925537109 3.01361083984375 L 29.48068046569824 3.018010854721069 L 2.014482736587524 49.27227401733398 C 1.510039567947388 50.09625244140625 1.502577185630798 51.12301254272461 1.995119214057922 51.9534912109375 C 2.507928609848022 52.83448028564453 3.462297677993774 53.38167953491211 4.486299514770508 53.38167953491211 C 4.501865863800049 53.38167953491211 4.517390251159668 53.38155746459961 4.532971382141113 53.38130187988281 L 59.46165084838867 53.38130187988281 Z M 49.97520065307617 51.19869995117188 C 46.94332122802734 51.19869995117188 44.47669982910156 48.73208236694336 44.47669982910156 45.70019912719727 C 44.47669982910156 42.66781997680664 46.94332122802734 40.20080184936523 49.97520065307617 40.20080184936523 C 53.00907135009766 40.20080184936523 55.47729873657227 42.66781997680664 55.47729873657227 45.70019912719727 C 55.47729873657227 48.73208236694336 53.00907135009766 51.19869995117188 49.97520065307617 51.19869995117188 Z M 37.97549819946289 51.19869995117188 C 34.94361877441406 51.19869995117188 32.47700119018555 48.73208236694336 32.47700119018555 45.70019912719727 C 32.47700119018555 42.66781997680664 34.94361877441406 40.20080184936523 37.97549819946289 40.20080184936523 C 41.00886917114258 40.20080184936523 43.47669982910156 42.66781997680664 43.47669982910156 45.70019912719727 C 43.47669982910156 48.73208236694336 41.00886917114258 51.19869995117188 37.97549819946289 51.19869995117188 Z M 25.97760009765625 51.19869995117188 C 22.94422912597656 51.19869995117188 20.47640037536621 48.73208236694336 20.47640037536621 45.70019912719727 C 20.47640037536621 42.66781997680664 22.94422912597656 40.20080184936523 25.97760009765625 40.20080184936523 C 29.00997924804688 40.20080184936523 31.47699928283691 42.66781997680664 31.47699928283691 45.70019912719727 C 31.47699928283691 48.73208236694336 29.00997924804688 51.19869995117188 25.97760009765625 51.19869995117188 Z M 13.9778995513916 51.19869995117188 C 10.94452953338623 51.19869995117188 8.476699829101562 48.73208236694336 8.476699829101562 45.70019912719727 C 8.476699829101562 42.66781997680664 10.94452953338623 40.20080184936523 13.9778995513916 40.20080184936523 C 17.00977897644043 40.20080184936523 19.47640037536621 42.66781997680664 19.47640037536621 45.70019912719727 C 19.47640037536621 48.73208236694336 17.00977897644043 51.19869995117188 13.9778995513916 51.19869995117188 Z M 43.97669982910156 40.80100250244141 C 40.94332885742188 40.80100250244141 38.47549819946289 38.33317184448242 38.47549819946289 35.29980087280273 C 38.47549819946289 32.26742172241211 40.94332885742188 29.80040168762207 43.97669982910156 29.80040168762207 C 47.00857925415039 29.80040168762207 49.47520065307617 32.26742172241211 49.47520065307617 35.29980087280273 C 49.47520065307617 38.33317184448242 47.00857925415039 40.80100250244141 43.97669982910156 40.80100250244141 Z M 31.97699928283691 40.80100250244141 C 28.94462013244629 40.80100250244141 26.47760009765625 38.33317184448242 26.47760009765625 35.29980087280273 C 26.47760009765625 32.26742172241211 28.94462013244629 29.80040168762207 31.97699928283691 29.80040168762207 C 35.00888061523438 29.80040168762207 37.47549819946289 32.26742172241211 37.47549819946289 35.29980087280273 C 37.47549819946289 38.33317184448242 35.00888061523438 40.80100250244141 31.97699928283691 40.80100250244141 Z M 19.97640037536621 40.80100250244141 C 16.94451904296875 40.80100250244141 14.4778995513916 38.33317184448242 14.4778995513916 35.29980087280273 C 14.4778995513916 32.26742172241211 16.94451904296875 29.80040168762207 19.97640037536621 29.80040168762207 C 23.00976943969727 29.80040168762207 25.47760009765625 32.26742172241211 25.47760009765625 35.29980087280273 C 25.47760009765625 38.33317184448242 23.00976943969727 40.80100250244141 19.97640037536621 40.80100250244141 Z M 37.97549819946289 30.40060043334961 C 34.94361877441406 30.40060043334961 32.47700119018555 27.93277168273926 32.47700119018555 24.89940071105957 C 32.47700119018555 21.86752128601074 34.94361877441406 19.40089988708496 37.97549819946289 19.40089988708496 C 41.00886917114258 19.40089988708496 43.47669982910156 21.86752128601074 43.47669982910156 24.89940071105957 C 43.47669982910156 27.93277168273926 41.00886917114258 30.40060043334961 37.97549819946289 30.40060043334961 Z M 25.97760009765625 30.40060043334961 C 22.94422912597656 30.40060043334961 20.47640037536621 27.93277168273926 20.47640037536621 24.89940071105957 C 20.47640037536621 21.86752128601074 22.94422912597656 19.40089988708496 25.97760009765625 19.40089988708496 C 29.00997924804688 19.40089988708496 31.47699928283691 21.86752128601074 31.47699928283691 24.89940071105957 C 31.47699928283691 27.93277168273926 29.00997924804688 30.40060043334961 25.97760009765625 30.40060043334961 Z M 31.97699928283691 20.00020027160645 C 28.94462013244629 20.00020027160645 26.47760009765625 17.53237152099609 26.47760009765625 14.49900054931641 C 26.47760009765625 11.46712112426758 28.94462013244629 9.000500679016113 31.97699928283691 9.000500679016113 C 35.00888061523438 9.000500679016113 37.47549819946289 11.46712112426758 37.47549819946289 14.49900054931641 C 37.47549819946289 17.53237152099609 35.00888061523438 20.00020027160645 31.97699928283691 20.00020027160645 Z" stroke="none"/>
      <path d="M 59.52091979980469 54.00024032592773 C 60.77225112915039 54.00024032592773 61.93453979492188 53.33053207397461 62.55421829223633 52.25246047973633 L 62.55583953857422 52.24962997436523 L 62.55747985839844 52.24682235717773 C 63.14923095703125 51.23269271850586 63.13991928100586 49.97721099853516 62.53318786621094 48.97032928466797 L 62.53152084350586 48.96755981445312 L 62.52986907958984 48.96478271484375 L 35.06493377685547 2.713541269302368 C 34.40946960449219 1.640498518943787 33.26152420043945 1.000090837478638 31.99308013916016 1.000090837478638 C 31.34108924865723 1.000090837478638 30.69966888427734 1.178250789642334 30.13800048828125 1.515390872955322 C 29.64546585083008 1.810906887054443 29.22765731811523 2.225199937820435 28.92949867248535 2.713655233383179 L 1.464629769325256 48.96478271484375 L 1.462979793548584 48.96755981445312 L 1.461309790611267 48.97032928466797 C 0.8549197316169739 49.97663116455078 0.8457097411155701 51.23226928710938 1.437269687652588 52.24726104736328 L 1.438779711723328 52.24985122680664 L 1.440279722213745 52.25244903564453 C 2.05998969078064 53.33057022094727 3.222309827804565 54.00028228759766 4.473699569702148 54.0002326965332 C 4.488009929656982 54.0002326965332 4.502459526062012 54.00014114379883 4.516799926757812 53.99996948242188 L 4.522799968719482 53.99990081787109 L 4.528799533843994 53.99990081787109 L 59.4656982421875 53.99990081787109 L 59.47169876098633 53.99990081787109 L 59.47769927978516 53.99996948242188 C 59.49203872680664 54.00014114379883 59.5064697265625 54.00024032592773 59.52077865600586 54.00024032592773 L 59.52091979980469 54.00024032592773 M 59.45775604248047 53.88130187988281 L 4.537064075469971 53.88130187988281 C 4.520121574401855 53.88155364990234 4.503231525421143 53.88167953491211 4.486299514770508 53.88167953491211 C 3.285827398300171 53.88167953491211 2.166700124740601 53.24027633666992 1.564350843429565 52.20734024047852 C 0.978261411190033 51.21822738647461 0.98666912317276 49.99618530273438 1.586007833480835 49.01456832885742 L 29.0507698059082 2.762720823287964 L 29.05599975585938 2.753920793533325 L 29.06139945983887 2.745220899581909 C 29.69560050964355 1.725370764732361 30.79414939880371 1.11651086807251 32.00003051757812 1.11651086807251 C 32.63837051391602 1.11651086807251 33.26406097412109 1.293400764465332 33.80862045288086 1.627530813217163 C 34.26242828369141 1.905350804328918 34.65143966674805 2.29162073135376 34.93360137939453 2.744580745697021 L 34.939208984375 2.753590822219849 L 34.94462966918945 2.762720823287964 L 62.40961456298828 49.01494598388672 C 63.00601196289062 49.99503326416016 63.01477813720703 51.21625137329102 62.43239212036133 52.20503616333008 C 61.8294677734375 53.23930740356445 60.7091178894043 53.88167953491211 59.50820159912109 53.88167953491211 C 59.4914436340332 53.88167953491211 59.47457885742188 53.88155364990234 59.45775604248047 53.88130187988281 M 49.97520065307617 50.69869995117188 C 52.73336791992188 50.69869995117188 54.97729873657227 48.45637893676758 54.97729873657227 45.70019912719727 C 54.97729873657227 42.94351959228516 52.73336791992188 40.70080184936523 49.97520065307617 40.70080184936523 C 47.21902084350586 40.70080184936523 44.97669982910156 42.94351959228516 44.97669982910156 45.70019912719727 C 44.97669982910156 48.45637893676758 47.21902084350586 50.69869995117188 49.97520065307617 50.69869995117188 M 37.97549819946289 50.69869995117188 C 40.73316955566406 50.69869995117188 42.97669982910156 48.45637893676758 42.97669982910156 45.70019912719727 C 42.97669982910156 42.94351959228516 40.73316955566406 40.70080184936523 37.97549819946289 40.70080184936523 C 35.21931838989258 40.70080184936523 32.97700119018555 42.94351959228516 32.97700119018555 45.70019912719727 C 32.97700119018555 48.45637893676758 35.21931838989258 50.69869995117188 37.97549819946289 50.69869995117188 M 25.97760009765625 50.69869995117188 C 28.73427963256836 50.69869995117188 30.97699928283691 48.45637893676758 30.97699928283691 45.70019912719727 C 30.97699928283691 42.94351959228516 28.73427963256836 40.70080184936523 25.97760009765625 40.70080184936523 C 23.21993064880371 40.70080184936523 20.97640037536621 42.94351959228516 20.97640037536621 45.70019912719727 C 20.97640037536621 48.45637893676758 23.21993064880371 50.69869995117188 25.97760009765625 50.69869995117188 M 13.9778995513916 50.69869995117188 C 16.73407936096191 50.69869995117188 18.97640037536621 48.45637893676758 18.97640037536621 45.70019912719727 C 18.97640037536621 42.94351959228516 16.73407936096191 40.70080184936523 13.9778995513916 40.70080184936523 C 11.22023010253906 40.70080184936523 8.976699829101562 42.94351959228516 8.976699829101562 45.70019912719727 C 8.976699829101562 48.45637893676758 11.22023010253906 50.69869995117188 13.9778995513916 50.69869995117188 M 43.97669982910156 40.30100250244141 C 46.73287963867188 40.30100250244141 48.97520065307617 38.05747222900391 48.97520065307617 35.29980087280273 C 48.97520065307617 32.54312133789062 46.73287963867188 30.30040168762207 43.97669982910156 30.30040168762207 C 41.21902847290039 30.30040168762207 38.97549819946289 32.54312133789062 38.97549819946289 35.29980087280273 C 38.97549819946289 38.05747222900391 41.21902847290039 40.30100250244141 43.97669982910156 40.30100250244141 M 31.97699928283691 40.30100250244141 C 34.73318099975586 40.30100250244141 36.97549819946289 38.05747222900391 36.97549819946289 35.29980087280273 C 36.97549819946289 32.54312133789062 34.73318099975586 30.30040168762207 31.97699928283691 30.30040168762207 C 29.2203197479248 30.30040168762207 26.97760009765625 32.54312133789062 26.97760009765625 35.29980087280273 C 26.97760009765625 38.05747222900391 29.2203197479248 40.30100250244141 31.97699928283691 40.30100250244141 M 19.97640037536621 40.30100250244141 C 22.73406982421875 40.30100250244141 24.97760009765625 38.05747222900391 24.97760009765625 35.29980087280273 C 24.97760009765625 32.54312133789062 22.73406982421875 30.30040168762207 19.97640037536621 30.30040168762207 C 17.2202205657959 30.30040168762207 14.9778995513916 32.54312133789062 14.9778995513916 35.29980087280273 C 14.9778995513916 38.05747222900391 17.2202205657959 40.30100250244141 19.97640037536621 40.30100250244141 M 37.97549819946289 29.90060043334961 C 40.73316955566406 29.90060043334961 42.97669982910156 27.65707015991211 42.97669982910156 24.89940071105957 C 42.97669982910156 22.14322090148926 40.73316955566406 19.90089988708496 37.97549819946289 19.90089988708496 C 35.21931838989258 19.90089988708496 32.97700119018555 22.14322090148926 32.97700119018555 24.89940071105957 C 32.97700119018555 27.65707015991211 35.21931838989258 29.90060043334961 37.97549819946289 29.90060043334961 M 25.97760009765625 29.90060043334961 C 28.73427963256836 29.90060043334961 30.97699928283691 27.65707015991211 30.97699928283691 24.89940071105957 C 30.97699928283691 22.14322090148926 28.73427963256836 19.90089988708496 25.97760009765625 19.90089988708496 C 23.21993064880371 19.90089988708496 20.97640037536621 22.14322090148926 20.97640037536621 24.89940071105957 C 20.97640037536621 27.65707015991211 23.21993064880371 29.90060043334961 25.97760009765625 29.90060043334961 M 31.97699928283691 19.50020027160645 C 34.73318099975586 19.50020027160645 36.97549819946289 17.25666999816895 36.97549819946289 14.49900054931641 C 36.97549819946289 11.74282073974609 34.73318099975586 9.500500679016113 31.97699928283691 9.500500679016113 C 29.2203197479248 9.500500679016113 26.97760009765625 11.74282073974609 26.97760009765625 14.49900054931641 C 26.97760009765625 17.25666999816895 29.2203197479248 19.50020027160645 31.97699928283691 19.50020027160645 M 59.52091979980469 55.00024032592773 C 59.52082061767578 55.00024032592773 59.52087783813477 55.00024032592773 59.52077865600586 55.00024032592773 C 59.50247955322266 55.00024032592773 59.48402786254883 55.0001220703125 59.4656982421875 54.99990081787109 L 4.528799533843994 54.99990081787109 C 4.510464668273926 55.0001220703125 4.492000579833984 55.0002326965332 4.473696231842041 55.00023651123047 C 2.862142562866211 55.00028610229492 1.373313188552856 54.14259338378906 0.573299765586853 52.75080108642578 C -0.2025002688169479 51.41970062255859 -0.1908002644777298 49.77450180053711 0.604799747467041 48.45420074462891 L 28.07279968261719 2.197800874710083 C 28.45619964599609 1.567800760269165 28.98900032043457 1.03860080242157 29.62349891662598 0.6579008102416992 C 30.36587333679199 0.2122920453548431 31.18466186523438 8.643981709610671e-05 31.99307632446289 8.643981709610671e-05 C 33.54563903808594 8.643981709610671e-05 35.05998992919922 0.7827269434928894 35.92169952392578 2.197800874710083 L 63.38969802856445 48.45420074462891 C 64.185302734375 49.77450180053711 64.19789886474609 51.41970062255859 63.42119979858398 52.75080108642578 C 62.62123870849609 54.14250564575195 61.13150787353516 55.00024032592773 59.52091979980469 55.00024032592773 Z M 4.528799533843994 52.88130187988281 L 59.4656982421875 52.88130187988281 C 59.4798469543457 52.88154983520508 59.49408340454102 52.88167572021484 59.50819778442383 52.88167572021484 C 60.35695266723633 52.8817138671875 61.14318084716797 52.43173980712891 61.56900024414062 51.70050048828125 C 61.96590042114258 51.02910232543945 61.95959854125977 50.19570159912109 61.55279922485352 49.53060150146484 L 34.08480072021484 3.273300886154175 C 33.88409805297852 2.951100826263428 33.61140060424805 2.679300785064697 33.2864990234375 2.480400800704956 C 32.88484191894531 2.233950614929199 32.43970108032227 2.116508483886719 32.00003433227539 2.116508483886719 C 31.17769622802734 2.116508483886719 30.37448120117188 2.527336120605469 29.91060066223145 3.273300886154175 L 2.442599773406982 49.53060150146484 C 2.033999681472778 50.19570159912109 2.027699708938599 51.03000259399414 2.426399707794189 51.70050048828125 C 2.851306915283203 52.43169403076172 3.637605667114258 52.88167572021484 4.486303329467773 52.88167572021484 C 4.500470161437988 52.88167572021484 4.514599323272705 52.88155364990234 4.528799533843994 52.88130187988281 Z M 49.97520065307617 51.69869995117188 C 46.66230010986328 51.69869995117188 43.97669982910156 49.01309967041016 43.97669982910156 45.70019912719727 C 43.97669982910156 42.38640213012695 46.66230010986328 39.70080184936523 49.97520065307617 39.70080184936523 C 53.28900146484375 39.70080184936523 55.97729873657227 42.38640213012695 55.97729873657227 45.70019912719727 C 55.97729873657227 49.01309967041016 53.28900146484375 51.69869995117188 49.97520065307617 51.69869995117188 Z M 37.97549819946289 51.69869995117188 C 34.66170120239258 51.69869995117188 31.97699928283691 49.01309967041016 31.97699928283691 45.70019912719727 C 31.97699928283691 42.38640213012695 34.66170120239258 39.70080184936523 37.97549819946289 39.70080184936523 C 41.28929901123047 39.70080184936523 43.97669982910156 42.38640213012695 43.97669982910156 45.70019912719727 C 43.97669982910156 49.01309967041016 41.28929901123047 51.69869995117188 37.97549819946289 51.69869995117188 Z M 25.97760009765625 51.69869995117188 C 22.66200065612793 51.69869995117188 19.97640037536621 49.01309967041016 19.97640037536621 45.70019912719727 C 19.97640037536621 42.38640213012695 22.66200065612793 39.70080184936523 25.97760009765625 39.70080184936523 C 29.2913990020752 39.70080184936523 31.97699928283691 42.38640213012695 31.97699928283691 45.70019912719727 C 31.97699928283691 49.01309967041016 29.2913990020752 51.69869995117188 25.97760009765625 51.69869995117188 Z M 13.9778995513916 51.69869995117188 C 10.66409969329834 51.69869995117188 7.976699829101562 49.01309967041016 7.976699829101562 45.70019912719727 C 7.976699829101562 42.38640213012695 10.66409969329834 39.70080184936523 13.9778995513916 39.70080184936523 C 17.29080009460449 39.70080184936523 19.97640037536621 42.38640213012695 19.97640037536621 45.70019912719727 C 19.97640037536621 49.01309967041016 17.29080009460449 51.69869995117188 13.9778995513916 51.69869995117188 Z M 43.97669982910156 41.30100250244141 C 40.66379928588867 41.30100250244141 37.97549819946289 38.61270141601562 37.97549819946289 35.29980087280273 C 37.97549819946289 31.98600006103516 40.66379928588867 29.30040168762207 43.97669982910156 29.30040168762207 C 47.28960037231445 29.30040168762207 49.97520065307617 31.98600006103516 49.97520065307617 35.29980087280273 C 49.97520065307617 38.61270141601562 47.28960037231445 41.30100250244141 43.97669982910156 41.30100250244141 Z M 31.97699928283691 41.30100250244141 C 28.66320037841797 41.30100250244141 25.97760009765625 38.61270141601562 25.97760009765625 35.29980087280273 C 25.97760009765625 31.98600006103516 28.66320037841797 29.30040168762207 31.97699928283691 29.30040168762207 C 35.28989791870117 29.30040168762207 37.97549819946289 31.98600006103516 37.97549819946289 35.29980087280273 C 37.97549819946289 38.61270141601562 35.28989791870117 41.30100250244141 31.97699928283691 41.30100250244141 Z M 19.97640037536621 41.30100250244141 C 16.66349983215332 41.30100250244141 13.9778995513916 38.61270141601562 13.9778995513916 35.29980087280273 C 13.9778995513916 31.98600006103516 16.66349983215332 29.30040168762207 19.97640037536621 29.30040168762207 C 23.29019927978516 29.30040168762207 25.97760009765625 31.98600006103516 25.97760009765625 35.29980087280273 C 25.97760009765625 38.61270141601562 23.29019927978516 41.30100250244141 19.97640037536621 41.30100250244141 Z M 37.97549819946289 30.90060043334961 C 34.66170120239258 30.90060043334961 31.97699928283691 28.21230125427246 31.97699928283691 24.89940071105957 C 31.97699928283691 21.58650016784668 34.66170120239258 18.90089988708496 37.97549819946289 18.90089988708496 C 41.28929901123047 18.90089988708496 43.97669982910156 21.58650016784668 43.97669982910156 24.89940071105957 C 43.97669982910156 28.21230125427246 41.28929901123047 30.90060043334961 37.97549819946289 30.90060043334961 Z M 25.97760009765625 30.90060043334961 C 22.66200065612793 30.90060043334961 19.97640037536621 28.21230125427246 19.97640037536621 24.89940071105957 C 19.97640037536621 21.58650016784668 22.66200065612793 18.90089988708496 25.97760009765625 18.90089988708496 C 29.2913990020752 18.90089988708496 31.97699928283691 21.58650016784668 31.97699928283691 24.89940071105957 C 31.97699928283691 28.21230125427246 29.2913990020752 30.90060043334961 25.97760009765625 30.90060043334961 Z M 31.97699928283691 20.50020027160645 C 28.66320037841797 20.50020027160645 25.97760009765625 17.81459999084473 25.97760009765625 14.49900054931641 C 25.97760009765625 11.18610095977783 28.66320037841797 8.500500679016113 31.97699928283691 8.500500679016113 C 35.28989791870117 8.500500679016113 37.97549819946289 11.18610095977783 37.97549819946289 14.49900054931641 C 37.97549819946289 17.81459999084473 35.28989791870117 20.50020027160645 31.97699928283691 20.50020027160645 Z" stroke="none" fill="#fff"/>
    </g>
  </g>
</svg>
