<svg xmlns="http://www.w3.org/2000/svg" width="64" height="64" viewBox="0 0 64 64">
  <g id="soccer" transform="translate(0 0.002)">
    <path id="패스_752" data-name="패스 752" d="M0,0V64H64V0Z" transform="translate(0 0.002)" fill="rgba(255,255,255,0)"/>
    <path id="패스_753" data-name="패스 753" d="M234.1,383.151a31.921,31.921,0,0,0-6.1,10.9,31.437,31.437,0,0,0-1.5,12.4,32.878,32.878,0,0,0,3.3,12,31.593,31.593,0,0,0,7.7,9.8,31.942,31.942,0,1,0-3.4-45.1m17.3-5.6a39.525,39.525,0,0,1,6.6-2.5,29.594,29.594,0,0,1,10.6,2.4l2.2,4.6a29.156,29.156,0,0,1,1.1,4.5l-8.4,4.5q-6.8-2.1-7.1-2.2a44.844,44.844,0,0,0-6.6-.9l-.3-.1-2.1-6.4a14.892,14.892,0,0,1,4-3.9m-.1-1.7-.7.4a16.5,16.5,0,0,0-4.4,4.2,12.747,12.747,0,0,0-5.4,1.2l-2.2,1.1a28.609,28.609,0,0,1,12.7-6.9m-6,17a36.6,36.6,0,0,1,3.6-3.5q-.136.005-.3,0l.6-.2a2.589,2.589,0,0,1-.3.2,44.215,44.215,0,0,1,7.1,1,47.771,47.771,0,0,1,6.9,2.1l3.2,11-9.5,10.4-5.6-.9a43.756,43.756,0,0,1-5.4-1.6,34.948,34.948,0,0,1-2.6-7,65.682,65.682,0,0,1-1.3-7.3,54.284,54.284,0,0,1,3.6-4.2m-11.7-3.1a33.479,33.479,0,0,0-.7,4.2,28.657,28.657,0,0,0-2.9,4.3,26.333,26.333,0,0,1,4.3-10.3l-.7,1.8m-4.2,14,1.3-3.7a21.978,21.978,0,0,1,3-4.5l6.5,2.3a67.3,67.3,0,0,0,1.3,6.8,41.714,41.714,0,0,0,2.6,7.1l-4,7.7a27.834,27.834,0,0,1-4.3-1.2,15.69,15.69,0,0,1-3.4-1.3,29.591,29.591,0,0,1-2.9-10.8l-.1-2.4m4.3,15.4,1.6.6a24.514,24.514,0,0,0,5.1,1.2,24.164,24.164,0,0,0,3.2,3.8,19.426,19.426,0,0,0,4.6,3.3l-.1.3v2.7a27.954,27.954,0,0,1-14.4-11.9m52.1-24.6-4.7.2a35.543,35.543,0,0,0-3.6-4.7,36.821,36.821,0,0,0-4.1-3.4,21.1,21.1,0,0,0-1.2-5.1l-1.7-3.8h.1a26.9,26.9,0,0,1,6.7,4.3,28.492,28.492,0,0,1,8.5,12.5m-7.1,17.1a48.884,48.884,0,0,1,1,6.8,28.091,28.091,0,0,1-3.5,4.3,24.93,24.93,0,0,1-4.4,3.6,14.887,14.887,0,0,1-6.4-.2,17.2,17.2,0,0,1-5.6-1.8l-2.1-9.5,9.6-10.5,9.5,1.8a37.1,37.1,0,0,1,1.9,5.5m8.6-9.8a27.91,27.91,0,0,1-3.3,15.6h-2.8a59.046,59.046,0,0,0-1-6.1,41.612,41.612,0,0,0-2.1-5.8,33.968,33.968,0,0,0,2-4.1,48.113,48.113,0,0,0,1.3-5.2l4.8-.2a25.651,25.651,0,0,1,1.1,5.8m-16.4,26.2.2,2a28.675,28.675,0,0,1-21.5,1.6v-3.3a16.077,16.077,0,0,0,4.6-.9q1.5-.5,4.8-1.8a22.586,22.586,0,0,0,6.1,2,27.757,27.757,0,0,0,5.4.4Z" transform="translate(-226.4 -372.05)" fill="#fff"/>
  </g>
</svg>
