<svg id="soccor_mythtic" xmlns="http://www.w3.org/2000/svg" width="64" height="64" viewBox="0 0 64 64">
  <g id="그룹_1586" data-name="그룹 1586">
    <g id="그룹_1585" data-name="그룹 1585">
      <path id="패스_854" data-name="패스 854" d="M0,0V64H64V0Z" fill="rgba(255,255,255,0)"/>
    </g>
  </g>
  <g id="그룹_1588" data-name="그룹 1588">
    <g id="그룹_1587" data-name="그룹 1587">
      <path id="패스_855" data-name="패스 855" d="M611.7,630.45v28.8q0,17.6,17.6,17.6h28.9q17.5,0,17.5-17.6v-28.8q0-17.6-17.5-17.6H629.3q-17.6,0-17.6,17.6m2.2,28.8v-28.8q0-15.5,15.4-15.5h28.9q15.6,0,15.6,15.5v28.8q0,15.5-15.6,15.5H629.3q-15.4,0-15.4-15.5m59.1-14.9v-.5l-8.3-5.7-9.1,4.4-3.8,10.7,6,8.4h9.4a27.765,27.765,0,0,0,5.8-17.3m-38.3,27.8a36.305,36.305,0,0,0,9,1.5,28.91,28.91,0,0,0,9.2-1.5l2.8-9.1-5.8-8.2H637.8l-5.9,8.2,2.8,9.1m-20.2-28.3v.5a26.011,26.011,0,0,0,5.8,17.3h9.6l5.7-8.4-3.6-10.7-9.1-4.4-8.4,5.7m27.9-21.5-7.7-5.9a27.225,27.225,0,0,0-14.4,10.3l2.9,8.6,9.6,4.9,9.6-7.2v-10.7m10.4-5.9-7.7,5.9v10.8l9.4,7.1,9.7-4.9,3-8.6A26.727,26.727,0,0,0,652.8,616.45Z" transform="translate(-611.7 -612.85)" fill="#fff"/>
    </g>
  </g>
</svg>
