<svg xmlns="http://www.w3.org/2000/svg" width="64" height="64" viewBox="0 0 64 64">
  <g id="speed_skating" data-name="speed skating" transform="translate(-256 -199)">
    <rect id="사각형_1033" data-name="사각형 1033" width="64" height="64" transform="translate(256 199)" fill="#fff" opacity="0"/>
    <path id="합치기_195" data-name="합치기 195" d="M18.467,51.654a1.032,1.032,0,0,1-1.031-1.031,1.107,1.107,0,0,1,1.031-1.03H29.7l.722-1.34a1.082,1.082,0,0,1,.928-.516.924.924,0,0,1,.515.1,1.141,1.141,0,0,1,.413,1.443l-1.031,1.856a1.23,1.23,0,0,1-.927.515Zm4.606-3.722a2.528,2.528,0,0,1-.882-3.4l7.178-12.4-4.03-4.093v7.493a2.458,2.458,0,0,1-2.455,2.455H7.9a2.456,2.456,0,0,1,0-4.911l12.719.126V22.769a2.512,2.512,0,0,1,.019-1.312A3.953,3.953,0,0,1,24.528,18H35.4L21.618,4.172a2.47,2.47,0,0,1,0-3.463,2.469,2.469,0,0,1,3.462,0L42.1,18.14q.073.073.141.151L51.6,28.286h9.949A2.5,2.5,0,0,1,64,30.742,2.458,2.458,0,0,1,61.545,33.2H50.589a2.326,2.326,0,0,1-1.7-.692L42.409,26H30.258l3.9,3.923a2.475,2.475,0,0,1,.441,3.022l-8.122,14.1a2.554,2.554,0,0,1-2.168,1.213A2.447,2.447,0,0,1,23.073,47.931ZM6.439,43.519.157,33.466a1.034,1.034,0,0,1,.328-1.42,1.108,1.108,0,0,1,1.42.328l3.961,6.338L7.86,41.9l1.518-.1a1.082,1.082,0,0,1,.929.514.928.928,0,0,1,.185.491,1.141,1.141,0,0,1-1.005,1.114l-2.12.109A1.23,1.23,0,0,1,6.439,43.519ZM44.481,17.834a4.911,4.911,0,1,1,4.911,4.911A4.918,4.918,0,0,1,44.481,17.834Z" transform="translate(256 205)" fill="#fff"/>
  </g>
</svg>
