<svg id="surfing" xmlns="http://www.w3.org/2000/svg" width="64" height="64" viewBox="0 0 64 64">
  <g id="그룹_1552" data-name="그룹 1552">
    <g id="그룹_1551" data-name="그룹 1551">
      <path id="패스_840" data-name="패스 840" d="M0,0V64H64V0Z" fill="rgba(255,255,255,0)"/>
    </g>
  </g>
  <g id="그룹_1554" data-name="그룹 1554">
    <g id="그룹_1553" data-name="그룹 1553">
      <path id="패스_841" data-name="패스 841" d="M180.15,673.6a12.056,12.056,0,0,0,7.8.2,19.032,19.032,0,0,0,9.3-4.7q5.3,5.1,14.9,5.4l.1-4.3a20.764,20.764,0,0,1-6.6-1.1,10.978,10.978,0,0,1-6.3-4.4l-1.7-3-1.9,2.8a12.978,12.978,0,0,1-7.5,4.9,10.139,10.139,0,0,1-6.3.4l-1.8,3.8m9.9-15.9.9,4.2a25.6,25.6,0,0,0,11.2-5.7,23.833,23.833,0,0,0,9.3,5.8l1.5-4q-6.8-2.4-8.9-6.1l-1.5-2.5-2,2.2a19.352,19.352,0,0,1-10.5,6.1m-36.6-2.6a38.979,38.979,0,0,0-4.5,12.5l7.6.1.1,7.5a36.434,36.434,0,0,0,12.5-4.4,110.986,110.986,0,0,0,23.2-18.8q8.5-8.3,14.8-24.9l4.6-14.6a94.078,94.078,0,0,0-14.6,4.5q-16.3,6.2-25,14.8a107.561,107.561,0,0,0-18.7,23.3m20.6-8.1-5.4-5.4q4-4.4,6.5-6.8,8.6-8.6,26-14.9L174.05,647m-11.4,1.8,3.2-4,13.5,13.5a49.066,49.066,0,0,1-4.1,3.2l-12.6-12.7m-4.6,14.3.1.2-3.7.2a49.176,49.176,0,0,1,5.7-11.2l4.3,4.3-6.4,6.5m9.4-3.4,4.4,4.3a42.364,42.364,0,0,1-11.2,5.8l.2-3.9.3.3,6.3-6.5m15.1-4.2-5.5-5.4,27-27.2q-5.7,17.2-14.7,26.2Q185.45,653,182.55,655.5Z" transform="translate(-148.95 -612.5)" fill="#fff"/>
    </g>
  </g>
</svg>
