<svg xmlns="http://www.w3.org/2000/svg" width="64" height="64.005" viewBox="0 0 64 64.005">
  <g id="table_tennis" transform="translate(0 0.002)">
    <path id="패스_820" data-name="패스 820" d="M0,0V64H64V0Z" transform="translate(0 0.002)" fill="rgba(255,255,255,0)"/>
    <g id="그룹_1504" data-name="그룹 1504" transform="translate(0.027 -0.002)">
      <g id="그룹_1503" data-name="그룹 1503">
        <path id="패스_821" data-name="패스 821" d="M741.7,579.342a31.1,31.1,0,0,0-7.788-14.294,31.741,31.741,0,0,0-10.184-6.8,26.535,26.535,0,0,0-11.083-2.5,22.364,22.364,0,0,0-9.485,1.9,22.869,22.869,0,0,0-7.988,5.5,22.6,22.6,0,0,0-5.591,8.8,24.942,24.942,0,0,0-1.4,10.4,29.892,29.892,0,0,0,8.886,20.091,30.314,30.314,0,0,0,21.267,9.3,21.78,21.78,0,0,0,8.587-1.6l1.7-.6,2.7.2a18.062,18.062,0,0,1,4.793,1.2,5.4,5.4,0,0,1,3.594,3.6v-.1l3.794,4a4.279,4.279,0,0,0,3.594,1.3,4.739,4.739,0,0,0,3.495-1.4,4.91,4.91,0,0,0,1.5-3.6,4.589,4.589,0,0,0-1.5-3.5l-3.894-4a12.263,12.263,0,0,1-4.892-4.5,19.972,19.972,0,0,1-.7-5.4l.4-2.7a27.168,27.168,0,0,0,.2-15.293M698.47,566.348a17.727,17.727,0,0,1,14.178-5.9,22.774,22.774,0,0,1,17.672,7.9,24.493,24.493,0,0,1,7.588,15.593l-22.764,22.79a22.049,22.049,0,0,1-14.677-7.5,25.4,25.4,0,0,1-7.688-16.893,19.435,19.435,0,0,1,5.691-15.993m8.187,12.594a6.182,6.182,0,0,0-4.793,2.1,6.62,6.62,0,0,0-2.1,5,5.544,5.544,0,0,0,2.1,4.9,6.058,6.058,0,0,0,4.793,2.2,6.163,6.163,0,0,0,4.892-2.2,5.545,5.545,0,0,0,2.1-4.9,7.393,7.393,0,0,0-2.1-5A5.533,5.533,0,0,0,706.657,578.942Z" transform="translate(-688.114 -555.748)" fill="#fff"/>
      </g>
    </g>
  </g>
</svg>
