<svg xmlns="http://www.w3.org/2000/svg" width="64" height="64" viewBox="0 0 64 64">
  <g id="waterpolo" transform="translate(0.006 0.001)">
    <g id="그룹_1596" data-name="그룹 1596" transform="translate(0.006 0.001)">
      <g id="그룹_1595" data-name="그룹 1595">
        <path id="패스_858" data-name="패스 858" d="M0,0V64H63.987V0Z" fill="rgba(255,255,255,0)"/>
      </g>
    </g>
    <g id="그룹_1598" data-name="그룹 1598" transform="translate(-0.006 -0.001)">
      <g id="그룹_1597" data-name="그룹 1597">
        <path id="패스_859" data-name="패스 859" d="M309.705,695.55v.5a27.7,27.7,0,0,0,2.6,11.6,20.581,20.581,0,0,0-7.1,4.1,2.532,2.532,0,0,0-.9,1.7,2.292,2.292,0,0,0,.6,1.8,2.716,2.716,0,0,0,1.7.8,2.328,2.328,0,0,0,1.7-.5q7-5.9,18.1-4.1a39.425,39.425,0,0,1,10.2,3.2,41.771,41.771,0,0,0,19.5,5.8q7.5,0,11.4-3.5a2.816,2.816,0,0,0,.8-1.8,2.663,2.663,0,0,0-.7-1.8,2.631,2.631,0,0,0-1.6-.8,2.008,2.008,0,0,0-1.7.6l-.1.1a12.361,12.361,0,0,1-7.4,2.2A27.61,27.61,0,0,0,318,676.151a26.962,26.962,0,0,0-8.3,19.4m22.6-20.7a19.531,19.531,0,0,1,6.4-2.1,22.425,22.425,0,0,1,8.2,2,22.573,22.573,0,0,0-9.6,3.3,24.1,24.1,0,0,0-11.9,15.3,15.3,15.3,0,0,1-1.9-1.4,22.676,22.676,0,0,1-3.1-3.1,21.083,21.083,0,0,1,11.9-14m-.8,11a21.542,21.542,0,0,1,7-6,18.933,18.933,0,0,1,12-3.1,21.123,21.123,0,0,1,6.2,6.2,25.023,25.023,0,0,0-9.6,1.4,17.4,17.4,0,0,0-10.5,10.7,19.231,19.231,0,0,1-9.1-.8,22.229,22.229,0,0,1,4-8.4m-12.7.8a19.1,19.1,0,0,1-1.5-2.8,23.676,23.676,0,0,1,12.3-9.9,25.529,25.529,0,0,0-10.8,12.7m-3,18.4a22.333,22.333,0,0,1-1.8-7.4,23.122,23.122,0,0,0,8.2,7.4l2.3,1.2a29.165,29.165,0,0,0-7.6.2l-1.1-1.4m7.4-1.9a19.94,19.94,0,0,1-9.1-9.8,23.056,23.056,0,0,1,2.1-7.1,25.469,25.469,0,0,0,6.1,7.4,16.967,16.967,0,0,0,11,3.8,14.87,14.87,0,0,0,3.6-.4,16.567,16.567,0,0,1,3.6,8.6,21.238,21.238,0,0,1-17.3-2.5m15.6,7.2a15.789,15.789,0,0,0-4-1.8h.3a25.266,25.266,0,0,0,5.5-.6l-.5,3-1.3-.6m3.3,1.4.4-1.3a17.437,17.437,0,0,0-4-14.7,16.931,16.931,0,0,1,5.3-7.2,21.89,21.89,0,0,1,6.9,16.5,22.308,22.308,0,0,1-1.9,9.3,50.325,50.325,0,0,1-6.7-2.6m12.6-26.7a16.854,16.854,0,0,1,3.3.3,20.069,20.069,0,0,1,2.6,10.7,21.039,21.039,0,0,1-.5,5,24.246,24.246,0,0,0-5.4-16m-7,1.4a27.226,27.226,0,0,1,4.3-1.1,20.41,20.41,0,0,1,4.8,8,20.077,20.077,0,0,1,1.1,9.1,19.754,19.754,0,0,1-1.4,6.7,23.865,23.865,0,0,1-5.6,5.7h-.1a21.53,21.53,0,0,0,1.8-9.7,23.426,23.426,0,0,0-7.1-17.7Z" transform="translate(-304.294 -668.249)" fill="#fff"/>
      </g>
    </g>
    <g id="그룹_1600" data-name="그룹 1600" transform="translate(-0.006 47.254)">
      <g id="그룹_1599" data-name="그룹 1599">
        <path id="패스_860" data-name="패스 860" d="M305.206,697.523a2.532,2.532,0,0,0-.9,1.7,2.158,2.158,0,0,0,.6,1.7,2.531,2.531,0,0,0,1.7.9,2.156,2.156,0,0,0,1.7-.6q7.1-5.9,18.1-4.1a40.727,40.727,0,0,1,10.2,3.3,41.77,41.77,0,0,0,19.5,5.8q7.5,0,11.4-3.6a2.547,2.547,0,0,0,.7-1.7,2.437,2.437,0,0,0-.7-1.8,2.716,2.716,0,0,0-1.7-.8,2.546,2.546,0,0,0-1.7.7q-1.9,1.7-6,2.1-8.1.8-19.2-5.1a45.1,45.1,0,0,0-11.5-3.6Q313.8,690.123,305.206,697.523Z" transform="translate(-304.294 -691.877)" fill="#fff"/>
      </g>
    </g>
  </g>
</svg>
