<svg xmlns="http://www.w3.org/2000/svg" width="64" height="64" viewBox="0 0 64 64">
  <g id="alpine" transform="translate(-237.001 -255.801)">
    <path id="패스_748" data-name="패스 748" d="M0,0V64H64V0Z" transform="translate(237.001 255.801)" fill="rgba(255,255,255,0)"/>
    <path id="패스_64" data-name="패스 64" d="M602.054-288.7,546-321.605l1.1-1.872,56.046,32.908a3.283,3.283,0,0,0,4.441-1.116l1.855,1.116a5.4,5.4,0,0,1-4.639,2.627A5.375,5.375,0,0,1,602.054-288.7Zm3.867-21.76-12.042-6.961a3.5,3.5,0,0,1-1.814-3l-1.108-8-9.226-5.475,2.332,8.34a4.681,4.681,0,0,1-.164,1.724,3.874,3.874,0,0,1-2.463,2.463L566.094-316.3a3.372,3.372,0,0,1-1.412.214c-2.373-.287-4.146-1.855-3.859-4.227a4.374,4.374,0,0,1,2.685-3.5l11.221-3.612-3.719-12.2a6.914,6.914,0,0,1,.944-5.852,7.049,7.049,0,0,1,4.5-2.995,7.049,7.049,0,0,1,5.3,1.074l13.7,8.126a5.834,5.834,0,0,1,2.462,4.178l1.1,14.258,9.53,5.565a2.744,2.744,0,0,1,1.1,3.723,2.745,2.745,0,0,1-2.413,1.431A2.733,2.733,0,0,1,605.921-310.458Zm-6.559-21.908a5.318,5.318,0,0,1,5.319-5.319A5.319,5.319,0,0,1,610-332.367a5.319,5.319,0,0,1-5.319,5.319A5.319,5.319,0,0,1,599.362-332.367Z" transform="translate(-309 605.411)"/>
  </g>
</svg>
