<svg xmlns="http://www.w3.org/2000/svg" width="64" height="64" viewBox="0 0 64 64">
  <g id="american_football" transform="translate(0.009)">
    <g id="그룹_1450" data-name="그룹 1450" transform="translate(0.109)">
      <g id="그룹_1449" data-name="그룹 1449">
        <path id="패스_798" data-name="패스 798" d="M.05,0V64H63.816V0Z" transform="translate(-0.05)" fill="rgba(255,255,255,0)"/>
      </g>
    </g>
    <g id="그룹_1452" data-name="그룹 1452" transform="translate(-0.009 3.982)">
      <g id="그룹_1451" data-name="그룹 1451">
        <path id="패스_799" data-name="패스 799" d="M120.68,454.359l6.377-1.8a2.99,2.99,0,0,0,1.893-1.9,3.458,3.458,0,0,0,.1-2.7l-1.1-2.5a28.208,28.208,0,0,0-17.038-14.8,29.58,29.58,0,0,0-35.769,41.3,19.208,19.208,0,0,1,1,3,5.931,5.931,0,0,0,3.587,3.8,31.269,31.269,0,0,0,6.576,1.7,59.638,59.638,0,0,1,11.458,3.3,11.378,11.378,0,0,0,4.583,1l1.893-.2a15.9,15.9,0,0,0,11.059-6.3,9.675,9.675,0,0,0,1.594-6.3h2.092l.9,7a1.911,1.911,0,0,0,1.694,1.7l5.779.9.5.7a1.706,1.706,0,0,0,2.79-.1l.3.1h.4a1.969,1.969,0,0,0,1.893-1.6,1.921,1.921,0,0,0-1.594-2.4l1.2-6.3h1.3a2.337,2.337,0,0,0,1.395-.7,1.761,1.761,0,0,0,.4-1.4,2.352,2.352,0,0,0-.7-1.4,1.6,1.6,0,0,0-1.395-.5h-.2v-.2h.2q1.594,0,1.793-1.8a2.071,2.071,0,0,0-.4-1.5,1.908,1.908,0,0,0-1.395-.6h-.3l-.1-.2a1.848,1.848,0,0,0-2.889.2h-8.668l-1.2-9.5m-22.816-21,3.587-.3a24.815,24.815,0,0,1,14.248,4.4,24.24,24.24,0,0,1,9.465,11.5l-14.746,4.2a1.9,1.9,0,0,0-1.1.9l-7.473,11.8v.1a1.966,1.966,0,0,0-.2,1.5,2.223,2.223,0,0,0,.9,1.2l5.181,3a1.917,1.917,0,0,0,1,.3h4.284a6.034,6.034,0,0,1-1,4.1,12.147,12.147,0,0,1-8.469,4.6,7.5,7.5,0,0,1-4.185-.6,57.553,57.553,0,0,0-12.255-3.5q-6.775-1.4-7.074-2.6a14.659,14.659,0,0,0-1.395-3.8,25.355,25.355,0,0,1-2.391-7.7,24.873,24.873,0,0,1,4.882-19.1,24.328,24.328,0,0,1,16.739-10m16.739,24.2a1.8,1.8,0,0,0-1.1-1.1l3.288-1,1.1,8.4h-1l-2.292-6.3m-4.484,2.7h1.2l2.292,6.2a1.867,1.867,0,0,0,1.893,1.3h2.889l.1.2h-9.266l-2.889-1.7,3.786-6m12.853,11.7h5.779l-1,5.7-4.085-.7-.7-5m6.576-4h-7.074v-.2h7.074v.2m-30.389-.7a5.2,5.2,0,0,0-1.594-3.8,4.957,4.957,0,0,0-3.786-1.6,5.454,5.454,0,0,0-5.38,5.4,4.993,4.993,0,0,0,1.594,3.8,5.163,5.163,0,0,0,3.786,1.6,5.454,5.454,0,0,0,5.38-5.4m-2.989-2.4a3.359,3.359,0,1,1-2.391-1A3.279,3.279,0,0,1,96.17,464.859Z" transform="translate(-71.941 -429.041)"/>
      </g>
    </g>
  </g>
</svg>
