<svg xmlns="http://www.w3.org/2000/svg" width="64" height="64" viewBox="0 0 64 64">
  <g id="athletics" transform="translate(0 -502)">
    <rect id="사각형_1028" data-name="사각형 1028" width="64" height="64" transform="translate(0 502)" fill="#fff" opacity="0"/>
    <path id="패스_3202" data-name="패스 3202" d="M-416.4-147.974a3.751,3.751,0,0,1,0-5.3l10.475-10.474c-10.063-10.064-10.063-12.438-8.6-13.9l15-15a3.756,3.756,0,0,1,6.4,2.65v7.5h11.374A3.745,3.745,0,0,1-378-178.749a3.745,3.745,0,0,1-3.749,3.75h-15.125a3.746,3.746,0,0,1-3.75-3.75v-2.2L-406.574-175l8.6,8.6a3.751,3.751,0,0,1,0,5.3L-411.1-147.974a3.739,3.739,0,0,1-2.651,1.1A3.735,3.735,0,0,1-416.4-147.974Zm-22.5,0a3.752,3.752,0,0,1,0-5.3l24.8-24.813c.337,1.263.975,2.437,4.575,6.037L-433.6-147.974a3.735,3.735,0,0,1-2.65,1.1A3.739,3.739,0,0,1-438.9-147.974Zm.943-33.6A1.043,1.043,0,0,1-439-182.613a1.043,1.043,0,0,1,1.043-1.044h12.52a1.043,1.043,0,0,1,1.043,1.044,1.043,1.043,0,0,1-1.043,1.043Zm-2.913-5.216a1.044,1.044,0,0,1-1.044-1.044,1.043,1.043,0,0,1,1.044-1.043h12.52a1.043,1.043,0,0,1,1.043,1.043,1.043,1.043,0,0,1-1.043,1.044Zm3.086-5.217a1.043,1.043,0,0,1-1.043-1.043,1.043,1.043,0,0,1,1.043-1.043h12.52a1.043,1.043,0,0,1,1.043,1.043A1.043,1.043,0,0,1-425.264-192Zm15.746,6.529a3.75,3.75,0,0,1,0-5.3l10.313-10.313a3.75,3.75,0,0,1,4.738-.475l10.925,7.8a7.6,7.6,0,0,0-2.125,1.463l-3.662,3.662-6.738-4.975-8.137,8.137a3.75,3.75,0,0,1-2.657,1.1A3.75,3.75,0,0,1-422.038-185.475Zm25.163-13.9A5.626,5.626,0,0,1-391.25-205a5.626,5.626,0,0,1,5.626,5.626,5.625,5.625,0,0,1-5.626,5.624A5.625,5.625,0,0,1-396.875-199.374Z" transform="translate(442 710)"/>
  </g>
</svg>
