<svg id="bandy" xmlns="http://www.w3.org/2000/svg" width="64" height="64" viewBox="0 0 64 64">
  <g id="그룹_1445" data-name="그룹 1445">
    <g id="그룹_1444" data-name="그룹 1444">
      <path id="패스_796" data-name="패스 796" d="M0,0V64H63.894V0Z" fill="rgba(255,255,255,0)"/>
    </g>
  </g>
  <g id="그룹_1447" data-name="그룹 1447" transform="translate(0.031 4)">
    <g id="그룹_1446" data-name="그룹 1446">
      <path id="패스_797" data-name="패스 797" d="M177.139,449.3a5.647,5.647,0,0,0,4.592,1.8,6.311,6.311,0,0,0,6.29-6.4,6.271,6.271,0,0,0-1.9-4.6,5.681,5.681,0,0,0-4.393-1.8,6.213,6.213,0,0,0-4.592,1.8,6.681,6.681,0,0,0-1.8,4.6,5.666,5.666,0,0,0,1.8,4.6m36.439-15.4-2.3-1.6-29.551,34.1-29.651-34.1-2.3,1.6,29.351,35.4-9.784,11.5-1.8,1.2H152.28q-.6.1-1.6,1.9l-.9,2.6a1,1,0,0,0,.7,1.4h14.676a10.969,10.969,0,0,0,5.99-2.9l10.582-12.8L192.413,485a9.657,9.657,0,0,0,5.79,2.9h14.676a.933.933,0,0,0,.7-1.4l-.9-2.7q-1.1-1.7-1.6-1.8H196.007a3.329,3.329,0,0,1-1.8-1.2l-9.983-11.6Z" transform="translate(-149.715 -432.3)"/>
    </g>
  </g>
</svg>
