<svg xmlns="http://www.w3.org/2000/svg" width="64" height="64" viewBox="0 0 64 64">
  <g id="basketball_3x3" transform="translate(-9760 -892)">
    <rect id="사각형_1027" data-name="사각형 1027" width="64" height="64" transform="translate(9760 892)" fill="rgba(110,110,110,0)"/>
    <g id="_3x3" data-name="3x3" transform="translate(9665.8 806.1)">
      <g id="그룹_3655" data-name="그룹 3655" transform="translate(94.2 121.9)">
        <path id="패스_3136" data-name="패스 3136" d="M112.339,143.233h-2.548l-1.5,6.495h7.946l6.725-6.1-4.106-6.309-6.521,5.911m-4.3-14.7h3.1l1.531-6.636h-8.689l-5.247,4.079-1.5,6.468,2.858,3.132-4.362,3.389L94.2,145.852l3.539,3.876h8.512l1.5-6.495h-3.1l.947-4.088h4.238l1.557-6.742h-4.247l.894-3.867m30.819,14.7h-2.416l-13.9-21.333H114.71l-1.531,6.636h2.38l13.812,21.192h8.07l1.478-6.4-.062-.1m5-21.333h-8L129,128.12l4.114,6.3,6.486-5.884h2.725l1.531-6.636m.513,6.636h3.265l-.894,3.867H142.53l-1.548,6.742h4.2l-.938,4.088h-3.265l-1.5,6.495h9.167l4.937-3.831,1.61-7-2.831-3.1,4.327-3.362V132.4l1.5-6.53-3.654-3.973H145.9Z" transform="translate(-94.2 -121.9)"/>
      </g>
    </g>
    <path id="basketball" d="M15.831,32h.225a15.21,15.21,0,0,0,6.094-1.2,15.891,15.891,0,0,0,3.029-1.69,16.038,16.038,0,0,0,2.783-2.481A14.69,14.69,0,0,0,30.848,22.1,15.381,15.381,0,0,0,32,16.111c0-.04,0-.08,0-.121s0-.074,0-.11A15.631,15.631,0,0,0,30.848,9.8a14.722,14.722,0,0,0-3.5-5.148,15.229,15.229,0,0,0-5.2-3.5A15.479,15.479,0,0,0,16.632.01C16.444,0,16.254,0,16.064,0l-.278,0A14.893,14.893,0,0,0,9.854,1.107a14.53,14.53,0,0,0-5.1,3.549A15.323,15.323,0,0,0,1.207,9.8a15.08,15.08,0,0,0-1.2,5.842Q0,15.973,0,16.3a14.413,14.413,0,0,0,1.156,5.852,15.157,15.157,0,0,0,.8,1.587,16.029,16.029,0,0,0,1.413,2.147,15.794,15.794,0,0,0,7.859,5.42,14.945,14.945,0,0,0,4.532.7ZM16,29.949a13.11,13.11,0,0,1-5.4-1.05A13.177,13.177,0,0,1,6.055,25.85q-.1-.1-.192-.191c-.821-2.916.421-5.913,1.731-9.063A21.923,21.923,0,0,0,9.829,8.343q0-.08,0-.157,0-.216-.018-.418a18.65,18.65,0,0,1,2.816-.684c.14,12.988.934,16.687,4.351,22.851Q16.495,29.957,16,29.949Zm9.947-4.1a13.342,13.342,0,0,1-7.47,3.931c-3.393-5.99-4.307-9.088-4.465-22.872a21.823,21.823,0,0,1,2.734-.078q0,.061.008.121c0,3.476,3.627,7.648,6.828,11.323,1.789,2.056,3.633,4.172,4.129,5.472A13.536,13.536,0,0,1,25.949,25.85ZM8.442,8.339a20.9,20.9,0,0,1-2.128,7.716c-1.036,2.493-2.1,5.042-2.107,7.616A12.785,12.785,0,0,1,1.957,16a14.445,14.445,0,0,1,.31-3.3l.1-.112a18.254,18.254,0,0,1,6.075-4.3ZM30.048,16A12.982,12.982,0,0,1,29,21.351q-.206.5-.449.979a16.8,16.8,0,0,0-1.332-1.907A29.133,29.133,0,0,0,24.63,17.36c-2.889-3.316-6.485-7.447-6.485-10.408V6.922a22.042,22.042,0,0,1,9.524,3.106,9.972,9.972,0,0,1,1.71,1.362A13.814,13.814,0,0,1,30.048,16ZM7.824,5.861a3.132,3.132,0,0,1,.362.739,2.487,2.487,0,0,1,.067.271A19.7,19.7,0,0,0,3.23,9.882,13.7,13.7,0,0,1,6.055,6.006q.46-.471.946-.889A2.554,2.554,0,0,1,7.824,5.861Zm18.125.2a14,14,0,0,1,2.114,2.566,20.3,20.3,0,0,0-4.2-1.929,22.2,22.2,0,0,0-4.846-1.087q-.358-.044-.722-.078a3.5,3.5,0,0,1,.217-.783A4.3,4.3,0,0,1,19.364,3.5v0A3.917,3.917,0,0,1,21.019,2.8,14.009,14.009,0,0,1,25.949,6.056ZM12.612,5.638a19.706,19.706,0,0,0-3.042.744q-.053-.181-.116-.347a4.14,4.14,0,0,0-.26-.573A3.893,3.893,0,0,0,8.156,4.227,12.852,12.852,0,0,1,12.6,2.278Q12.6,4.051,12.612,5.638ZM14,5.465c0-.06,0-.121,0-.181q-.011-1.541-.012-3.252A15.932,15.932,0,0,1,16,1.907a14.743,14.743,0,0,1,2.83.266,4.234,4.234,0,0,0-.346.256l-.017.013-.018.017a4.908,4.908,0,0,0-1.332,2.007,5.666,5.666,0,0,0-.276.953q-.552-.031-1.1-.031C15.157,5.388,14.576,5.414,14,5.465Z" transform="translate(9776 924) rotate(-90)"/>
  </g>
</svg>
