<svg xmlns="http://www.w3.org/2000/svg" width="64" height="64" viewBox="0 0 64 64">
  <g id="beach_soccer" transform="translate(0.023)">
    <g id="그룹_1350" data-name="그룹 1350" transform="translate(0.023)">
      <g id="그룹_1349" data-name="그룹 1349">
        <path id="패스_754" data-name="패스 754" d="M0,0V64H63.953V0Z" fill="rgba(255,255,255,0)"/>
      </g>
    </g>
    <g id="그룹_1352" data-name="그룹 1352" transform="translate(39.486 26.1)">
      <g id="그룹_1351" data-name="그룹 1351">
        <path id="패스_755" data-name="패스 755" d="M342.451,391v-.4l-7.882-5.5-8.381,4.4-3.392,10,2.295,3.2.2-.2,2.195-1.5a9.584,9.584,0,0,1,3.692-.7,9.854,9.854,0,0,1,3.791.7l3.193,2.2,1,.2h.2A25.217,25.217,0,0,0,342.451,391Z" transform="translate(-322.796 -385.1)"/>
      </g>
    </g>
    <g id="그룹_1354" data-name="그룹 1354" transform="translate(33.2 6.1)">
      <g id="그룹_1353" data-name="그룹 1353">
        <path id="패스_756" data-name="패스 756" d="M337.31,392.6l2.893-8a27.989,27.989,0,0,0-13.369-9.5l-7.184,5.4v10.1l8.78,6.6Z" transform="translate(-319.651 -375.1)"/>
      </g>
    </g>
    <g id="그룹_1356" data-name="그룹 1356" transform="translate(0.176)">
      <g id="그룹_1355" data-name="그룹 1355">
        <path id="패스_757" data-name="패스 757" d="M364.785,392.75l-.2-.1-1.2-3.1-3.791-5.7-.3-.3a14.025,14.025,0,0,0-2.594-2.7,26.263,26.263,0,0,0-10.276-6.4l-2.893-1.2-.3-.1-8.181-1.1h-.3l-4.689.6a10.692,10.692,0,0,0-3.592.6l-2.993,1a32.119,32.119,0,0,0-10.376,6.6l-4.589,5.2-.3.6-.9,1.4-.2.1-1.1,2.3v.1l-1.7,4.6-.1.1-1.1,4.9.1,8.5.2.1.7,3.6.4,1.2a5.747,5.747,0,0,1,2.195.5l.3.1-1-2.5-1-7.8.3-3.4,1-4.8v.2l.7-2.2,1.1-2.4h-.1l1.1-2.2v.1l.4-.5.8-1.4v-.2l4.29-4.8a26.517,26.517,0,0,1,9.578-6l3.093-1h-.1a7.26,7.26,0,0,1,2.893-.6l4.789-.5,7.982,1.1,2.794,1a26.518,26.518,0,0,1,9.578,6l2.893,3,3.492,5.4,2.494,6.6h-.2l.7,3.2.2,4.6a36.356,36.356,0,0,1-1.8,9.2l.1-.2a6.171,6.171,0,0,1,2.394-.5,50.262,50.262,0,0,0,1.4-8.5l-.3-4.9Z" transform="translate(-303.126 -372.05)"/>
      </g>
    </g>
    <g id="그룹_1358" data-name="그룹 1358" transform="translate(10.153 6.1)">
      <g id="그룹_1357" data-name="그룹 1357">
        <path id="패스_758" data-name="패스 758" d="M328.671,380.5l-7.184-5.4a27.989,27.989,0,0,0-13.369,9.5l2.794,8,8.979,4.6,8.78-6.6Z" transform="translate(-308.119 -375.1)"/>
      </g>
    </g>
    <g id="그룹_1360" data-name="그룹 1360" transform="translate(35.295 41.9)">
      <g id="그룹_1359" data-name="그룹 1359">
        <path id="패스_759" data-name="패스 759" d="M322.894,393H320.7l.4.1,3.193,2.2h.3Z" transform="translate(-320.699 -393)"/>
      </g>
    </g>
    <g id="그룹_1362" data-name="그룹 1362" transform="translate(4.762 26.1)">
      <g id="그룹_1361" data-name="그룹 1361">
        <path id="패스_760" data-name="패스 760" d="M305.424,390.6v.4a26.142,26.142,0,0,0,2.893,12.4h.3l1-.2a5.16,5.16,0,0,0,1.1-.7l2.195-1.5a9.584,9.584,0,0,1,3.692-.7,9.854,9.854,0,0,1,3.791.7l2.195,1.5.2.2,2.295-3.2-3.292-10-8.58-4.4Z" transform="translate(-305.421 -385.1)"/>
      </g>
    </g>
    <g id="그룹_1364" data-name="그룹 1364" transform="translate(24.72 41.9)">
      <g id="그룹_1363" data-name="그룹 1363">
        <path id="패스_761" data-name="패스 761" d="M319.3,393H317.1l-1.7,2.3h.1a4.015,4.015,0,0,0,1.2-.7l2.2-1.5Z" transform="translate(-315.407 -393)"/>
      </g>
    </g>
    <g id="그룹_1366" data-name="그룹 1366" transform="translate(-0.023 42.59)">
      <g id="그룹_1365" data-name="그룹 1365">
        <path id="패스_762" data-name="패스 762" d="M350.917,395.655a5.629,5.629,0,0,1,2,1,9.244,9.244,0,0,0,11.972,0,3.571,3.571,0,0,1,2-1v-2.3a7.567,7.567,0,0,0-3.691.8,7.671,7.671,0,0,0-2.295,1.5l-1.1.7-.9.2-1-.2-3.193-2.2a9.684,9.684,0,0,0-3.791-.8,7.567,7.567,0,0,0-3.692.8,8.4,8.4,0,0,0-2.195,1.5l-1.1.7-1,.2-1-.2-3.193-2.2a8.372,8.372,0,0,0-3.791-.8,8.392,8.392,0,0,0-5.887,2.3l-1.1.7-1,.2-1-.2-3.193-2.2a8.372,8.372,0,0,0-3.791-.8,7.567,7.567,0,0,0-3.692.8,8.4,8.4,0,0,0-2.195,1.5l-1.1.7-1,.2-1-.2-3.193-2.2a8.372,8.372,0,0,0-3.791-.8v2.3a4.035,4.035,0,0,1,2,1,9.244,9.244,0,0,0,11.972,0,3.571,3.571,0,0,1,2-1,4.034,4.034,0,0,1,2,1,9.244,9.244,0,0,0,11.973,0,3.571,3.571,0,0,1,2-1,4.035,4.035,0,0,1,2,1,9.235,9.235,0,0,0,5.986,2.2,10.249,10.249,0,0,0,5.986-2.2A3.571,3.571,0,0,1,350.917,395.655Z" transform="translate(-303.027 -393.345)"/>
      </g>
    </g>
    <g id="그룹_1368" data-name="그룹 1368" transform="translate(-0.023 50.5)">
      <g id="그룹_1367" data-name="그룹 1367">
        <path id="패스_763" data-name="패스 763" d="M336.949,400.6a8.94,8.94,0,0,0,11.972,0,2.557,2.557,0,0,1,2-.9,2.763,2.763,0,0,1,2,.9,8.94,8.94,0,0,0,11.972,0,2.557,2.557,0,0,1,2-.9v-2.4a9.46,9.46,0,0,0-3.691.8l-3.392,2.3h-1.9l-1-.9-2.195-1.4a9.683,9.683,0,0,0-3.791-.8,9.46,9.46,0,0,0-3.692.8l-3.392,2.3h-1.9l-1-.9-2.2-1.4a9.683,9.683,0,0,0-3.791-.8,9.46,9.46,0,0,0-3.692.8l-3.392,2.3h-1.9l-1-.9-2.195-1.4a9.683,9.683,0,0,0-3.791-.8,9.46,9.46,0,0,0-3.692.8l-3.292,2.3h-2l-1-.9-2.2-1.4a9.683,9.683,0,0,0-3.791-.8v2.4a2.763,2.763,0,0,1,2,.9,8.94,8.94,0,0,0,11.972,0,2.557,2.557,0,0,1,2-.9,2.763,2.763,0,0,1,2,.9,8.94,8.94,0,0,0,11.973,0,2.557,2.557,0,0,1,2-.9A2.763,2.763,0,0,1,336.949,400.6Z" transform="translate(-303.027 -397.3)"/>
      </g>
    </g>
    <g id="그룹_1370" data-name="그룹 1370" transform="translate(-0.023 58.4)">
      <g id="그룹_1369" data-name="그룹 1369">
        <path id="패스_764" data-name="패스 764" d="M338.745,401.95a18.375,18.375,0,0,0-3.791-.7,11.861,11.861,0,0,0-3.692.7l-2.2,1.5a5.164,5.164,0,0,1-1.1.7l-1,.2-1-.2-3.193-2.2a18.375,18.375,0,0,0-3.791-.7,11.862,11.862,0,0,0-3.692.7l-2.195,1.5a5.165,5.165,0,0,1-1.1.7l-1,.2-1-.2-3.193-2.2a18.375,18.375,0,0,0-3.791-.7v2.4a2.455,2.455,0,0,1,2,1,11.239,11.239,0,0,0,5.986,2.2,11.664,11.664,0,0,0,5.986-2.2,2.491,2.491,0,0,1,3.991,0,11.239,11.239,0,0,0,5.986,2.2,11.664,11.664,0,0,0,5.986-2.2,2.491,2.491,0,0,1,3.991,0,10.02,10.02,0,0,0,5.986,2.2,11.663,11.663,0,0,0,5.986-2.2,2.455,2.455,0,0,1,2-1,3.185,3.185,0,0,1,2,1,11.239,11.239,0,0,0,5.986,2.2,11.663,11.663,0,0,0,5.986-2.2,2.455,2.455,0,0,1,2-1v-2.4a11.861,11.861,0,0,0-3.691.7l-2.295,1.5a2.309,2.309,0,0,1-1.1.7l-.9.2-1-.2-3.193-2.2a18.376,18.376,0,0,0-3.791-.7,11.862,11.862,0,0,0-3.692.7l-2.195,1.5a5.165,5.165,0,0,1-1.1.7l-1,.2-1-.2Z" transform="translate(-303.027 -401.25)"/>
      </g>
    </g>
  </g>
</svg>
