<svg xmlns="http://www.w3.org/2000/svg" width="64" height="64" viewBox="0 0 64 64">
  <g id="bowling" transform="translate(0.002 0.008)">
    <g id="그룹_1435" data-name="그룹 1435" transform="translate(0.002 0.008)">
      <g id="그룹_1434" data-name="그룹 1434">
        <path id="패스_792" data-name="패스 792" d="M0,0V63.981H63.981V0Z" fill="rgba(255,255,255,0)"/>
      </g>
    </g>
    <g id="그룹_1437" data-name="그룹 1437" transform="translate(-0.002 -0.008)">
      <g id="그룹_1436" data-name="그룹 1436">
        <path id="패스_793" data-name="패스 793" d="M312.749,439.455a29.445,29.445,0,0,0-7,10.3,31.284,31.284,0,0,0-2.3,12.4,30.757,30.757,0,0,0,2.3,12.2,29.445,29.445,0,0,0,7,10.3,31.721,31.721,0,0,0,10.4,7.1,30.409,30.409,0,0,0,12.3,2.4,29.98,29.98,0,0,0,12.3-2.4,29.6,29.6,0,0,0,10.2-7.1,30.238,30.238,0,0,0,7.2-10.2,28.845,28.845,0,0,0,2.3-12.3,30.233,30.233,0,0,0-2.4-12.4,30.638,30.638,0,0,0-7.1-10.3,29.062,29.062,0,0,0-10.2-7.1,29.808,29.808,0,0,0-12.3-2.2,31.022,31.022,0,0,0-12.3,2.3,30.461,30.461,0,0,0-10.4,7m2.8,2.8a27.136,27.136,0,0,1,19.894-8.3,26.667,26.667,0,0,1,19.894,8.2,26.216,26.216,0,0,1,8.2,19.994,25.867,25.867,0,0,1-8.2,19.694,28.244,28.244,0,0,1-45.886-9,28.259,28.259,0,0,1,6.1-30.591m15.9,12.2a4.955,4.955,0,0,0-1.7,3.9,5.069,5.069,0,0,0,1.7,4,4.955,4.955,0,0,0,3.9,1.7,5.472,5.472,0,0,0,4-1.7,5.62,5.62,0,0,0,1.5-4,5.722,5.722,0,0,0-1.5-3.9,5.48,5.48,0,0,0-4-1.5,4.424,4.424,0,0,0-3.9,1.5m11.4-12.9a5.435,5.435,0,0,0-4.1,1.8,5.551,5.551,0,0,0,0,7.8,6.3,6.3,0,0,0,4.1,1.8,5.024,5.024,0,0,0,3.9-1.8,5.551,5.551,0,0,0,0-7.8,4.634,4.634,0,0,0-3.9-1.8m-20.594,5.7a5.355,5.355,0,0,0,1.5,3.9,6.3,6.3,0,0,0,4.1,1.8,5.174,5.174,0,0,0,3.8-1.8,4.245,4.245,0,0,0,1.7-3.9,4.516,4.516,0,0,0-1.7-3.9,4.391,4.391,0,0,0-3.8-1.8,5.051,5.051,0,0,0-4.1,1.8A5.161,5.161,0,0,0,322.246,447.253Z" transform="translate(-303.448 -430.142)"/>
      </g>
    </g>
  </g>
</svg>
