<svg xmlns="http://www.w3.org/2000/svg" width="64" height="64" viewBox="0 0 64 64">
  <g id="chess" transform="translate(0 0.008)">
    <g id="그룹_1557" data-name="그룹 1557" transform="translate(0 0.008)">
      <g id="그룹_1556" data-name="그룹 1556">
        <path id="패스_842" data-name="패스 842" d="M0,0V63.983H64V0Z" fill="rgba(255,255,255,0)"/>
      </g>
    </g>
    <g id="그룹_1559" data-name="그룹 1559" transform="translate(9.996 -0.008)">
      <g id="그룹_1558" data-name="그룹 1558">
        <path id="패스_843" data-name="패스 843" d="M257,617.807l.2-3a1.142,1.142,0,0,0-.5-1.3,2.445,2.445,0,0,0-1.4-.8,1.9,1.9,0,0,0-1.4.4,12.261,12.261,0,0,0-4.3,4.6,18.063,18.063,0,0,0-6.4,3.2h-.1a13.95,13.95,0,0,0-5.6,6.9v-.1a32.6,32.6,0,0,0-2.1,8.9v.1q0,6.8,1.6,9h-.1a39.969,39.969,0,0,1,3,9.7,9,9,0,0,0-4.6,2.4l-.5.5a8.334,8.334,0,0,0,.4,11.9l.1.1a8.325,8.325,0,0,0,5.9,2.5h-3.6a1.919,1.919,0,0,0-1.4.6l-.2.2a2.017,2.017,0,0,0-.4,1.3,1.737,1.737,0,0,0,.6,1.2,1.919,1.919,0,0,0,1.4.6h31.2a1.447,1.447,0,0,0,1.3-.6l.2-.2a1.758,1.758,0,0,0,.5-1.3,1.876,1.876,0,0,0-.7-1.2,1.447,1.447,0,0,0-1.3-.6H265a9.221,9.221,0,0,0,6.2-2.6,8.573,8.573,0,0,0-4.2-14.6,14.845,14.845,0,0,0-3.2-8.4,82.892,82.892,0,0,0-5.6-7.1,19.955,19.955,0,0,0,3-1.1l.5.1.2.2a5.635,5.635,0,0,0,5.7,2.9h.3l2.1-.5h.9a3.033,3.033,0,0,0,1.6-.8l2-2.1v-.1a3.072,3.072,0,0,0,.7-2.1,3.6,3.6,0,0,0-.4-1.8v-.5a2.661,2.661,0,0,0-.5-2.3l-.5-.4q-4.8-3.7-8.2-6.9l-.7-1.3a1.213,1.213,0,0,0-.7-.8,17.969,17.969,0,0,0-3.6-1.7l.1-.1a1.5,1.5,0,0,0-.3-1.4q-.1-.7-1.1-1.1l-2.3-.5m-1.8,3.6.9.2a1.787,1.787,0,0,0,.1,1.3,2.685,2.685,0,0,0,1.2,1.1,14,14,0,0,1,4,1.5l.3.7.1.1q.6,1.6,8.9,7.8l.2,2.5-.7,1-.6.1a1.775,1.775,0,0,0-1.2.8q0-.4-.8-.2a1.776,1.776,0,0,1-2-.9l-1.1-1.3-.4-.3a6.235,6.235,0,0,0-3.8-.6l-.7.2a6.456,6.456,0,0,1-5.6.6,3.131,3.131,0,0,0-1.6-.2,1.775,1.775,0,0,0-1.2.8,2.572,2.572,0,0,0-.2,1.4q-.2.7.6,1.1l.3.4a55.545,55.545,0,0,1,8.5,10v-.1a11.977,11.977,0,0,1,2.5,5.8h-19a46.458,46.458,0,0,0-3.4-11.3v-.1a16.846,16.846,0,0,1-1-6.9,28.012,28.012,0,0,1,2-7.8,11.366,11.366,0,0,1,4.1-5.1,13.614,13.614,0,0,1,6-2.7,1.729,1.729,0,0,0,1.2-.6l.4-.5a1.633,1.633,0,0,0,2,1.2m13,39.19h.1a4.341,4.341,0,0,1,1.4,3.4,3.805,3.805,0,0,1-1.4,3.4,5.028,5.028,0,0,1-3.7,1.5H241.8a4.91,4.91,0,0,1-3.6-1.5l-.3-.3a4.331,4.331,0,0,1-1.2-3.3,4.539,4.539,0,0,1,1.5-3.2,4.037,4.037,0,0,1,3.6-1.4H265A5.8,5.8,0,0,1,268.2,660.6Z" transform="translate(-232.498 -612.692)"/>
      </g>
    </g>
  </g>
</svg>
