<svg xmlns="http://www.w3.org/2000/svg" width="64.001" height="64" viewBox="0 0 64.001 64">
  <g id="cross-country" transform="translate(-88 -599)">
    <rect id="사각형_1031" data-name="사각형 1031" width="64" height="64" transform="translate(88 599)" fill="#fff" opacity="0"/>
    <path id="패스_3203" data-name="패스 3203" d="M-9736.29,1392.61v-1.274h34.386a2.008,2.008,0,0,0,1.447-.637,2.014,2.014,0,0,0,.637-1.448l1.389-.115a3.39,3.39,0,0,1-.984,2.489,3.389,3.389,0,0,1-2.488.985Zm21.533-3.588,17.019-34.963,1.739.808-16.9,34.155Zm-9.575-.977a3.111,3.111,0,0,1-.984-2.276,2.617,2.617,0,0,1,.13-.781l3.157-13.663-7.758-7.417-6.574,7.287a3.759,3.759,0,0,1-.394.326,7.234,7.234,0,0,1-1.25.585,4.56,4.56,0,0,1-2.17.26h-13.41a2.655,2.655,0,0,1-2.038-.585,3.309,3.309,0,0,1-1.117-1.886,2.755,2.755,0,0,1,.328-2.408,3.077,3.077,0,0,1,2.038-1.367h12.357l16.962-19.52-4.47-.13-7.758,8.847a2.159,2.159,0,0,1-1.842.911,2.426,2.426,0,0,1-1.773-.715,2.371,2.371,0,0,1-.723-1.756,2.476,2.476,0,0,1,.789-1.822l8.281-9.5a2.522,2.522,0,0,1,1.975-.911h12.095a3.081,3.081,0,0,1,2.236.911l7.626,7.677,6.441-6.376a2.53,2.53,0,0,1,1.58-.519,2.667,2.667,0,0,1,1.84.715,2.265,2.265,0,0,1,.788,1.756,2.562,2.562,0,0,1-.656,1.693l-7.628,7.677a3.34,3.34,0,0,1-2.1,1.107,2.327,2.327,0,0,1-1.575-.326l-5.262-5.205-7.362,8.458,6.836,6.768a3.33,3.33,0,0,1,.331.389,4.6,4.6,0,0,1,.458,1.3,3.31,3.31,0,0,1-.263,2.212l-3.681,16.656a3.254,3.254,0,0,1-1.184,1.889,3.172,3.172,0,0,1-1.972.715A3.182,3.182,0,0,1-9724.332,1388.045Zm-22.123-.759L-9760,1373.622v-2.545l14.588,14.586a.676.676,0,0,0,.812.348,2.4,2.4,0,0,0,.752-.233,3.309,3.309,0,0,1,.4-.23l1.273,1.389c0,.073-.245.233-.752.463a7.123,7.123,0,0,1-1.736.522,1.93,1.93,0,0,1-.336.03A2.05,2.05,0,0,1-9746.455,1387.285ZM-9760,1356.05v-1.159h15.4v1.159Zm44.665-14.64a4.162,4.162,0,0,1-1.273-3.069,4.157,4.157,0,0,1,1.273-3.067,4.24,4.24,0,0,1,3.125-1.274,4.24,4.24,0,0,1,3.126,1.274,4.157,4.157,0,0,1,1.273,3.067,4.162,4.162,0,0,1-1.273,3.069,4.24,4.24,0,0,1-3.126,1.274A4.24,4.24,0,0,1-9715.335,1341.41Z" transform="translate(9848 -732)"/>
  </g>
</svg>
