<svg xmlns="http://www.w3.org/2000/svg" width="64.002" height="64" viewBox="0 0 64.002 64">
  <g id="curling" transform="translate(-90.999 -425)">
    <path id="패스_865" data-name="패스 865" d="M0,0V64H64V0Z" transform="translate(91 425)" fill="rgba(255,255,255,0)"/>
    <path id="패스_3196" data-name="패스 3196" d="M15,50A15.858,15.858,0,0,1,4.395,46.077,12.627,12.627,0,0,1,0,36.606V31.25a12.624,12.624,0,0,1,4.395-9.47A15.856,15.856,0,0,1,15,17.858H49A15.854,15.854,0,0,1,59.607,21.78,12.624,12.624,0,0,1,64,31.25v5.357a12.627,12.627,0,0,1-4.395,9.471A15.857,15.857,0,0,1,49,50ZM7.516,43.289A12.685,12.685,0,0,0,16,46.427H48a12.687,12.687,0,0,0,8.487-3.137A10.98,10.98,0,0,0,58.4,41.071H5.6A11.013,11.013,0,0,0,7.516,43.289ZM4,32.142v3.571A9.738,9.738,0,0,0,4.164,37.5H59.837A9.738,9.738,0,0,0,60,35.713V32.142a9.745,9.745,0,0,0-.165-1.786H4.164A9.745,9.745,0,0,0,4,32.142Zm3.516-7.575A11,11,0,0,0,5.6,26.785H58.4a11.026,11.026,0,0,0-1.913-2.218A12.685,12.685,0,0,0,48,21.429H16A12.682,12.682,0,0,0,7.516,24.567ZM12,16.071l6.142-3.611H38.021a3.424,3.424,0,0,0,2.425-.993,4.235,4.235,0,0,0,.888-2.619,4.368,4.368,0,0,0-.888-2.709,3.8,3.8,0,0,0-2.182-.993H22.021a1.534,1.534,0,0,1-1.615-.722,2.8,2.8,0,0,1-.647-1.9A2.486,2.486,0,0,1,20.406.812,1.83,1.83,0,0,1,22.021.181V0H42.87a1.952,1.952,0,0,1,1.7.993,2.635,2.635,0,0,1,.646.9l4.2,10.022A10.926,10.926,0,0,0,52,16.071Z" transform="translate(90.999 432)"/>
  </g>
</svg>
