<svg id="cycling" xmlns="http://www.w3.org/2000/svg" width="64" height="64" viewBox="0 0 64 64">
  <g id="그룹_1591" data-name="그룹 1591">
    <g id="그룹_1590" data-name="그룹 1590">
      <path id="패스_856" data-name="패스 856" d="M0,0V64H63.9V0Z" fill="rgba(255,255,255,0)"/>
    </g>
  </g>
  <g id="그룹_1593" data-name="그룹 1593" transform="translate(0 8.028)">
    <g id="그룹_1592" data-name="그룹 1592">
      <path id="패스_857" data-name="패스 857" d="M737.479,665.186a12.514,12.514,0,0,0,5.092,1.1,12.845,12.845,0,0,0,7.289-2.2,12.634,12.634,0,0,0,4.792-5.9,13.073,13.073,0,0,0-7.089-17.2,12.631,12.631,0,0,0-10.084,0,13.3,13.3,0,0,0-6.989,7,13.138,13.138,0,0,0,6.989,17.2m5.092-2.9a8.631,8.631,0,0,1-6.49-2.7,8.333,8.333,0,0,1-2.5-4.7,8.552,8.552,0,0,1,.5-5.3,8.828,8.828,0,0,1,4.892-4.9,9.025,9.025,0,0,1,7.089-.1,9.185,9.185,0,0,1,4.992,5,8.288,8.288,0,0,1,0,7.1,9.086,9.086,0,0,1-8.487,5.6m-49.722-14.3a12.39,12.39,0,0,0,0,10.2,12.07,12.07,0,0,0,6.989,7,12.391,12.391,0,0,0,7.588.8,12.1,12.1,0,0,0,6.789-3.6,13.619,13.619,0,0,0,2.8-4.2,12.39,12.39,0,0,0,0-10.2,13.2,13.2,0,0,0-16.974-7,12.405,12.405,0,0,0-7.189,7m12.081,14.3a8.631,8.631,0,0,1-6.49-2.7,8.332,8.332,0,0,1-2.5-4.7,8.552,8.552,0,0,1,.5-5.3,9.212,9.212,0,0,1,12.081-4.9,8.828,8.828,0,0,1,4.892,4.9,9.365,9.365,0,0,1,0,7.1,9.2,9.2,0,0,1-2,2.9,8.431,8.431,0,0,1-6.49,2.7m8.986-22.1,5.891,3.6.7,11.4a2.774,2.774,0,0,0,.9,2,3.308,3.308,0,0,0,2.1.8,2.669,2.669,0,0,0,2.1-.9,2.88,2.88,0,0,0,.9-2.1l-.1-13.2a2.19,2.19,0,0,0-.4-1.4,3.17,3.17,0,0,0-.9-1.2l-3.694-2.8,7.189-3.7,6.09,5.1a3.914,3.914,0,0,0,1.5.6l5.791.3a2.815,2.815,0,0,0,1.9-.6,2.414,2.414,0,0,0,1-1.7,1.912,1.912,0,0,0-.5-1.8,2.587,2.587,0,0,0-1.8-.9l-5.891-.9-5.292-7-2-2a8.724,8.724,0,0,0-1.9-1.3,4.072,4.072,0,0,0-4.094.2l-10.284,5a6.863,6.863,0,0,0-3.295,3.7,5.528,5.528,0,0,0,.1,5.1,6.215,6.215,0,0,0,1.6,2,17.66,17.66,0,0,0,2.4,1.7m21.566-23.3a5.447,5.447,0,0,0-3.495,2.9,5.135,5.135,0,0,0-.7,2.8,7.027,7.027,0,0,0,.7,2.7,6.081,6.081,0,0,0,4.094,3,5.1,5.1,0,0,0,2.8-.2,5.5,5.5,0,0,0,3.994-3.9,6,6,0,0,0-1.1-5.5,6.311,6.311,0,0,0-6.29-1.8Z" transform="translate(-691.75 -616.614)"/>
    </g>
  </g>
</svg>
