<svg xmlns="http://www.w3.org/2000/svg" width="64.004" height="64" viewBox="0 0 64.004 64">
  <g id="equestrian" transform="translate(-87.999 -814)">
    <path id="패스_3138" data-name="패스 3138" d="M-201.6,68.243h-64v64h64Z" transform="translate(353.6 745.757)" fill="rgba(252,252,252,0)"/>
    <g id="del4" transform="translate(88 820)">
      <path id="패스_3214" data-name="패스 3214" d="M-10100.55-626.052a.662.662,0,0,1-.1-.155l-.149-.206a1.072,1.072,0,0,1-.548-.726,1.12,1.12,0,0,1,0-.931l.149-.414v-.053a.706.706,0,0,0,.048-.464v.051a.328.328,0,0,0-.248-.259.322.322,0,0,1-.149-.155,1.531,1.531,0,0,1-.7-1.708l.1-.672v-.051l.551-2.121a26.674,26.674,0,0,0,.55-5.435v-1.913a1.168,1.168,0,0,1,.15-.776h-.15a6.429,6.429,0,0,1-.35.622q-.252.464-1.051,1.809v.053c-.233.277-.467.31-.7.1a1.094,1.094,0,0,1-.3-.467,8.049,8.049,0,0,1-.4-1.6,7.7,7.7,0,0,1-.1-3.466h-.051a3.074,3.074,0,0,0,.149-.931.621.621,0,0,1-.249-.157l-.149-.206a.146.146,0,0,1-.051-.1,4.8,4.8,0,0,0-.85-1.553q-1.1-1.138-1.6-1.758a9.577,9.577,0,0,1-1.6-2.9,13.165,13.165,0,0,0-.9-1.966.045.045,0,0,1-.051-.051l-.649-1.761a.213.213,0,0,1-.051-.155v-2.9a.218.218,0,0,1,.051-.155l.1-.208a6.9,6.9,0,0,1,2.5-4.346h-.051a5.513,5.513,0,0,1,4.9-1.5,10.956,10.956,0,0,1,3.05.827h.051a2.4,2.4,0,0,0,2.451,0,21.532,21.532,0,0,1,3.849-1.758,9.532,9.532,0,0,1,3.8-.363h.048l3.75.776h.051a13.517,13.517,0,0,0,4.9.672h.251a7.99,7.99,0,0,0,3.951-.776,16.812,16.812,0,0,0,2.5-1.708l2.75-2.431q.8-.776,1.149-1.19a6.227,6.227,0,0,1,1.9-1.862c.033,0,.051-.018.051-.053a1.247,1.247,0,0,0,.649-.723,2.309,2.309,0,0,1,1.6-1.6h-.048a2.82,2.82,0,0,0,1.1-.726,2.526,2.526,0,0,1,2.1-1.035q.35,0,.449-.206a.331.331,0,0,1,.149-.155.426.426,0,0,1,.2-.053h4.05a.524.524,0,0,1,.251.053l.049.051.5.051a1.129,1.129,0,0,1,.649.208,1.149,1.149,0,0,1,1.149.208,2.157,2.157,0,0,0,1.051.31.387.387,0,0,1,.149.051l.449.1a.044.044,0,0,0,.051.051l.7.416a3.239,3.239,0,0,1,.8.36v.053a12.171,12.171,0,0,1,2.3,2.431v.053a1.486,1.486,0,0,0,.4.36l1.2.984a.674.674,0,0,0,.5.206h1.2a.338.338,0,0,1,.251.1.575.575,0,0,1,.1.312v.464a.314.314,0,0,1-.149.155l-.1.1a.339.339,0,0,1,.149.208.345.345,0,0,1,0,.259.334.334,0,0,1-.149.206l-.952.622c-.032,0-.048.018-.048.051a1.749,1.749,0,0,1-.9.155,1.25,1.25,0,0,1-.751.931l-.249.208h.051c-.068.036-.1.069-.1.1a.045.045,0,0,0,.051.051,1.4,1.4,0,0,1-.6,1.862,2.968,2.968,0,0,0-1,1.553v.053q-.149.362-1.5,3.725l-.149.723a1.17,1.17,0,0,1-.949.931h-.1a1.123,1.123,0,0,0-.449.157,1.661,1.661,0,0,1-1.35.155,1.668,1.668,0,0,1-1.152-.88v-.051c-.1-.277-.164-.485-.2-.622l-.152-.414a1.336,1.336,0,0,1-.4-.726c-.068-.241.065-.551.4-.931v.053a1.22,1.22,0,0,0,.3-1.139.045.045,0,0,1-.051-.051,13.162,13.162,0,0,0-.551-2.537v-.051a2.751,2.751,0,0,1,.1-2.69v-.053h0a1.41,1.41,0,0,0-.649.155,1.121,1.121,0,0,0-.551.726l-.051.31v2.588a13.04,13.04,0,0,1-.8,5.123v.051a2.39,2.39,0,0,0,.149,2.535,2.762,2.762,0,0,1,.351,2.225,3.2,3.2,0,0,0,.048,1.862c0,.036.2.208.2.208a5.363,5.363,0,0,1,2.251.672h.051a7.816,7.816,0,0,0,2.466.912,4.247,4.247,0,0,0,.482.07.932.932,0,0,1,.8.312,1.138,1.138,0,0,1,.4.878.427.427,0,0,1-.048.157v.051c.032.31.083.759.149,1.345a2.937,2.937,0,0,1-.649,2.276v.053a15.5,15.5,0,0,0-2.353,3.725,1.667,1.667,0,0,1-1.9,1.294,1.945,1.945,0,0,0-1.251.31v.053a5.2,5.2,0,0,1-2.6.931.768.768,0,0,1-1-.726.149.149,0,0,1-.051-.1v-.051a3.262,3.262,0,0,1,.751-2.172q.252-.518,1.5-.518a1.37,1.37,0,0,1,1.35.36l.051.053.051-.1a1.279,1.279,0,0,1,1.248-1.241,1.5,1.5,0,0,0,.4-.259,13.786,13.786,0,0,0,1.2-1.812,1.054,1.054,0,0,0,0-.776v.051a2.2,2.2,0,0,1-.2-.982.139.139,0,0,0-.2-.1,5.031,5.031,0,0,1-.748.1,17.7,17.7,0,0,1-2.652.363h-.048a5.015,5.015,0,0,1-2.25-.518,1.591,1.591,0,0,0-1.3-.259h-.053l-.9.051h-.051c-.1,0-.183.068-.249.208v.051a14.6,14.6,0,0,0-1.251,3.106v.051l-.9,2.847v-.053a10.493,10.493,0,0,0-.3,2.847,4.03,4.03,0,0,1-.15,1.139v-.053a23.828,23.828,0,0,0-.7,3.933v.1a3.753,3.753,0,0,0-.149,1.035l.551,2.639v.1a.675.675,0,0,0,.35.622l.749.414a3.5,3.5,0,0,1,1.85,2.278.467.467,0,0,1,0,.31.578.578,0,0,1-.2.206l-.35.208a.044.044,0,0,0-.051.051,6.816,6.816,0,0,1-2.9,0,1.047,1.047,0,0,1-.9-1.291v-.726a.813.813,0,0,0-.551-.931h.051l-.5-.155a1.088,1.088,0,0,1-.9-1.19v-.053l.3-4.861-.252-3.572v-.1a12.17,12.17,0,0,0,.252-2.07q0-2.329-.152-4.605a16.045,16.045,0,0,0-.4-1.812,1.1,1.1,0,0,0-.949-.723h-.051a2.226,2.226,0,0,0-.951,0q-2.648.362-3.1.363h-.048a25.512,25.512,0,0,1-3.7-.053,14.622,14.622,0,0,1-3.35-1.035l-.649-.206a1.4,1.4,0,0,1-.449.776v.051l-.4,3.466a14.405,14.405,0,0,1-.3,1.606v.051a9.309,9.309,0,0,0-.35,1.553,14.039,14.039,0,0,0,.1,3.725,17.219,17.219,0,0,0,2.3,5.9,4.92,4.92,0,0,0,2.2,2.121l.9.464a3.581,3.581,0,0,1,1.651,2.484.36.36,0,0,1-.1.259.5.5,0,0,1-.251.208l-1.251.206h-.051l-1.85-.155h-.049a1.264,1.264,0,0,1-.751-.518c-.032,0-.048-.018-.048-.051a1.066,1.066,0,0,1-.251-.931.149.149,0,0,1,.051-.1v-.051a.6.6,0,0,0-.252-.675.148.148,0,0,1-.048-.1.85.85,0,0,0-.751-.363,1.465,1.465,0,0,1-1.7-1.086h-.051l-.2-.518c-.033,0-.048-.018-.048-.053a46.76,46.76,0,0,0-2.6-6.155v-.053a10.354,10.354,0,0,0-.9-1.553,2.239,2.239,0,0,1-.4-2.481v-.053a9.211,9.211,0,0,0,.251-4.76,4.988,4.988,0,0,0-1.451-2.38l-1.6,1.4v.051a5.958,5.958,0,0,0-1.7,1.966,17.551,17.551,0,0,1-2.7,3.674l-.7.878h.051a10.38,10.38,0,0,0-1.751,3.314,34.923,34.923,0,0,0-1,4.5v.051a2.263,2.263,0,0,0,.2,1.449,2.147,2.147,0,0,1,.2,1.708.612.612,0,0,0,.3.776h.051a5.582,5.582,0,0,1,1.5,2.121.961.961,0,0,1-.1.931l-.3.208S-10100.483-626.017-10100.55-626.052Zm31.8-22.663v.053a14.192,14.192,0,0,1,.551,2.068v.1q.148,2.318.149,4.709a14.412,14.412,0,0,1-.251,2.276v.1a.932.932,0,0,0,.751,0,3.144,3.144,0,0,1,.051-.518,10.015,10.015,0,0,1,.348-3.156v-.051l.951-2.847v.053a19,19,0,0,1,1.3-3.415v.051a1.411,1.411,0,0,1,1.55-1.035h.051l.751-.1a3,3,0,0,1,2.248.416,2.778,2.778,0,0,0,1.451.414q1.37-.156,2.4-.363h.149a5.607,5.607,0,0,1,.649-.155h.1a1.471,1.471,0,0,1,1.3.31,1.13,1.13,0,0,1,.35.467,2.165,2.165,0,0,0,.5-.312.368.368,0,0,0,.1-.1v-.416a8.122,8.122,0,0,1-3.4-1.19,4.334,4.334,0,0,0-1.649-.414,1.851,1.851,0,0,1-1.051-.36,1.045,1.045,0,0,1-.449-1.035,4.02,4.02,0,0,1-.05-2.433v-.1a1.368,1.368,0,0,0-.2-1.033,3.9,3.9,0,0,1-.389-3.466,4.476,4.476,0,0,1,.339-1.135,10.784,10.784,0,0,0,.55-3.886v-2.794l.051-.568a2.6,2.6,0,0,1,1.2-1.553,2.107,2.107,0,0,1,1.85-.31.713.713,0,0,1,.649.36c.041.028.1.312.2.414a1.607,1.607,0,0,1,0,1.139q-.35.932-.4,1.086a3.557,3.557,0,0,0,.2,1.035l.6,2.329a1.139,1.139,0,0,1,.048.568l-.1.518c-.167.482-.284.794-.351.931l-.149.414a.591.591,0,0,0,.051.414l.348.931c.208.847,1.84.02,1.853,0,.127,0,.192-.048.4-.931v-.051c.616-1.532,1.634-4.415,1.651-4.45l.348-.518v-.051l1.152-1.035-.051-.1c.02-.038-.284-.951.2-1.5.022,0,.444-.381.551-.467.178-.053.243-.208.2-.464a.559.559,0,0,1,.1-.259l.249-.1.551-.155c.086-.137.185-.226.2-.259l-.1-.259-.3-.1c-.223-.046-.441-.1-.649-.155l-1.048-.88-.051-.051a3.437,3.437,0,0,1-.7-.723,10.852,10.852,0,0,0-1.951-2.07.927.927,0,0,1-.149-.1l-.149-.051a.561.561,0,0,1-.4-.157l-.548-.31-.2-.051a3.625,3.625,0,0,1-1.652-.571.585.585,0,0,1-.3.053h-.2a.96.96,0,0,1-.6-.208h-.149l-.649-.1-.2-.155v.053h-3.251a1.814,1.814,0,0,1-1.35.464h-.051a.971.971,0,0,0-.9.414l-.1.1.116-.282-.065.1,0,0-.1.232a5.233,5.233,0,0,1-1.5,1.086l-.2.051h-.051a.828.828,0,0,0-.5.518v.1a2.716,2.716,0,0,1-1.348,1.5,6.011,6.011,0,0,0-1.451,1.449l-.051.1a9.852,9.852,0,0,1-1.35,1.345l-2.751,2.484-.048.051a17.018,17.018,0,0,1-2.75,1.812,9.845,9.845,0,0,1-4.651.984h-.149a15.1,15.1,0,0,1-5.349-.726l.048.053-3.648-.776a8.714,8.714,0,0,0-3.2.31,18.4,18.4,0,0,0-3.6,1.6l-.051.053a4.26,4.26,0,0,1-1.751.515,1.3,1.3,0,0,1,.2.416v.051a2.293,2.293,0,0,1-.051,1.758v.053a.435.435,0,0,1-.15.206l-.2.259a3.5,3.5,0,0,0-.348,2.433v.1a30.99,30.99,0,0,0,1.348,5.587,12.259,12.259,0,0,1,.652,4.811v.053a9.38,9.38,0,0,1-1.9,5.07l-.051-.051v.1l-.1.1-.9.776v.83a1.313,1.313,0,0,0,.751-.053,11.247,11.247,0,0,1,1.048-1.6l.6-.723a.561.561,0,0,1,.35-.363,16.463,16.463,0,0,0,2.3-3.21,7.05,7.05,0,0,1,2.1-2.481l1.55-1.347v.053a.734.734,0,0,1,.3-.208v-.051l.217-.133a1.161,1.161,0,0,1,.433-.075.836.836,0,0,1,.6.208,6.132,6.132,0,0,1,2.2,3.311l.051.155a10.848,10.848,0,0,1-.3,5.536l-.1.208a.881.881,0,0,0,.2.827v.051l.149.312a.317.317,0,0,0,.1,0,2.153,2.153,0,0,0,1.1-.1,15.556,15.556,0,0,1,.1-2.484,7.8,7.8,0,0,1,.351-1.812v-.051a7.524,7.524,0,0,0,.3-1.294l.4-3.466v-.053l.051-.36a.216.216,0,0,0,.048-.1,1.337,1.337,0,0,1,.252-.363,1.069,1.069,0,0,0,.1-.31.766.766,0,0,1,.251-.776.631.631,0,0,1,.449-.31.731.731,0,0,1,.751.051l1.1.363.1.051a10.9,10.9,0,0,0,2.948.88,27.821,27.821,0,0,0,3.451.1q.441-.053,2.95-.416h-.051a3.645,3.645,0,0,1,1.5,0h-.051A2.386,2.386,0,0,1-10068.75-648.715Zm-29.9,6.468h.051l-.3-.259Zm-2.4-19.971h.049a2.615,2.615,0,0,0-1.4,1.035,3.5,3.5,0,0,0-.649,1.654,4,4,0,0,0,.7,2.484q.45.674,1.348,1.966a6.938,6.938,0,0,1,1.1,3.311,5.354,5.354,0,0,1-.5,2.433,7.167,7.167,0,0,1,.8,4.034,5.2,5.2,0,0,1-.8,2.847h.05l.749-.622a7.9,7.9,0,0,0,1.55-4.242,10.255,10.255,0,0,0-.6-4.242,34.543,34.543,0,0,1-1.451-5.95,5.116,5.116,0,0,1,.649-3.468l.2-.259a.975.975,0,0,0,.051-.672.8.8,0,0,0-.5-.36,4.11,4.11,0,0,0-.58-.043A3.043,3.043,0,0,0-10101.05-662.219Zm-2.5,13.194a1.581,1.581,0,0,1,.4.414v.053a5.068,5.068,0,0,1,.551,3.93,6.257,6.257,0,0,0,.1,2.174,3.767,3.767,0,0,0,.5-1.758v-.208a1.28,1.28,0,0,1,.4-.622,1.246,1.246,0,0,1,.5-.206.464.464,0,0,0,.051-.155v-.053a6.111,6.111,0,0,0-.649-3.26.856.856,0,0,1-.251-.619.688.688,0,0,1,.3-.622,4.832,4.832,0,0,0,.3-1.758,4.7,4.7,0,0,0-.853-2.484c-.6-.873-1.051-1.545-1.348-2.02v.053a5.169,5.169,0,0,1-.9-3.415v-.1a5.665,5.665,0,0,1,.8-2.431l.051-.053a5.032,5.032,0,0,1,1.949-1.4.6.6,0,0,1,.251-.1c.14-.041.273-.076.4-.1a10.389,10.389,0,0,0-1.649-.363h-.051a4.121,4.121,0,0,0-3.648,1.139l-.2.1a5.326,5.326,0,0,0-1.851,3.362l-.1.208v2.588l.5,1.449v.051a15.311,15.311,0,0,1,1,2.121,9.19,9.19,0,0,0,1.4,2.484l.048.155.051.155v-.1q.445.5,1.251,1.288a1.227,1.227,0,0,1,.281-.036A.623.623,0,0,1-10103.549-649.025Zm48.049,5.744h.051l.048-.053Zm-34.85-6.625v0Zm37.049-.259v-.051Zm-52.25-.31.051.051v.006Zm15.252-.051-.034.021c-.023.009-.046.019-.067.029Z" transform="translate(10110 678)"/>
    </g>
  </g>
</svg>
