<svg id="f1" xmlns="http://www.w3.org/2000/svg" width="64" height="64" viewBox="0 0 64 64">
  <g id="그룹_1373" data-name="그룹 1373">
    <g id="그룹_1372" data-name="그룹 1372">
      <path id="패스_765" data-name="패스 765" d="M0,0V64H64V0Z" fill="rgba(255,255,255,0)"/>
    </g>
  </g>
  <g id="그룹_1375" data-name="그룹 1375" transform="translate(0 18)">
    <g id="그룹_1374" data-name="그룹 1374">
      <path id="패스_766" data-name="패스 766" d="M418.3,401.6v-.2l13.5-1-13.9-.9-5.3,7.6,15.3-1-12.1-.9,13.5-.9v-.1l-12.2-.8,13.5-.9v-.1l-12.3-.8m.7-11.3v-.2l20.3-.9-19-.9,20.4-.9-19.2-.9,20.5-.9v-.2l-19.1-.8,20.3-1-19.2-.8,20.3-1-20.8-1-12.7,18.9,22.3-1.1-19.1-.8,20.3-1v-.1l-19-.8,20.4-1v-.2l-19.2-.7v-.1l20.3-.8v-.2l-19-.7v-.1l20.3-1,.1-.1-19.2-.7m-24.2,9.5,6.6-.1,4.8-7.2h-6.6l3.3-4.9q6.8,0,13.2-6.8H398.2l-17.8,26.3h9.4Z" transform="translate(-380.4 -380.8)"/>
    </g>
  </g>
</svg>
