<svg id="financials" xmlns="http://www.w3.org/2000/svg" width="64" height="64" viewBox="0 0 64 64">
  <g id="그룹_1455" data-name="그룹 1455">
    <g id="그룹_1454" data-name="그룹 1454">
      <path id="패스_800" data-name="패스 800" d="M0,0V64H64V0Z" fill="rgba(255,255,255,0)"/>
    </g>
  </g>
  <g id="그룹_1457" data-name="그룹 1457">
    <g id="그룹_1456" data-name="그룹 1456">
      <path id="패스_801" data-name="패스 801" d="M102.55,494.4a2.1,2.1,0,0,0-1.1.7l-1,1a4.529,4.529,0,0,0-1.6.3q-.6.2-.6,1.4a6.546,6.546,0,0,0,3,4.7l-.1.6q0,1.086,1,1.1a.956.956,0,0,0-1,.8v.2l.1.6A128.974,128.974,0,0,0,83.95,521q-11,11.9-11,21,0,11.8,9.3,14.8,4.7,1.6,22.6,1.6,18,0,22.8-1.6,9.3-3,9.3-14.8,0-9.1-11-21a126.936,126.936,0,0,0-17.5-15.2l.3-.6q0-.773-1.1-1a.863.863,0,0,0,1.1-.8v-.3l-.3-.6a5.847,5.847,0,0,0,3-4.7q0-1.4-.6-1.6a5.958,5.958,0,0,1-1.8-.1q-.4,0-1-.9-.8-.8-1.2-.8a3.537,3.537,0,0,0-1.3.7q-.4.6-.8.6a1.234,1.234,0,0,1-.9-.6,1.531,1.531,0,0,0-1.3-.7m1.3,24.8h4v4a10.571,10.571,0,0,1,6,3.5l-3.1,3.5a7.022,7.022,0,0,0-4.3-2q-2.9,0-2.9,2.5,0,1.3,5.3,4,5.3,2.5,5.3,6.8a6.978,6.978,0,0,1-1.5,5.2,7.334,7.334,0,0,1-4.8,2.7v4.1h-4v-4a11.025,11.025,0,0,1-7.1-3.1l2.7-4.1a9.444,9.444,0,0,0,5.6,2.2q3.1,0,3.1-2.5,0-1.5-5.1-4.2-5.3-2.8-5.3-6.8a6.88,6.88,0,0,1,6.1-7.6Z" transform="translate(-72.95 -494.4)"/>
    </g>
  </g>
</svg>
