<svg id="fotsal" xmlns="http://www.w3.org/2000/svg" width="64" height="64" viewBox="0 0 64 64">
  <g id="그룹_1392" data-name="그룹 1392">
    <g id="그룹_1391" data-name="그룹 1391">
      <path id="패스_773" data-name="패스 773" d="M0,0V64H64V0Z" fill="rgba(255,255,255,0)"/>
    </g>
  </g>
  <g id="그룹_1394" data-name="그룹 1394">
    <g id="그룹_1393" data-name="그룹 1393">
      <path id="패스_774" data-name="패스 774" d="M634.65,373.25l-3.2,1a28.13,28.13,0,0,0-10.2,6.4l-4.9,5.4h.2l-1.3,2-2.2,4.7-.8,2.5-1,5-.3,3.8.3,4.6.8,3.6,1.8,5.2,2.3,4,5.1,6.1,4.7,3.6.2.2q2.3,1.3,5.7,2.8l6.2,1.5,4.9.4,5-.4,6.1-1.5a33.633,33.633,0,0,0,13.9-10.1l1.8-2.6a30.233,30.233,0,0,0,5.2-16.4l-.2-4.8-1.9-7.6-1.4-3.1-3.9-5.8h-.1l-2.6-3.1a34.432,34.432,0,0,0-10.5-6.4l-2.9-1-8.5-1.2-5.1.6a11.815,11.815,0,0,0-3.2.6m9.5,20.1v-10.5l7.5-5.4a25.761,25.761,0,0,1,13.8,9.8l-2.9,8.2-9.3,4.7-9.1-6.8m-6.9-16.9a34.722,34.722,0,0,1,5.7-.5,28.3,28.3,0,0,1,5.7.5l-5.7,4.2-5.7-4.2m4.4,6.4v10.3l-9,7-9.3-4.7-2.9-8.2h-.1a26.788,26.788,0,0,1,13.8-9.8l7.5,5.4m-26.8,20.8,8.1-5.6,8.7,4.5,3.5,10.3-5.5,7.9-9.2.1a26.583,26.583,0,0,1-5.6-16.8v-.4m6-7.3-5.8,4.1a30.31,30.31,0,0,1,3.6-10.6l2.2,6.5m13.3,5.7,8.8-6.5,8.7,6.5-3.3,9.6h-10.9l-3.3-9.6m20,.5,8.8-4.5,8.2,5.6v.4a26.808,26.808,0,0,1-5.7,16.8l-9-.1-5.7-7.9,3.4-10.3m16.6-2.1-5.8-4.1,2.3-6.5a28.823,28.823,0,0,1,3.5,10.6m-33.5,13.9h11.5l5.4,7.9-2.6,8.6a26.526,26.526,0,0,1-17.3,0l-2.7-8.6,5.7-7.9m26.2,9a33.576,33.576,0,0,1-8.8,6.3l2.1-6.4,6.7.1m-34.3-.1,2.1,6.3a26.521,26.521,0,0,1-8.7-6.2Z" transform="translate(-610.95 -372.05)"/>
    </g>
  </g>
</svg>
