<svg id="gaelicsports" xmlns="http://www.w3.org/2000/svg" width="64" height="64" viewBox="0 0 64 64">
  <g id="그룹_1532" data-name="그룹 1532">
    <g id="그룹_1531" data-name="그룹 1531">
      <path id="패스_832" data-name="패스 832" d="M0,0V63.891H63.947V0Z" fill="rgba(255,255,255,0)"/>
    </g>
  </g>
  <g id="그룹_1534" data-name="그룹 1534" transform="translate(0.048)">
    <g id="그룹_1533" data-name="그룹 1533">
      <path id="패스_833" data-name="패스 833" d="M259.4,593.284h-.1a12.246,12.246,0,0,0-8.993,3.694,12.557,12.557,0,0,0-3.7,9.084,11.285,11.285,0,0,0,3.7,8.985,12.2,12.2,0,0,0,9.092,3.794,12.962,12.962,0,0,0,12.789-12.778A12.62,12.62,0,0,0,259.4,593.284m-3.8,2.1,3-.6a19.983,19.983,0,0,0-.7,5.59,19.226,19.226,0,0,0,.7,5.391,17.154,17.154,0,0,1-2.4,2.2,12.953,12.953,0,0,1-1.4-6.988,19.213,19.213,0,0,1,.8-5.491v-.1m-5.1,3.694a26.211,26.211,0,0,0-.3,3.893,18.442,18.442,0,0,0,1.4,7.487l-2.3.7a11.225,11.225,0,0,1-1.2-5.091,11.388,11.388,0,0,1,2.4-6.988m8.393,2.4.1-2.995a15.152,15.152,0,0,1,6.894,2.3,16.868,16.868,0,0,1,4.7,3.893v2.7a20.453,20.453,0,0,0-4.2-3.294,15.592,15.592,0,0,0-7.494-2.6M252,597.577a12.433,12.433,0,0,1,2.4-1.6,20.489,20.489,0,0,0-.6,4.991,15.658,15.658,0,0,0,1.5,7.587l-1.1.7-1.6.7a16,16,0,0,1-1.4-6.988,20.33,20.33,0,0,1,.8-5.391m-.1,16.771a13.373,13.373,0,0,1-2-2.3,18.377,18.377,0,0,0,4.8-2,17.747,17.747,0,0,0,4.5-3.394l3,1a13.293,13.293,0,0,1-5.5,4.792,14.108,14.108,0,0,1-4.8,1.9m7.494,2.9a9.488,9.488,0,0,1-2.2-.2,16.766,16.766,0,0,0,3.7-1.6,14.767,14.767,0,0,0,5.8-4.991l2,1.9a11.983,11.983,0,0,1-3.9,3.594,11.532,11.532,0,0,1-5.4,1.3m-6.495-2a27.982,27.982,0,0,0,4.4-1.9,13.7,13.7,0,0,0,5.8-5.191l2.7,1.5a16.162,16.162,0,0,1-5.4,4.991,19.093,19.093,0,0,1-5,1.8,12.129,12.129,0,0,1-2.5-1.2m11.89-7.387a16.093,16.093,0,0,0-5.2-2.1v-.1l-.6-3.095a14.064,14.064,0,0,1,6.894,2.4,16.666,16.666,0,0,1,4.5,3.594,11.141,11.141,0,0,1-1.1,2.9,15.751,15.751,0,0,0-4.5-3.594m5.4-5.191a29.132,29.132,0,0,0-3.8-2.8,15.939,15.939,0,0,0-7.294-2.5l.7-2.6a11.99,11.99,0,0,1,6.495,2.3,11.43,11.43,0,0,1,3.9,5.59m-25.579-45.622q-.9,1-.9,1.4a.9.9,0,0,0,.5.8,1.467,1.467,0,0,0,1.4-.1q1.6-1,2.5-.4l1.9,2.2L256.6,572.12l-1.8,2.9q-11.69,16.272-20.383,17.869-8.693,1.8-7.993,5.99a4.468,4.468,0,0,0,1.6,2.995,4.413,4.413,0,0,0,3.1,1.2l2.5.1a9.561,9.561,0,0,0,2.8-.3q5.6-.7,7.394-3.394,1.1-1.3,11.79-19.666l2.8-4.592,2.7,4.592q10.491,17.969,11.89,19.666,1.6,2.6,7.294,3.394a14.776,14.776,0,0,0,2.9.3l2.5-.1a4.412,4.412,0,0,0,3.1-1.2,4.1,4.1,0,0,0,1.5-2.995q.7-4.193-7.894-5.99-8.693-1.6-20.383-17.869l-1.9-2.9,6.695-11.181a14.169,14.169,0,0,1,1.9-2.2q.8-.6,2.4.3a1.236,1.236,0,0,0,1.5.2,1.15,1.15,0,0,0,.4-.8q.2-.3-.9-1.4l-2.4-1.7q-1.5-.9-2.3.3-1.3,1.7-8.993,13.677l-9.192-13.976a1.352,1.352,0,0,0-2.1,0Z" transform="translate(-226.374 -554.85)"/>
    </g>
  </g>
</svg>
