<svg xmlns="http://www.w3.org/2000/svg" width="64" height="64" viewBox="0 0 64 64">
  <g id="golf" transform="translate(0 0.012)">
    <g id="그룹_1480" data-name="그룹 1480" transform="translate(0 0.012)">
      <g id="그룹_1479" data-name="그룹 1479">
        <path id="패스_811" data-name="패스 811" d="M0,0V63.975H64V0Z" fill="rgba(255,255,255,0)"/>
      </g>
    </g>
    <g id="그룹_1482" data-name="그룹 1482" transform="translate(8 -0.012)">
      <g id="그룹_1481" data-name="그룹 1481">
        <path id="패스_812" data-name="패스 812" d="M470,495.412l-1.6-1.6a1.384,1.384,0,0,0-1.7,1.2v58.777h-3.6q-1.4,0-1.4,1.5,0,1.7,1.4,1.7h10.5a1.63,1.63,0,0,0,1.2-.4,2.016,2.016,0,0,0,.4-1.3l-.4-1.1a1.63,1.63,0,0,0-1.2-.4H470V524.5q1.4-.5,17.8-6.5,8-2.9,20.3-7.9a1.358,1.358,0,0,0,.9-1.6q0-1.2-1.3-1.3a354.634,354.634,0,0,0-37.7-10.8v-1m0,4.4,32.7,9.3L470,521.3Z" transform="translate(-461.7 -493.788)"/>
      </g>
    </g>
    <g id="그룹_1484" data-name="그룹 1484" transform="translate(30 45.995)">
      <g id="그룹_1483" data-name="그룹 1483">
        <path id="패스_813" data-name="패스 813" d="M481.7,516.8a8.878,8.878,0,0,0-9,9,9.533,9.533,0,0,0,2.7,6.3,8.944,8.944,0,0,0,6.3,2.7,9.417,9.417,0,0,0,9-9,8.741,8.741,0,0,0-2.7-6.4,8.582,8.582,0,0,0-6.3-2.6m-2.8,2.8a6.694,6.694,0,0,1,5.2-.1,6.35,6.35,0,0,1,3.7,3.6l-.2-.1-.6.3a.729.729,0,0,0,0,1.1q.6.6,1.1,0l.1-.1a4.622,4.622,0,0,1,0,3l-.1-.1a.831.831,0,0,0-.8-.2q-.7.2-.5,1,.2.9,1,.5a6.5,6.5,0,0,1-3.4,3.4.653.653,0,0,0-.2-.8.729.729,0,0,0-1.1,0,.75.75,0,0,0,0,1.2l.1.1a7.569,7.569,0,0,1-3,0l.1-.1a.841.841,0,0,0,0-1.2l-.6-.2a.707.707,0,0,0-.8.8v.2a6.5,6.5,0,0,1-3.4-3.4,6.7,6.7,0,0,1-.1-5.2,6.38,6.38,0,0,1,3.5-3.7m6.1,10.7.6.2.6-.2q.6-.5,0-1.1-.4-.6-1.2,0a.729.729,0,0,0,0,1.1m-3.3.2.5-.2q.7-.5,0-1.1-.5-.6-1.1,0a.729.729,0,0,0,0,1.1l.6.2m2.5-2.2q.6-.5,0-1.1a.778.778,0,0,0-1.1,1.1.588.588,0,0,0,.5.3q.5,0,.6-.3m2-3.1a.848.848,0,0,0-1.2,1.2l.6.2.6-.2A.841.841,0,0,0,486.2,525.2Z" transform="translate(-472.7 -516.8)"/>
      </g>
    </g>
  </g>
</svg>
