<svg id="greyhound" xmlns="http://www.w3.org/2000/svg" width="64" height="64" viewBox="0 0 64 64">
  <g id="그룹_1537" data-name="그룹 1537">
    <g id="그룹_1536" data-name="그룹 1536">
      <path id="패스_834" data-name="패스 834" d="M0,0V64H64V0Z" fill="rgba(255,255,255,0)"/>
    </g>
  </g>
  <g id="그룹_1539" data-name="그룹 1539" transform="translate(0 5.991)">
    <g id="그룹_1538" data-name="그룹 1538">
      <path id="패스_835" data-name="패스 835" d="M190.45,573a84.161,84.161,0,0,1-15.3,1.3,27.389,27.389,0,0,0-8.1,1.2l-2.3,1.1a11.671,11.671,0,0,0-5,.5,5.8,5.8,0,0,0-3.2,1.4,5.618,5.618,0,0,0-1.7,2.9,11.771,11.771,0,0,0,.2,5.7,12.189,12.189,0,0,0,2.7,4.9v.3a11.073,11.073,0,0,1-.5,3.1,3.54,3.54,0,0,1-1.7,1.6q-4.9,2.8-4.9,3.8l-.3.6-.1,10a.976.976,0,0,0,.2.7.806.806,0,0,0,.6.4h4.2l.9-.5q.3-.3,0-.9v-.3a3.808,3.808,0,0,0-1.8-2q.5-5.9,2.9-7.1l3.6-2.1a5.435,5.435,0,0,1,.2,2.9.555.555,0,0,0,.1.7l.7.3h.2q.8,0,.8-.7a8.352,8.352,0,0,0-.3-4.6l.9-.6a13.867,13.867,0,0,0,4.8-6.8l.7-2.4a4.378,4.378,0,0,1,2-1.8,3.194,3.194,0,0,1,2.7.2l9.7,4.6a17.252,17.252,0,0,0,7.8,1.9,27.925,27.925,0,0,1,.3,12.2,2.476,2.476,0,0,0,.4,2.3l1.7,3.9a.982.982,0,0,0,.9.5h4a.709.709,0,0,0,.7-.5q.6-.4,0-1.1l-.2-.6a3.555,3.555,0,0,0-1.8-1.5l-.5-1.8.8-14a5.861,5.861,0,0,1,.7-2.6,15.374,15.374,0,0,0,2.2-8.6,23.611,23.611,0,0,1,4-12.4l5.4.3a3.407,3.407,0,0,0,3.7-2l.6-.9.1-.9q-.3-.6-.7-.6l-4.7-1.8-.8-1.5a1.549,1.549,0,0,0-1.2-1l-4.5-1a2.63,2.63,0,0,0-3.2,1.3l-6.6,10.6a2.6,2.6,0,0,1-2,1.4m-32.6,15.4a9.972,9.972,0,0,1-1.2-6.5q.6-2.6,4.9-3.2a13.608,13.608,0,0,0-3.4,6.4Z" transform="translate(-150.25 -559.596)"/>
    </g>
  </g>
</svg>
