<svg id="handball" xmlns="http://www.w3.org/2000/svg" width="64" height="64" viewBox="0 0 64 64">
  <path id="패스_816" data-name="패스 816" d="M0,0V64H64V0Z" fill="rgba(255,255,255,0)"/>
  <path id="패스_817" data-name="패스 817" d="M673.25,516.986a1.514,1.514,0,0,0-1.2.6,1.607,1.607,0,0,0-.4,1.3v12.792q0,2-2.3,2-2.4,0-2.2-2V512.888a.81.81,0,0,0-.4-1v-.1a2.286,2.286,0,0,0-1.3-.5,1.637,1.637,0,0,0-1.2.5v.1a.923.923,0,0,0-.6,1v16.789a1.657,1.657,0,0,1-1.5,2.1h-.5q-2.4,0-2.4-2.1V510.889a1.513,1.513,0,0,0-.6-1.2l-.5-.4h-.6a1.141,1.141,0,0,0-1.2.4,2.553,2.553,0,0,0-.5,1.2v18.788q0,2.1-2.2,2.1-1.4,0-1.8-.7a2.185,2.185,0,0,1-.4-1.4V514.987a1.513,1.513,0,0,0-.6-1.2,1.637,1.637,0,0,0-1.2-.5,1.8,1.8,0,0,0-1.7,1.7v24.385l-.1.9-.7.4a.659.659,0,0,1-.7,0l-.4-.3-.3-.1-3.9-5.6a2.3,2.3,0,0,0-1.7-1.2h-.2a1.346,1.346,0,0,0-1.7.2v-.1a2.412,2.412,0,0,0-1,1.7,2.666,2.666,0,0,0,.6,1.8l9,13.991a16.116,16.116,0,0,0,6.3,5.3,16.581,16.581,0,0,0,8,1.6,13.319,13.319,0,0,0,11.9-5.2,15.845,15.845,0,0,0,1.9-7.5V518.884a1.783,1.783,0,0,0-.4-1.3,2.629,2.629,0,0,0-1.3-.6M629.05,494.8l-2.4.8a20.554,20.554,0,0,0-7.9,4.9l-3.7,4.3h.1l-1,1.4-.9,1.8-2.3,7.5.2,6.6.5,2.6,1.5,4,1.7,3.2,3.5,4.2.5.3a8.739,8.739,0,0,0,2,1.8l1.5,1.1h.2a22.537,22.537,0,0,0,4.4,2.2l8.5,1.6,2.9-.5-1.8-2.6-1.1.1a20.486,20.486,0,0,1-6.5-1.1l-2.1-6.5,4.2-6.3h8.9l4.3,6.3-.3.8v.3h-.1l1.5,2,.3-.7v-4.1l-4.1-5.7,2.7-7.9,1.4-.6v-2.2l-2.3,1.1-6.8-5.3v-7.9l5.7-4.3a22.013,22.013,0,0,1,10.6,7.5l-2.1,5.6a4.611,4.611,0,0,1,1.7.9l1.8-4.4.3.5v-.1a3.983,3.983,0,0,1,2.6-1l-2.8-4.1-2.1-2.4a22.131,22.131,0,0,0-8-4.9l-2.3-.8-6.5-.8-3.9.4a7.29,7.29,0,0,0-2.5.4m6.4,2.1a15.533,15.533,0,0,1,4.5.5l-4.5,3.1-4.3-3.1a13.79,13.79,0,0,1,4.3-.5m0,14.991,6.8,5-2.6,7.5h-8.2l-2.7-7.5,6.7-5M628.75,498l5.7,4.3v7.8l-6.9,5.4-7.1-3.6-2.2-6.4a20.415,20.415,0,0,1,10.5-7.5m-15,20.387v-.2l6.3-4.4,6.8,3.4,2.6,7.9-4.3,6.1-7,.2a20.176,20.176,0,0,1-4.4-12.992m.3-2.8a20.441,20.441,0,0,1,2.8-7.995l1.6,5-4.4,3m10.8,17.589,1.6,4.8a20.742,20.742,0,0,1-6.7-4.7Z" transform="translate(-610.95 -494)"/>
</svg>
