<svg xmlns="http://www.w3.org/2000/svg" width="64" height="64" viewBox="0 0 64 64">
  <g id="hockey" transform="translate(0.014)">
    <g id="그룹_1413" data-name="그룹 1413" transform="translate(0.014)">
      <g id="그룹_1412" data-name="그룹 1412">
        <path id="패스_782" data-name="패스 782" d="M0,0V64H63.971V0Z" fill="rgba(255,255,255,0)"/>
      </g>
    </g>
    <g id="그룹_1415" data-name="그룹 1415" transform="translate(-0.014)">
      <g id="그룹_1414" data-name="그룹 1414">
        <path id="패스_783" data-name="패스 783" d="M614.513,432.4a3.519,3.519,0,0,0-2.7,1.2,3.7,3.7,0,0,0-.9,2.7,2.979,2.979,0,0,0,1,2.6l.2.2a3.443,3.443,0,0,0,2.5,1.1h.3L638.6,465.1l-14.793,14.4a3.271,3.271,0,0,1-2.4,1,3.056,3.056,0,0,1-2.2-1,3.874,3.874,0,0,1-1-2.3,4.863,4.863,0,0,1,1-2.4,3.446,3.446,0,0,0,1.1-2.5,3.671,3.671,0,0,0-1.1-2.7,3.273,3.273,0,0,0-2.6-1.1,3.385,3.385,0,0,0-2.7,1.1,9.715,9.715,0,0,0-3,7.6,10.429,10.429,0,0,0,10.5,10.9,10.447,10.447,0,0,0,7.7-3.1L643.2,470l13.294,14.1a9.285,9.285,0,0,0,7.5,3.1,9.518,9.518,0,0,0,7.7-3.1,10.384,10.384,0,0,0,3.2-7.6,10.616,10.616,0,0,0-3.2-7.8,4,4,0,0,0-2.8-1,3.389,3.389,0,0,0-2.5,1,3.8,3.8,0,0,0-1.1,2.9,2.676,2.676,0,0,0,1.1,2.5,3.274,3.274,0,0,1,1,2.4,3.163,3.163,0,0,1-1,2.3,3.271,3.271,0,0,1-2.4,1,3.759,3.759,0,0,1-2.2-1L647.7,465.2l22.59-23.7.3-.4.1-.2h.1a3.1,3.1,0,0,0,2.7-1l.1-.3a3.251,3.251,0,0,0,0-5.2,2.723,2.723,0,0,0-2.5-1.3,4.057,4.057,0,0,0-2.6,1.3h-.3a4.259,4.259,0,0,0-1.1,2.8v.2L643.2,460.7l-24.789-24v-.3a3.671,3.671,0,0,0-1.1-2.7v-.1A5.3,5.3,0,0,0,614.513,432.4Z" transform="translate(-610.886 -432.4)"/>
      </g>
    </g>
    <g id="그룹_1417" data-name="그룹 1417" transform="translate(25.597 4.2)">
      <g id="그룹_1416" data-name="그룹 1416">
        <path id="패스_784" data-name="패스 784" d="M630.1,434.5a6.225,6.225,0,0,0-4.6,1.8,6.321,6.321,0,0,0-1.8,4.6,5.823,5.823,0,0,0,1.6,4.4,6.071,6.071,0,0,0,4.3,2h.5a6.484,6.484,0,0,0,6.4-6.4,6.971,6.971,0,0,0-2-4.6A6.434,6.434,0,0,0,630.1,434.5Z" transform="translate(-623.697 -434.5)"/>
      </g>
    </g>
  </g>
</svg>
