<svg xmlns="http://www.w3.org/2000/svg" width="64" height="64" viewBox="0 0 64 64">
  <g id="horse_racing" transform="translate(0.274 0.464)">
    <path id="패스_775" data-name="패스 775" d="M0,0V64H64V0Z" transform="translate(-0.274 -0.464)" fill="rgba(255,255,255,0)"/>
    <g id="그룹_3657" data-name="그룹 3657" transform="translate(-688.924 -373)">
      <g id="그룹_252" data-name="그룹 252" transform="translate(688.65 372.536)">
        <path id="패스_127" data-name="패스 127" d="M724.669,376.7h-.206l-10.217,1.962a1.14,1.14,0,0,1-.619-.1,1.21,1.21,0,0,1-.516-.413,7.921,7.921,0,0,0-2.89-2.582,1.123,1.123,0,0,1-.206-.207l-.1-.1a5.229,5.229,0,0,1-2.271-2.066v-.1a.957.957,0,0,0-1.135-.516,1.051,1.051,0,0,1-.206,0,1.1,1.1,0,0,0-.929.516l-.206,3.409a19.124,19.124,0,0,0,.31,5.371.616.616,0,0,1,0,.516.444.444,0,0,1-.206.413l-5.16,5.784a2.96,2.96,0,0,0-.619,1.962.725.725,0,0,1-.207.62.684.684,0,0,1-.516.413l-.516.31.413-.207-6.812,7.54.1-.207a5.461,5.461,0,0,1-2.786,2.376,1.135,1.135,0,0,0-.31.93.439.439,0,0,1,0,.1l-.206,3.305q.015,3.267,1.651,4.235l.516.1,1.858-.207a.856.856,0,0,1,.723.207,4.012,4.012,0,0,0,3.1.826l.619-.31a21.806,21.806,0,0,0,2.786-3,1.113,1.113,0,0,1,.723-.413,13.034,13.034,0,0,0,5.883-2.272,1.717,1.717,0,0,1,.619-.1h5.057a14.748,14.748,0,0,0,3.715-.826,1.852,1.852,0,0,1,.619,0,1.345,1.345,0,0,1,.516.413,1.062,1.062,0,0,1,.206.62v.31a.3.3,0,0,1-.1.207,19.186,19.186,0,0,1-1.858,5.164q-.048.052-.1.1a25.364,25.364,0,0,0-2.064,3.409l-.1.1q-2.5,4.593-4.231,8.469h0a32.317,32.317,0,0,0-3.2,12.6,1.231,1.231,0,0,0,.619,1.033,1.677,1.677,0,0,0,1.342,0,.118.118,0,0,0,.1,0L740.253,417.7a1.07,1.07,0,0,0,.619-.826v-.31a1.825,1.825,0,0,1,.1-.62,1.931,1.931,0,0,1,.516-.31l10.321-4.751a1.689,1.689,0,0,0,.826-.62,1.6,1.6,0,0,0-.207-.929,1.3,1.3,0,0,1-.1-.207.931.931,0,0,0-.413-.516,1.443,1.443,0,0,0-.722-.1l-9.185,2.892a.718.718,0,0,1-.619,0,.788.788,0,0,1-.516-.31.944.944,0,0,1-.207-.516l-.413-3.1a1.258,1.258,0,0,1,.1-.62,1.21,1.21,0,0,1,.516-.413l8.463-3.718a1.263,1.263,0,0,1,.31-.1.464.464,0,0,0,.413-.31.3.3,0,0,0,.1-.1.568.568,0,0,0,.1-.516l-.206-.516a.12.12,0,0,0,0-.1.867.867,0,0,0-1.135-.723l.1-.1-8.979,2.582a.814.814,0,0,1-.722,0,1.39,1.39,0,0,1-.516-.62l-.929-2.685a1.108,1.108,0,0,1,.1-.723.911.911,0,0,1,.516-.516l7.534-3.2v-.1a.874.874,0,0,0,.619-1.343l.31.413-.1-.207a1.628,1.628,0,0,1-.31-.413,1.022,1.022,0,0,0-.619-.62,1.144,1.144,0,0,0-.826-.1H745l-8.36,2.376a.678.678,0,0,1-.619,0,.981.981,0,0,1-.516-.516l-.31-.62-.1-.1a2.457,2.457,0,0,1-.207-.207l-.826-1.239a1.035,1.035,0,0,1-.1-.516,1.709,1.709,0,0,1,.1-.62,1.772,1.772,0,0,1,.516-.31l6.605-2.789a1.285,1.285,0,0,1,.31-.1.464.464,0,0,0,.413-.31.731.731,0,0,0,.1-.723v-.1l-.1-.413a1.137,1.137,0,0,0-1.445-.826.279.279,0,0,1-.206.1l-.206.1.206-.1-8.669,2.479a.556.556,0,0,1-.516,0,.653.653,0,0,1-.413-.207L728.8,386.2a1.022,1.022,0,0,1-.31-.62,1.243,1.243,0,0,1,.1-.62,1.191,1.191,0,0,1,.516-.413l5.16-2.169a1.06,1.06,0,0,0,.619-.723h.1a1.154,1.154,0,0,0,0-.93q-.028,0-.1-.1a1.155,1.155,0,0,0-.516-.62q0,.026-.1,0a1.9,1.9,0,0,0-.826-.1l-9.082,2.685a1.015,1.015,0,0,1-.826,0l-1.651-.723a1.5,1.5,0,0,1-.413-.413,1.451,1.451,0,0,1-.1-.62,1.754,1.754,0,0,1,.206-.62,4.041,4.041,0,0,1,.516-.31l2.993-.826a.527.527,0,0,0,.207,0,.754.754,0,0,0,.516-.516.746.746,0,0,0,.206-.723,1.823,1.823,0,0,1-.1-.413.92.92,0,0,0-.413-.62,1.494,1.494,0,0,0-.826-.1m-13,4.235q.08.1.1.1a.707.707,0,0,0,.619.516q.131.071.206.1a1.375,1.375,0,0,0,1.032.1q.149-.057.31-.1l.516.1q.16.048.31.1l8.463,3.512-.31-.1.31.1q.192.057.309.1a1.038,1.038,0,0,1,.31.31l.31.413,2.064,1.446c.071.03.106.064.1.1l2.993,3.1.31.207a.628.628,0,0,1,.31.31.439.439,0,0,1,.1.413.662.662,0,0,1,.206.1l.826.93a.292.292,0,0,1,.1.207l2.993,4.958a.746.746,0,0,1,.1.1l.206.62h0l.516,1.033h0L736.744,405l.31.723a.535.535,0,0,1,0,.31v.413l.826,5.577v1.239l.31,1.033a.6.6,0,0,1,0,.413.442.442,0,0,1-.207.31v.31a.46.46,0,0,1-.1.413.358.358,0,0,1-.31.207l-27.35,15.6a.5.5,0,0,1-.516.1.9.9,0,0,1-.516-.413.935.935,0,0,1-.1-.516,48.851,48.851,0,0,1,2.374-6.817,90.6,90.6,0,0,1,4.335-8.469h0q1.6-2.633,1.961-3.408h0a26.92,26.92,0,0,0,2.167-6.507l.31-1.549a.491.491,0,0,0,.1-.207,5.984,5.984,0,0,0,.206-2.892v-.1a1.812,1.812,0,0,0-1.135-1.446l.1.1-.826-.207a2.817,2.817,0,0,0-1.548.826h0A7.049,7.049,0,0,1,712.078,402H706.5a6.041,6.041,0,0,0-1.135.516,14.321,14.321,0,0,1-6.5,2.169h0a1.526,1.526,0,0,0-1.032.723,7.557,7.557,0,0,1-1.754,2.272.522.522,0,0,1-.516.207.43.43,0,0,1-.413-.1l-.516-.31a.757.757,0,0,1-.309-.31.485.485,0,0,0-.413-.31h-.1a12.088,12.088,0,0,0-1.342,0,.659.659,0,0,1-.413,0,1.039,1.039,0,0,1-.31-.207l-.1-.207a.963.963,0,0,1-.1-.31.933.933,0,0,1-.1-.31l.206-2.376a1.432,1.432,0,0,1,.31-.516l1.961-1.756,7.018-7.54v.1l1.239-1.756V390.95a1.5,1.5,0,0,1,.206-.516l5.264-5.991a1.793,1.793,0,0,1,.413-.31q.987-.113.826-1.033.038-.183.1-.413a.825.825,0,0,0-.31-.826.8.8,0,0,1-.31-.413l-.31-2.479a1.013,1.013,0,0,1,.1-.413,1.216,1.216,0,0,1,.31-.413,3.1,3.1,0,0,1,.413-.1.775.775,0,0,1,.413.207A8.176,8.176,0,0,1,711.665,380.931Z" transform="translate(-688.65 -372.536)"/>
      </g>
    </g>
  </g>
</svg>
