<svg xmlns="http://www.w3.org/2000/svg" width="64" height="64" viewBox="0 0 64 64">
  <g id="kabaddi" transform="translate(-9538 586)">
    <rect id="사각형_1039" data-name="사각형 1039" width="64" height="64" transform="translate(9538 -586)" fill="#f0e" opacity="0"/>
    <path id="패스_3206" data-name="패스 3206" d="M23.474,29.16c-.149.585-.283,1.118-.359,1.535-1.243-.124-2.61-.373-3.977-.621.374-.87,1.367-4.847,1.119-5.965-.994-4.226-3.355-7.581-7.953-7.581v0c0,6.71-3.6,13.919-11.309,13.919C.621,29.08.373,27.713,0,26.346l.373-.373H.745c.5,0,.5-.124.995-.124,2.237-.373,5.095-2.362,5.593-4.6.621-3.355-.248-7.084.621-10.067C10.315,3.6,15.907,1.243,22.12,2.237a4.679,4.679,0,0,0,.124,2.61c1.367,3.729,3.977,7.084,8.327,7.457v3.409c.186,3.1,1.2,5.7,5.467,6.906.87-.124,1.864-.248,2.61-.374.124.125,1.367,1.119,1.491,1.243,2.236,1.491,5.095,1.243,7.457-.745a6.684,6.684,0,0,0-2.858-3.6c-1.864-1.118-6.089-1.988-8.327-.373-.745-1.243-.994-1.988-1.616-3.231,5.344-3.231,14.416.124,17.274,5.717a22.893,22.893,0,0,1,.87,2.361l.124.995c1.988,1.74,2.486,1.615,2.486,1.615,3.231,1.119,4.847,1.491,8.45.745-.994,4.226-.745,3.6-.994,3.853-.248.373-6.338,1.615-11.557-2.734a6.527,6.527,0,0,1-1.74,1.491A11.941,11.941,0,0,1,39.642,30.7a12.55,12.55,0,0,0-1.864-.87c-.869.87-5.467,1.74-6.089,1.865a11.535,11.535,0,0,1-1.43.09A9.835,9.835,0,0,1,23.474,29.16Zm6.6-2.193c1.367.125,3.729-.124,4.225-.994l-.745-.248c-2.61-.5-5.841-2.858-6.711-5.344a14.492,14.492,0,0,1-.9-4.836c-3.208-1.342-6.31-4.273-7.305-7.094-1.491,0-4.35,2.733-4.35,4.1,5.943,0,9.469,5.782,9.9,11.157A8.382,8.382,0,0,0,30.074,26.967Zm22.121-6.71a3.554,3.554,0,0,1,3.479-3.479,3.479,3.479,0,1,1-3.479,3.479ZM22.37,3.479a3.479,3.479,0,1,1,6.959,0,3.4,3.4,0,0,1-3.479,3.48A3.474,3.474,0,0,1,22.37,3.479Z" transform="translate(9538 -570)"/>
  </g>
</svg>
