<svg id="lotto" xmlns="http://www.w3.org/2000/svg" width="64" height="64" viewBox="0 0 64 64">
  <g id="그룹_1517" data-name="그룹 1517">
    <g id="그룹_1516" data-name="그룹 1516">
      <path id="패스_826" data-name="패스 826" d="M0,0V64H64V0Z" fill="rgba(255,255,255,0)"/>
    </g>
  </g>
  <g id="그룹_1519" data-name="그룹 1519" transform="translate(1.996 1.996)">
    <g id="그룹_1518" data-name="그룹 1518">
      <path id="패스_827" data-name="패스 827" d="M516,598.4a27.765,27.765,0,0,0,2.1-11.6,27.122,27.122,0,0,0-2.1-11.5,29.648,29.648,0,0,0-27.9-18.6,28.271,28.271,0,0,0-11.5,2.2,30.848,30.848,0,0,0-16.4,16.4,29.339,29.339,0,0,0-2.1,11.5,30.055,30.055,0,0,0,2.1,11.6,29.158,29.158,0,0,0,6.6,9.7,31.244,31.244,0,0,0,32.9,6.6A31.4,31.4,0,0,0,516,598.4m-27.9-37.5a24.423,24.423,0,0,1,18.4,7.5,25.953,25.953,0,0,1,0,36.7,24.47,24.47,0,0,1-18.4,7.6,26.122,26.122,0,0,1-25.9-25.9,24.5,24.5,0,0,1,1.9-10,26.318,26.318,0,0,1,5.8-8.4,23.8,23.8,0,0,1,18.2-7.5m0,5.6a18,18,0,0,0-14.3,6,20.3,20.3,0,0,0,14.3,34.6,18.782,18.782,0,0,0,14.5-6,20.28,20.28,0,0,0,0-28.6,18.41,18.41,0,0,0-14.5-6m3.8,13.2h-11v-5h17.4v3.6a28.286,28.286,0,0,0-5.5,9.7,67.123,67.123,0,0,0-1.5,12h-6.1a40.217,40.217,0,0,1,1.7-10.7A31.494,31.494,0,0,1,491.9,579.7Z" transform="translate(-458.098 -556.698)"/>
    </g>
  </g>
</svg>
