<svg xmlns="http://www.w3.org/2000/svg" width="64" height="64.001" viewBox="0 0 64 64.001">
  <g id="more" transform="translate(-0.008 0.001)">
    <rect id="사각형_1046" data-name="사각형 1046" width="64" height="64" transform="translate(0.008)" fill="#fff" opacity="0"/>
    <path id="패스_3213" data-name="패스 3213" d="M-10013.592,338.5a30.607,30.607,0,0,1-9.4-22.6,29.315,29.315,0,0,1,2.4-12.2,30.658,30.658,0,0,1,7.1-10.3l.3-.3A30.669,30.669,0,0,1-9990.7,284a30.151,30.151,0,0,1,22.393,9.4,29.441,29.441,0,0,1,7,10.3,28.613,28.613,0,0,1,2.3,12.2,30.6,30.6,0,0,1-9.4,22.6A30.591,30.591,0,0,1-9991,347.9,30.6,30.6,0,0,1-10013.592,338.5Zm2.7-42.4a27.3,27.3,0,0,0-8.2,19.9,27.1,27.1,0,0,0,8.2,19.9A27.078,27.078,0,0,0-9991,344.1h.1a27.315,27.315,0,0,0,19.794-8.3,27.314,27.314,0,0,0,8.2-19.9,27.814,27.814,0,0,0-2.1-10.7,26.32,26.32,0,0,0-6.1-9.1A27.078,27.078,0,0,0-9991,287.9,27.288,27.288,0,0,0-10010.891,296.1Zm17.178,34.588V318.721h-11.968A2.715,2.715,0,0,1-10008.4,316a2.717,2.717,0,0,1,2.717-2.719h11.968V301.314a2.719,2.719,0,0,1,2.723-2.719,2.719,2.719,0,0,1,2.719,2.719v11.969h11.966a2.721,2.721,0,0,1,2.722,2.719,2.72,2.72,0,0,1-2.722,2.719h-11.966v11.969a2.72,2.72,0,0,1-2.722,2.719A2.718,2.718,0,0,1-9993.713,330.689Z" transform="translate(10023 -284)"/>
  </g>
</svg>
