<svg id="motobike" xmlns="http://www.w3.org/2000/svg" width="64" height="64" viewBox="0 0 64 64">
  <g id="그룹_1512" data-name="그룹 1512">
    <g id="그룹_1511" data-name="그룹 1511">
      <path id="패스_824" data-name="패스 824" d="M0,0V63.864H64V0Z" fill="rgba(255,255,255,0)"/>
    </g>
  </g>
  <g id="그룹_1514" data-name="그룹 1514">
    <g id="그룹_1513" data-name="그룹 1513">
      <path id="패스_825" data-name="패스 825" d="M575.55,556.149l-5-.4a33.931,33.931,0,0,0-11.8,2.1,26.973,26.973,0,0,0-10.6,6.386,44.922,44.922,0,0,0-8.6,11.875,60.293,60.293,0,0,0-3.6,9.48,55.554,55.554,0,0,0-2,13.571,37.977,37.977,0,0,0,.9,8.881,44.266,44.266,0,0,0,3.7,8.382,7.263,7.263,0,0,0,2.9,2.594,6.83,6.83,0,0,0,3.8.7h1l47.4-19.858a5.236,5.236,0,0,0,2.9-2,5.789,5.789,0,0,0,1.3-3.393V579.9a19.416,19.416,0,0,0-.3-5.189,21.11,21.11,0,0,0-5.4-10.378,27.8,27.8,0,0,0-16.6-8.182m-5,3.892,4.3.3a24.657,24.657,0,0,1,14.2,6.885,15.275,15.275,0,0,1,4.6,12.274v.5q.3,9.779,0,14.07a2.463,2.463,0,0,1-1.7,1.9l-46.7,19.558a2.706,2.706,0,0,1-2.9-1.2,30.42,30.42,0,0,1-3.4-7.384,37.125,37.125,0,0,1-.7-4.59h.1q1.1,0,13-4.89,10.5-4.291,13.9-5.887a13.212,13.212,0,0,0,4.8-4.191,13.942,13.942,0,0,0,2-10.977,4,4,0,0,0-1.7-2.894,4.239,4.239,0,0,0-3.2-.9,17.232,17.232,0,0,0-5.6,1.3q-15.4,5.289-19,5.987l.7-1.8,2.8-4.989a53.36,53.36,0,0,1,5.2-5.887,25.329,25.329,0,0,1,19.3-7.185m-3.5,17.762a2.717,2.717,0,0,1,2,.8,2.588,2.588,0,0,1,.8,1.9,2.731,2.731,0,0,1-2.8,2.794,2.943,2.943,0,0,1-2-.8,2.7,2.7,0,0,1-.8-2,2.588,2.588,0,0,1,.8-1.9A2.944,2.944,0,0,1,567.05,577.8Z" transform="translate(-533.95 -555.75)"/>
    </g>
  </g>
</svg>
