<svg xmlns="http://www.w3.org/2000/svg" width="64" height="64" viewBox="0 0 64 64">
  <g id="nordic_combined" data-name="nordic combined" transform="translate(-9636 870)">
    <rect id="사각형_1037" data-name="사각형 1037" width="64" height="64" transform="translate(9636 -870)" fill="#fff" opacity="0"/>
    <path id="패스_64" data-name="패스 64" d="M583.631-310.6,546-331.477l.738-1.188,37.625,20.878a2.279,2.279,0,0,0,2.981-.708l1.245.708a3.672,3.672,0,0,1-3.114,1.667A3.769,3.769,0,0,1,583.631-310.6Zm2.6-13.805-8.084-4.416a2.2,2.2,0,0,1-1.218-1.906l-.744-5.078-6.194-3.473,1.565,5.291a2.816,2.816,0,0,1-.11,1.094c-.072.594-.9,1.307-1.653,1.563l-10.3,3.218a2.384,2.384,0,0,1-.948.135c-1.593-.182-2.783-1.177-2.59-2.682a2.8,2.8,0,0,1,1.8-2.223l7.533-2.291-2.5-7.739a4.186,4.186,0,0,1,.634-3.713,4.754,4.754,0,0,1,3.022-1.9,4.957,4.957,0,0,1,3.557.681l9.2,5.156a3.67,3.67,0,0,1,1.653,2.65l.738,9.046,6.4,3.531a1.693,1.693,0,0,1,.736,2.362,1.862,1.862,0,0,1-1.62.908A1.92,1.92,0,0,1,586.227-324.405Zm-4.4-13.9a3.477,3.477,0,0,1,3.571-3.375,3.477,3.477,0,0,1,3.571,3.375,3.477,3.477,0,0,1-3.571,3.375A3.477,3.477,0,0,1,581.824-338.3Z" transform="translate(9108 -495.88)"/>
    <path id="ski_jump" data-name="ski jump" d="M432.825,247.952a3.34,3.34,0,0,0,1.064-4.611l-1.143.706a2.006,2.006,0,0,1-.643,2.761L395.72,269.837l.721,1.133ZM409.772,250.2l11.845-7.652a3.317,3.317,0,0,0-3.546-5.606l-8.731,5.645a3.326,3.326,0,0,0-1.143,1.221L399.1,261.734a2.145,2.145,0,0,0,3.816,1.962Zm13.979-13.351a3.289,3.289,0,1,0-.015,0Z" transform="translate(9243.28 -1100.26)"/>
  </g>
</svg>
