<svg id="poker" xmlns="http://www.w3.org/2000/svg" width="64" height="64" viewBox="0 0 64 64">
  <g id="그룹_1507" data-name="그룹 1507">
    <g id="그룹_1506" data-name="그룹 1506">
      <path id="패스_822" data-name="패스 822" d="M0,0V64H64V0Z" fill="rgba(255,255,255,0)"/>
    </g>
  </g>
  <g id="그룹_1509" data-name="그룹 1509">
    <g id="그룹_1508" data-name="그룹 1508">
      <path id="패스_823" data-name="패스 823" d="M660.8,568.65l-16-12.7a104.545,104.545,0,0,0-16.1,12.7q-16,15.3-16,28.5a14.863,14.863,0,0,0,3.6,10,12.833,12.833,0,0,0,11,4.9q7.8,0,15.9-8v8.2a5.7,5.7,0,0,1-3,4.9,10.692,10.692,0,0,1-5.7,2v.8h20.3v-.8a10.56,10.56,0,0,1-5.6-2,5.7,5.7,0,0,1-3-4.9v-8.2q8,8,15.9,8a12.833,12.833,0,0,0,11-4.9,15.362,15.362,0,0,0,3.6-10Q676.7,583.95,660.8,568.65Z" transform="translate(-612.7 -555.95)"/>
    </g>
  </g>
</svg>
