<svg xmlns="http://www.w3.org/2000/svg" width="64" height="64" viewBox="0 0 64 64">
  <g id="pool" transform="translate(0.002 0.001)">
    <g id="그룹_1440" data-name="그룹 1440" transform="translate(0.002 0.001)">
      <g id="그룹_1439" data-name="그룹 1439">
        <path id="패스_794" data-name="패스 794" d="M0,0V64H63.981V0Z" fill="rgba(255,255,255,0)"/>
      </g>
    </g>
    <g id="그룹_1442" data-name="그룹 1442" transform="translate(-0.002 -0.001)">
      <g id="그룹_1441" data-name="그룹 1441">
        <path id="패스_795" data-name="패스 795" d="M288.284,449.85a29.456,29.456,0,0,0-7-10.3,30.148,30.148,0,0,0-22.393-9.4,30.665,30.665,0,0,0-22.493,9.1l-.3.3a30.648,30.648,0,0,0-7.1,10.3,29.324,29.324,0,0,0-2.4,12.2,31.95,31.95,0,0,0,54.584,22.6,30.605,30.605,0,0,0,9.4-22.6,28.6,28.6,0,0,0-2.3-12.2m-9.8-7.6a26.355,26.355,0,0,1,6.1,9.1,27.838,27.838,0,0,1,2.1,10.7,28.164,28.164,0,0,1-27.992,28.2h-.1a28.1,28.1,0,1,1,19.894-48m-9.1,30.7a15.451,15.451,0,0,0-10.8-26.3,15.426,15.426,0,0,0-10.9,4.6,15.651,15.651,0,0,0-4.6,10.8,14.479,14.479,0,0,0,4.6,10.9,13.929,13.929,0,0,0,10.9,4.4,13.721,13.721,0,0,0,10.8-4.4m-6.2-14.3a3.37,3.37,0,0,1-.6,1.9l-1.5,1.4a6,6,0,0,1,1.9,1.5,4.557,4.557,0,0,1,.7,2.5,5.078,5.078,0,0,1-1.4,3.7,5.448,5.448,0,0,1-3.7,1.4,6.046,6.046,0,0,1-3.5-1.1,4.958,4.958,0,0,1-1.7-3.9,4.728,4.728,0,0,1,.7-2.4,3.4,3.4,0,0,1,2-1.7l-1.8-1.4a4.2,4.2,0,0,1-.4-1.9,4.829,4.829,0,0,1,8-3.1,4.233,4.233,0,0,1,1.3,3.1m-2.5,7.2a3.078,3.078,0,0,0-.6-1.9,1.622,1.622,0,0,0-1.4-.7,1.88,1.88,0,0,0-1.5.5l-.3.3a3.154,3.154,0,0,0-.5,1.7,2.407,2.407,0,0,0,.7,2.1,2.031,2.031,0,0,0,1.4.7,2.12,2.12,0,0,0,1.4-.5l.2-.2a2.273,2.273,0,0,0,.6-2m-.3-7.1a1.759,1.759,0,0,0-.5-1.3,1.918,1.918,0,0,0-1.4-.6,1.758,1.758,0,0,0-1.3.5,1.919,1.919,0,0,0-.6,1.4,3.939,3.939,0,0,0,.6,1.6,1.785,1.785,0,0,0,1.3.4,1.758,1.758,0,0,0,1.3-.5,1.919,1.919,0,0,0,.6-1.4Z" transform="translate(-226.598 -430.149)"/>
      </g>
    </g>
  </g>
</svg>
