<svg id="rink_hockey" xmlns="http://www.w3.org/2000/svg" width="64" height="64" viewBox="0 0 64 64">
  <g id="그룹_1445" data-name="그룹 1445">
    <g id="그룹_1444" data-name="그룹 1444">
      <path id="패스_796" data-name="패스 796" d="M0,0V64H63.894V0Z" fill="rgba(255,255,255,0)"/>
    </g>
  </g>
  <g id="그룹_1447" data-name="그룹 1447" transform="translate(0.031 4)">
    <g id="그룹_1446" data-name="그룹 1446">
      <path id="패스_797" data-name="패스 797" d="M177.139,490.3a5.647,5.647,0,0,0,4.592,1.8,6.311,6.311,0,0,0,6.29-6.4,6.271,6.271,0,0,0-1.9-4.6,5.681,5.681,0,0,0-4.393-1.8,6.213,6.213,0,0,0-4.592,1.8,6.681,6.681,0,0,0-1.8,4.6,5.666,5.666,0,0,0,1.8,4.6m36.439-56.4-2.3-1.6-29.551,34.1-29.651-34.1-2.3,1.6,29.351,35.4-9.784,11.5-1.8,1.2H152.28q-.6.1-1.6,1.9l-.9,2.6a1,1,0,0,0,.7,1.4h14.676a10.969,10.969,0,0,0,5.99-2.9l10.582-12.8L192.413,485a9.657,9.657,0,0,0,5.79,2.9h14.676a.933.933,0,0,0,.7-1.4l-.9-2.7q-1.1-1.7-1.6-1.8H196.007a3.329,3.329,0,0,1-1.8-1.2l-9.983-11.6Z" transform="translate(-149.715 -432.3)"/>
    </g>
  </g>
  <path id="패스_3129" data-name="패스 3129" d="M26.549,54.147V53.034a5.439,5.439,0,0,0-2.063-4.422,7.559,7.559,0,0,0-4.7-1.474,7.744,7.744,0,0,1-6.961-3.721,11.047,11.047,0,0,1-1.5-3.9l-.112-.835H1.367v.963A35.4,35.4,0,0,1,.627,47.2,27.951,27.951,0,0,0,0,53.034v1.6l2.056,4.3a3.735,3.735,0,1,0,6.963.288l.716-.613h7.076l.716.613A3.734,3.734,0,1,0,24.666,61.4l.388.48L30,56.939ZM3.284,40.608H5.039v.607A3.1,3.1,0,0,1,3.067,44.1C3.177,43.108,3.258,41.971,3.284,40.608Zm2.2,21.616a1.809,1.809,0,1,1,1.809-1.809A1.811,1.811,0,0,1,5.484,62.223Zm15.582,0a1.809,1.809,0,1,1,1.809-1.809A1.811,1.811,0,0,1,21.066,62.223Zm.729-5.471a3.725,3.725,0,0,0-3.187.855l-1.083-.927h-8.5l-1.083.927a3.724,3.724,0,0,0-4.527-.3l-.933-1.949H23.188ZM1.926,53.433v-.4a26.008,26.008,0,0,1,.593-5.473c.084-.445.171-.9.255-1.395a5.029,5.029,0,0,0,4.191-4.952v-.607H9.588c.065.266.152.586.267.942L8.716,42.1l.835,1.735,1.028-.495c.169.343.361.693.58,1.044l.014.021-1,1,1.362,1.362.817-.817a9.783,9.783,0,0,0,.772.755l-.675,1.146,1.659.977.594-1.009a9.237,9.237,0,0,0,.9.442l-.275,1.37,1.888.379.237-1.178a11.581,11.581,0,0,0,2.336.229,5.645,5.645,0,0,1,3.5,1.057,3.53,3.53,0,0,1,1.334,2.913v.4H1.926Zm21.962,3.949L25.5,55.773l1.628,1.318-1.92,1.92Z" transform="translate(18 -38.682)"/>
</svg>
