<svg xmlns="http://www.w3.org/2000/svg" width="64" height="64" viewBox="0 0 64 64">
  <g id="short_track_speed_skating" data-name="short track speed skating" transform="translate(-260 -756)">
    <rect id="사각형_1038" data-name="사각형 1038" width="64" height="64" transform="translate(260 756)" fill="#fff" opacity="0"/>
    <path id="short_track" data-name="short track" d="M107.965,266.337a8.981,8.981,0,0,1-.738-.837l-19.18,19.124a3.56,3.56,0,0,0,3.859,5.937,3.448,3.448,0,0,0,.663-.444l19.616-19.585ZM79.449,283.611l-1.569,1.566,11.325,11.3c2.441,1.884,4.983-1.373,4.983-1.373l-1.594-1.591-.839.837a1.008,1.008,0,0,1-1.569-.042Zm37.866,11.723v2.236h16.031c3.062-.394,2.517-4.488,2.517-4.488h-2.248v1.139a1.006,1.006,0,0,1-1.141,1.08Zm3.565-15.449v10.626a3.621,3.621,0,0,0,3.624,3.617,4.144,4.144,0,0,0,3.624-3.617v-14.78A3.606,3.606,0,0,0,127,273.111l-8.674-8.65,11.534-11.505a6.606,6.606,0,0,0,1.015-5.929c-1.2-3.592-5.276-3.718-5.276-3.718h-29.7a2.876,2.876,0,1,0,0,5.753h20.51l-8.632,8.591a6.124,6.124,0,0,0-1.862,4.539,6.325,6.325,0,0,0,1.9,4.539Zm13.128-34.592a5.862,5.862,0,1,0-5.872-5.862,5.867,5.867,0,0,0,5.872,5.862Z" transform="translate(183.12 522.43)"/>
  </g>
</svg>
