<svg xmlns="http://www.w3.org/2000/svg" width="64" height="64" viewBox="0 0 64 64">
  <g id="skeleton" transform="translate(-233.47 -75.397)">
    <rect id="사각형_1036" data-name="사각형 1036" width="64" height="64" transform="translate(233.47 75.397)" fill="#fff" opacity="0"/>
    <path id="패스_62" data-name="패스 62" d="M289.271,116.029a5.758,5.758,0,1,0-5.762-5.758,5.76,5.76,0,0,0,5.762,5.758Zm4.416,13.837a2.815,2.815,0,1,0,1.931-5.289l-8.4-3.267L281.1,110.456a3.892,3.892,0,0,0-2.308-1.868l-20.057-8.026L246.833,80.4a3.994,3.994,0,0,0-6.924,3.982l14.8,25.077-9.371-3.69-2.362,1.407,37.49,14.737h0l1.539,2.437a4.477,4.477,0,0,0,2.423,2.022l4.616,1.814c-3.031,3.029-7.278,1.714-7.278,1.714l-45.776-18.373-2.523,1.537L281.292,131.9c5.555,2.022,10.1-2.829,10.1-2.829h0Z" transform="translate(0 2)"/>
  </g>
</svg>
