<svg xmlns="http://www.w3.org/2000/svg" width="64" height="64" viewBox="0 0 64 64">
  <g id="snowboarding" transform="translate(-591 -135.027)">
    <rect id="사각형_1044" data-name="사각형 1044" width="64" height="64" transform="translate(591 135.027)" fill="#fff" opacity="0"/>
    <path id="패스_50" data-name="패스 50" d="M570.961-547.648l-44.822-16.844a9.362,9.362,0,0,1-5.976-6.113,3.394,3.394,0,0,1,.2-2.581,3.346,3.346,0,0,1,1.9-1.7,3.045,3.045,0,0,1,2.513.136,3.609,3.609,0,0,1,1.766,1.97,3.238,3.238,0,0,0,2.037,2.173l5.161,1.9a3.441,3.441,0,0,1-.679-2.037,3.355,3.355,0,0,1,1.9-2.853l9.643-4.211-.136-9.373a5.351,5.351,0,0,1,2.852-3.8l10.323-5.3-6.248-2.445a3.62,3.62,0,0,1-.951-.679l-5.433-7.743a2.219,2.219,0,0,1-.407-1.63,2.4,2.4,0,0,1,.951-1.7,2.527,2.527,0,0,1,1.9-.475,2.642,2.642,0,0,1,1.766.951l5.3,7.607,11.817,4.075a4.305,4.305,0,0,1,1.63,1.223l15.077,13.584a2.444,2.444,0,0,1,.951,1.9,2.341,2.341,0,0,1-.747,1.7,2.493,2.493,0,0,1-1.834.747,2.88,2.88,0,0,1-1.9-.679l-10.458-9.509-11.409,5.433,7.606,6.656a2.743,2.743,0,0,1,.951,2.445v.272l-1.766,13.855a3.118,3.118,0,0,1-2.173,2.717l11.138,4.075a3.183,3.183,0,0,0,2.988-.136,3.284,3.284,0,0,1,2.513-.34,3.385,3.385,0,0,1,2.037,1.494,2.891,2.891,0,0,1,.34,2.513,3.342,3.342,0,0,1-1.63,2.038,9.934,9.934,0,0,1-4.964,1.354A11.167,11.167,0,0,1,570.961-547.648Zm-19.695-27.439a2.886,2.886,0,0,1-1.63,2.173l-11.817,5.3a1.51,1.51,0,0,1-.679.136l21.188,8.015a2.459,2.459,0,0,1-.407-1.766v-.272l1.494-12.225-8.149-7.2Zm15.688-24.519a5.1,5.1,0,0,1-1.562-3.735,4.877,4.877,0,0,1,1.562-3.668,5.3,5.3,0,0,1,3.8-1.494,5.3,5.3,0,0,1,3.8,1.494,4.878,4.878,0,0,1,1.562,3.668,5.1,5.1,0,0,1-1.562,3.735,5.176,5.176,0,0,1-3.8,1.562A5.175,5.175,0,0,1,566.954-599.606Z" transform="translate(71 746)"/>
  </g>
</svg>
