<svg id="special" xmlns="http://www.w3.org/2000/svg" width="64" height="64" viewBox="0 0 64 64">
  <g id="그룹_1547" data-name="그룹 1547">
    <g id="그룹_1546" data-name="그룹 1546">
      <path id="패스_838" data-name="패스 838" d="M0,0V64H63.95V0Z" fill="rgba(255,255,255,0)"/>
    </g>
  </g>
  <g id="그룹_1549" data-name="그룹 1549" transform="translate(0.05 2)">
    <g id="그룹_1548" data-name="그룹 1548">
      <path id="패스_839" data-name="패스 839" d="M105.849,614.3a1.254,1.254,0,0,0-.7-.9,2.282,2.282,0,0,0-1.3-.5,1.439,1.439,0,0,0-1,.5,1.225,1.225,0,0,0-.8.9l-7.094,20-20.984.5a1.139,1.139,0,0,0-1.2.4l-.7.9a4.247,4.247,0,0,0,0,1.3l.7,1,16.787,12.7-6.1,20.2a3.629,3.629,0,0,0,0,1.2l.7,1,1.2.3,1.1-.1,17.386-12.1,17.386,12.1,1.2.1,1.1-.3.7-1a1.852,1.852,0,0,0,0-1.2l-5.9-20.2,16.587-12.7a2.67,2.67,0,0,0,.9-1,1.483,1.483,0,0,0,0-1.3,1.962,1.962,0,0,0-.9-.9,1.052,1.052,0,0,0-.9-.4l-21.183-.5-6.995-20m22.283,24.3-13.29,10a2.143,2.143,0,0,0-.7,1.2,1.082,1.082,0,0,0,0,1.1l4.9,16.2-13.889-9.4a2.014,2.014,0,0,0-1.3-.4,1.355,1.355,0,0,0-1,.4l-13.989,9.4,4.9-16.2a1.083,1.083,0,0,0,0-1.1l-.7-1.2-13.39-10,16.787-.5,1-.4a.969.969,0,0,0,.7-.9l5.7-15.9,5.6,15.9a1.225,1.225,0,0,0,.8.9,1.484,1.484,0,0,0,1.1.4Z" transform="translate(-72.025 -612.9)"/>
    </g>
  </g>
</svg>
