<svg xmlns="http://www.w3.org/2000/svg" width="64" height="64" viewBox="0 0 64 64">
  <g id="squash" transform="translate(0 0.013)">
    <g id="그룹_1632" data-name="그룹 1632" transform="translate(0 -0.001)">
      <g id="그룹_1631" data-name="그룹 1631">
        <path id="패스_872" data-name="패스 872" d="M-201.6,68.243h-64V132.2h64Z" transform="translate(265.6 -68.243)" fill="rgba(252,252,252,0)"/>
      </g>
    </g>
    <g id="그룹_1634" data-name="그룹 1634" transform="translate(0 0.013)">
      <g id="그룹_1633" data-name="그룹 1633">
        <path id="패스_873" data-name="패스 873" d="M3.9,0H0V63.973H64v-4H4V0Z" fill="rgba(0,0,0,0.98)"/>
      </g>
    </g>
    <g id="그룹_1636" data-name="그룹 1636" transform="translate(51.792 39.213)">
      <g id="그룹_1635" data-name="그룹 1635">
        <path id="패스_874" data-name="패스 874" d="M29.222,19.637a4.477,4.477,0,0,0-1.759.811,4.414,4.414,0,0,0-1.36,1.366,1.014,1.014,0,0,0-.054,1.148l7.371,10.27a1.049,1.049,0,0,0,1.116.332,4.477,4.477,0,0,0,1.759-.811,4.414,4.414,0,0,0,1.36-1.366,1.014,1.014,0,0,0,.054-1.148l-7.371-10.27A1.049,1.049,0,0,0,29.222,19.637Z" transform="translate(-25.896 -19.608)" fill="rgba(0,0,0,0.98)"/>
      </g>
    </g>
    <g id="그룹_1638" data-name="그룹 1638" transform="translate(21.05 0.963)">
      <g id="그룹_1637" data-name="그룹 1637">
        <path id="패스_875" data-name="패스 875" d="M10.575,9.721q-.1.4,0,.5l12.9,17.893a.364.364,0,0,0,.5.3q.1.2.4-.1l.3-.3-.2-.4L11.575,9.621a.654.654,0,0,1-.3-.3.9.9,0,0,0-.6,0,1.635,1.635,0,0,0-.1.4m20.4,20.691a.579.579,0,0,0-.1-.4l-16.9-23.59q-.3-.3-.4-.3a.453.453,0,0,0-.5.1,1.085,1.085,0,0,0-.2.4,1.03,1.03,0,0,0,.2.4l16.8,23.59a1.463,1.463,0,0,1,.5.3.767.767,0,0,0,.1-.3,1.231,1.231,0,0,0,.5-.2m2.2-2.1a2.314,2.314,0,0,0,.5.3.654.654,0,0,0,.3-.3,1.086,1.086,0,0,0,.4-.2q0-.4-.2-.5l-17-23.59a.392.392,0,0,0-.4-.3.408.408,0,0,0-.3.1.6.6,0,0,0-.4.4.971.971,0,0,0,.2.5l16.9,23.59m4.7-2.7q-.3-.2-.3-.4l-16.9-23.49a1.255,1.255,0,0,0-.3-.5,1.086,1.086,0,0,0-.4.2q-.4.3-.2.3-.2.4,0,.6l16.9,23.59a1.231,1.231,0,0,0,.5.2l.3-.2a2.979,2.979,0,0,1,.4-.3m-.4-7.4a1.112,1.112,0,0,0-.1-.5L25.075.725a.32.32,0,0,0-.3-.2.925.925,0,0,0-.6,0,1.112,1.112,0,0,0-.1.5q-.1.1,0,.3l12.4,17.093a2.979,2.979,0,0,0,.4.3l.2-.2A2.979,2.979,0,0,0,37.475,18.218Z" transform="translate(-10.525 -0.475)"/>
      </g>
    </g>
    <g id="그룹_1640" data-name="그룹 1640" transform="translate(20.767 0.788)">
      <g id="그룹_1639" data-name="그룹 1639">
        <path id="패스_876" data-name="패스 876" d="M29.817,2.811a.654.654,0,0,0-.3-.3.6.6,0,0,0-.6.1l-17.7,12.295v.4a.579.579,0,0,0,.1.4q0,.1.4.3.1.1.3,0l17.6-12.395a1.132,1.132,0,0,0,.4-.4q-.1-.4-.2-.4m-4.3-2.4q-.2-.1-.4.2l-14.6,10.1a.125.125,0,0,0,0,.2q-.2.4-.1.4a.57.57,0,0,0,.6.2q.1.2.2.1l14.6-10.2a.654.654,0,0,0,.3-.3,1.886,1.886,0,0,0-.1-.6,1.646,1.646,0,0,0-.5-.1M37.017,22.9q.2-.2.1-.3a1.112,1.112,0,0,0-.1-.5,1.086,1.086,0,0,0-.4-.2q0-.1-.3.1l-9.2,6.3a.125.125,0,0,0,0,.2q-.2.3,0,.5a.679.679,0,0,0,.5.2.125.125,0,0,0,.2,0l9.2-6.3m.1-6a.679.679,0,0,0-.5.2L22.517,27q-.3.2-.2.2-.2.4-.1.5a.405.405,0,0,0,.5.2q.1.2.4-.1l14.1-9.8a2.979,2.979,0,0,0,.4-.3,1.075,1.075,0,0,0-.2-.6,1.163,1.163,0,0,0-.3-.2m-1-4.2q-.4-.3-.5-.1l-17,12q-.2.1-.1.4-.1.2,0,.3a2.145,2.145,0,0,1,.5.4,1.163,1.163,0,0,1,.2-.3l17.2-11.9q.2-.1.2-.2a.791.791,0,0,0-.1-.5,1.637,1.637,0,0,1-.4-.1m-4-7q-.3-.2-.4-.1L13.217,18.5a.579.579,0,0,0-.1.4q-.1.1.1.4l.4.3q.1-.2.2-.2L32.317,6.41a.768.768,0,0,0,.3-.1,1.644,1.644,0,0,1-.1-.5q-.3-.2-.4-.1m2.5,4.1a.4.4,0,0,0,.2-.4q.1-.2-.2-.4,0-.2-.3-.2h-.3L15.517,21.7q-.2,0-.2.3a.326.326,0,0,0,.1.4.392.392,0,0,0,.4.3h.4Z" transform="translate(-10.383 -0.387)" fill="rgba(0,0,0,0.98)"/>
      </g>
    </g>
    <g id="그룹_1642" data-name="그룹 1642" transform="translate(20.386 -0.013)">
      <g id="그룹_1641" data-name="그룹 1641">
        <path id="패스_877" data-name="패스 877" d="M38.707,21.1a14.089,14.089,0,0,0-.3-2.8,32.207,32.207,0,0,0-.6-4.5,28.668,28.668,0,0,0-3.3-7,17.851,17.851,0,0,0-8.8-6.4,8.222,8.222,0,0,0-4.9-.1h.1a11.615,11.615,0,0,0-4.2,1.9l-1.6,1.1a11.357,11.357,0,0,0-4.8,7.9,10,10,0,0,0,.6,5,20.648,20.648,0,0,0,2.6,5.3,21.1,21.1,0,0,0,5.7,5.2q1.7,1.1,4.1,2.4a6.855,6.855,0,0,0,2.4,1,46.236,46.236,0,0,1,18,12.795V43a1.6,1.6,0,0,0,1,.4,1.235,1.235,0,0,0,.7-.3.673.673,0,0,0,.3-.6,1.362,1.362,0,0,0-.1-.9l-.1-.1a35.6,35.6,0,0,1-6.8-20.392m-6-12.895a19.34,19.34,0,0,1,2.7,6.2q.6,2.7,1.1,6.8a11.739,11.739,0,0,0-.2,2.1,4.631,4.631,0,0,1-.1.9,3.559,3.559,0,0,1-1.7,2.8l-1.7,1.1a4.546,4.546,0,0,1-2.6.9,15.286,15.286,0,0,1-3.7-.9,44.147,44.147,0,0,1-6.1-3.2,23.056,23.056,0,0,1-5-4.7,15.738,15.738,0,0,1-2.9-8.9q.2-3.3,4-6l1.6-1.1a10.329,10.329,0,0,1,3.3-1.7,6.242,6.242,0,0,1,3.5,0,15.742,15.742,0,0,1,7.8,5.7m3.1,20.491q.6-.4,1.3-.8a39.835,39.835,0,0,0,2.6,8,60.974,60.974,0,0,0-7.2-5.1,7.464,7.464,0,0,0,1.7-.8Z" transform="translate(-10.193 0.013)"/>
      </g>
    </g>
    <g id="그룹_1644" data-name="그룹 1644" transform="translate(22 43.495)">
      <g id="그룹_1643" data-name="그룹 1643">
        <path id="패스_878" data-name="패스 878" d="M12.6,23.549a6.12,6.12,0,0,0-1.6,4.2,5.675,5.675,0,0,0,1.6,4.2,5.78,5.78,0,0,0,4.4,1.8,5.331,5.331,0,0,0,4-1.8,5.116,5.116,0,0,0,2-4.2,5.492,5.492,0,0,0-2-4.2,5.331,5.331,0,0,0-4-1.8A5.78,5.78,0,0,0,12.6,23.549Z" transform="translate(-11 -21.75)" fill="rgba(0,0,0,0.98)"/>
      </g>
    </g>
  </g>
</svg>
