<svg id="tennis" xmlns="http://www.w3.org/2000/svg" width="64" height="64" viewBox="0 0 64 64">
  <path id="패스_804" data-name="패스 804" d="M0,0V64H64V0Z" fill="rgba(255,255,255,0)"/>
  <path id="패스_805" data-name="패스 805" d="M226.4,523.65a31.961,31.961,0,0,0,54.6,22.6,31.961,31.961,0,1,0-45.2-45.2,30.6,30.6,0,0,0-9.4,22.6m13.4-20.9a15.572,15.572,0,0,1,.5,5.8q-.2,2.1-.9,7.5-.9,6.5-1,9.6a24.626,24.626,0,0,0,.8,8.7,15.291,15.291,0,0,0,6.9,8.8,22.68,22.68,0,0,0,12.3,3.2,23,23,0,0,0,12.3-3.2,15.264,15.264,0,0,0,6.8-8.8,24.626,24.626,0,0,0,.8-8.7q-.1-3.1-1-9.6-1.4-10.3-.4-13.3a28.163,28.163,0,0,1,7,9.5,27.485,27.485,0,0,1,2.5,11.5,27.828,27.828,0,0,1-28.1,27.9,26.651,26.651,0,0,1-19.7-8.2,26.979,26.979,0,0,1-8.2-19.8,28.154,28.154,0,0,1,9.4-20.9m2.4,13.7q.8-6.5.9-8.8a15.222,15.222,0,0,0-1-6.7,28.148,28.148,0,0,1,32.6,0,14.145,14.145,0,0,0-1.1,6.7q.1,2.6,1,8.8.8,6.5,1,9.2a24.736,24.736,0,0,1-.7,7.9,12.746,12.746,0,0,1-5.8,7.3,22.552,22.552,0,0,1-21.4,0,12.661,12.661,0,0,1-5.9-7.3,25.149,25.149,0,0,1-.7-7.9Q241.3,522.65,242.2,516.45Z" transform="translate(-491.65 290.4) rotate(-90)"/>
</svg>
