<svg xmlns="http://www.w3.org/2000/svg" width="64" height="64" viewBox="0 0 64 64">
  <g id="trotting" transform="translate(0.002 0.002)">
    <g id="그룹_1571" data-name="그룹 1571" transform="translate(0.002 0.002)">
      <g id="그룹_1570" data-name="그룹 1570">
        <path id="패스_848" data-name="패스 848" d="M0,0V63.981H63.981V0Z" fill="rgba(255,255,255,0)"/>
      </g>
    </g>
    <g id="그룹_1573" data-name="그룹 1573" transform="translate(-0.002 -0.002)">
      <g id="그룹_1572" data-name="그룹 1572">
        <path id="패스_849" data-name="패스 849" d="M443.434,632.246a29.448,29.448,0,0,0-7-10.3,30.461,30.461,0,0,0-10.4-7,32.709,32.709,0,0,0-24.593,0,33.221,33.221,0,0,0-17.295,17.3,32.708,32.708,0,0,0,0,24.593,29.444,29.444,0,0,0,7,10.3,32.017,32.017,0,0,0,10.3,7.1,29.225,29.225,0,0,0,12.3,2.3,28.845,28.845,0,0,0,12.3-2.3,29.81,29.81,0,0,0,10.4-7.1,29.446,29.446,0,0,0,7-10.3,34.029,34.029,0,0,0,0-24.593m-9.7-6.2a25.762,25.762,0,0,1,7.2,17.295H420.141a5.9,5.9,0,0,0-1.1-2.7l14.7-14.6m7.2,19.794a24.9,24.9,0,0,1-6.9,16.9l-14.7-14.7a5.553,5.553,0,0,0,.8-2.2h20.794m-45.387-21.694a25.658,25.658,0,0,1,17.1-6.9v20.694a7.1,7.1,0,0,0-2.4,1l-14.7-14.8m21.794,14.8a13.284,13.284,0,0,0-2.4-1V617.251a26.817,26.817,0,0,1,17.095,7.1l-14.7,14.6m-2.4,32.89V651.041a5.47,5.47,0,0,0,2.8-1.3l14.6,14.8a25.417,25.417,0,0,1-17.395,7.3m-2.3-20.794v20.794a25.318,25.318,0,0,1-17.395-7.3l14.6-14.6a6.332,6.332,0,0,0,2.8,1.1m-4.2-10.5a6.712,6.712,0,0,0-1.3,2.8H386.651a24.975,24.975,0,0,1,7.4-17.395l14.4,14.6m-.4,7.6-14.5,14.6a24.9,24.9,0,0,1-6.9-16.9h20.494A7.885,7.885,0,0,0,408.044,648.141Z" transform="translate(-381.748 -612.548)"/>
      </g>
    </g>
  </g>
</svg>
