<svg xmlns="http://www.w3.org/2000/svg" width="64" height="64" viewBox="0 0 64 64">
  <g id="volleyball" transform="translate(-200 -85)">
    <path id="패스_3193" data-name="패스 3193" d="M0,0V64H64V0Z" transform="translate(200 85)" fill="rgba(255,255,255,0)"/>
    <path id="volleyball-2" data-name="volleyball" d="M31.994,64a30.412,30.412,0,0,1-12.3-2.4A31.707,31.707,0,0,1,9.3,54.5a29.428,29.428,0,0,1-7-10.3A30.761,30.761,0,0,1,0,32.006a31.292,31.292,0,0,1,2.3-12.4,29.444,29.444,0,0,1,7-10.3,30.459,30.459,0,0,1,10.4-7,31.023,31.023,0,0,1,12.3-2.3,29.814,29.814,0,0,1,12.3,2.2,29.06,29.06,0,0,1,10.2,7.1,30.646,30.646,0,0,1,7.1,10.3,30.227,30.227,0,0,1,2.4,12.4,28.853,28.853,0,0,1-2.3,12.3,30.248,30.248,0,0,1-7.2,10.2,29.587,29.587,0,0,1-10.2,7.1A29.964,29.964,0,0,1,32.485,64Q32.24,64,31.994,64Zm0-4.1.174,0q.1-.151.2-.3c.112-.176.221-.355.328-.534s.229-.387.339-.584c.043-.077.084-.157.127-.235-.2.034-.408.054-.611.084-.352.052-.7.105-1.057.145-.223.025-.446.04-.67.059-.4.036-.8.069-1.2.088-.17.008-.34.01-.51.015-.324.011-.646.029-.971.029-.167,0-.332-.008-.5-.011l-.06,0a30.406,30.406,0,0,1-5.438-.592l-.143-.029q-.585-.12-1.164-.263A26.535,26.535,0,0,0,31.994,59.9ZM40.49,21.8c-.188.155-.376.31-.56.47-.248.217-.489.442-.728.669-.171.163-.345.324-.511.491-.241.243-.472.5-.7.748-.149.164-.3.323-.445.49-.248.287-.482.585-.716.884-.113.144-.231.283-.34.429q-.5.675-.963,1.384l-.017.028q-.444.7-.842,1.424c-.091.166-.171.338-.258.507-.172.333-.343.666-.5,1.007-.1.206-.179.418-.268.627-.1.238-.2.478-.294.721.131.185.249.379.375.568.151.226.305.451.449.68.174.278.336.563.5.846.133.233.271.464.4.7.156.291.3.588.441.883.116.239.237.474.345.715.137.3.259.615.383.923.1.24.2.479.29.722.118.319.22.645.325.969.077.238.163.475.233.716.1.344.183.691.269,1.039.057.228.121.453.172.682.085.388.149.78.217,1.172.033.193.076.385.105.58q.128.871.2,1.754v0l0,.014v0c.062.644.093,1.333.093,2.092s-.032,1.514-.1,2.264a25.8,25.8,0,0,1-1.451,6.583c-.219.612-.434,1.152-.657,1.648a.973.973,0,0,1-.069.128c-.039.088-.085.172-.125.26-.17.373-.346.743-.533,1.105-.083.161-.171.319-.257.478q-.165.3-.338.6A26.278,26.278,0,0,0,42.791,57.8a27.084,27.084,0,0,0,2.865-1.355c.187-.274.382-.543.556-.823.2-.312.369-.636.55-.956.166-.291.341-.577.5-.873.173-.334.322-.677.481-1.017.137-.293.284-.583.41-.881.148-.353.273-.715.406-1.075.109-.3.23-.586.329-.885.124-.378.222-.763.329-1.147.081-.29.175-.574.246-.867.1-.408.17-.823.249-1.236.053-.276.121-.549.165-.827.073-.454.115-.915.165-1.375.026-.244.067-.483.086-.729q.085-1.06.085-2.136c0-.5-.014-.992-.041-1.485-.009-.162-.028-.321-.04-.482-.023-.329-.046-.659-.083-.986-.021-.194-.052-.383-.077-.575-.04-.293-.076-.587-.123-.878-.034-.2-.077-.4-.116-.6-.052-.276-.1-.554-.164-.827-.046-.208-.1-.414-.154-.621-.065-.263-.129-.526-.2-.786-.059-.21-.127-.416-.191-.624-.078-.254-.155-.508-.241-.759-.071-.208-.15-.412-.226-.618-.092-.246-.181-.492-.28-.734-.083-.206-.173-.408-.261-.611-.1-.238-.206-.476-.317-.711-.1-.2-.2-.4-.3-.6-.116-.229-.23-.46-.353-.687-.107-.2-.221-.393-.332-.589-.127-.221-.254-.443-.388-.661-.119-.194-.243-.386-.367-.577-.138-.213-.277-.426-.421-.634-.131-.189-.266-.375-.4-.561-.148-.205-.3-.409-.455-.609-.141-.183-.288-.364-.435-.544s-.321-.389-.487-.58-.311-.353-.47-.526-.341-.369-.517-.551-.334-.34-.5-.507-.36-.348-.544-.518-.356-.327-.539-.486c-.086-.076-.175-.149-.262-.223C40.775,21.578,40.631,21.689,40.49,21.8ZM13.158,52.323c.3.185.583.385.886.558.4.225.806.418,1.211.625.325.166.641.347.97.5.407.188.827.343,1.242.51.342.139.678.3,1.025.421.419.151.849.268,1.274.4.355.11.706.237,1.066.333.457.121.923.208,1.387.307.338.072.67.163,1.01.222.539.1,1.085.151,1.629.215.273.031.541.083.814.107q1.233.108,2.474.108c.542,0,1.081-.017,1.618-.048.181-.011.359-.031.539-.045.356-.027.714-.055,1.067-.1.213-.024.424-.059.636-.088.318-.044.634-.088.949-.143.226-.04.449-.087.672-.132s.428-.088.64-.137c.141-.34.282-.682.408-1.035A23.858,23.858,0,0,0,36.1,46.747c0-.236-.007-.454-.014-.675-.186.05-.377.086-.564.133q-.416.1-.835.2c-.444.1-.89.183-1.338.26-.274.047-.546.1-.822.137-.488.07-.979.122-1.472.169-.237.023-.472.053-.71.07-.731.052-1.464.084-2.2.084-.649,0-1.293-.024-1.936-.066-.211-.014-.418-.038-.629-.056-.43-.037-.86-.076-1.288-.131-.246-.032-.489-.072-.733-.109-.388-.059-.775-.122-1.159-.2-.256-.049-.509-.1-.761-.159q-.558-.123-1.108-.264-.378-.1-.753-.205c-.366-.1-.729-.218-1.091-.336-.241-.079-.482-.157-.72-.242-.374-.132-.742-.276-1.111-.424-.218-.086-.438-.17-.654-.262-.411-.175-.815-.365-1.219-.559-.164-.078-.331-.15-.493-.231q-.845-.423-1.662-.9c-.071-.042-.14-.089-.212-.131-.468-.277-.932-.565-1.384-.868-.177-.118-.348-.246-.524-.367-.341-.238-.68-.478-1.012-.73-.194-.148-.383-.3-.574-.455-.3-.242-.6-.487-.9-.74-.193-.167-.383-.337-.572-.509q-.423-.383-.83-.782-.277-.27-.547-.547c-.267-.275-.527-.558-.785-.843-.169-.188-.339-.375-.5-.568-.263-.306-.515-.622-.766-.94l-.171-.215A26.289,26.289,0,0,0,6,42.7a26.567,26.567,0,0,0,5.973,8.874C12.359,51.842,12.762,52.077,13.158,52.323ZM50.335,16.959c-.631.144-1.256.305-1.868.5-.022.007-.042.015-.064.022-.6.192-1.191.413-1.773.652-.106.043-.212.084-.318.129q-.86.367-1.689.8c-.112.058-.221.119-.331.179-.566.307-1.126.631-1.67.986l-.007,0c.036.032.07.068.106.1.161.143.314.292.472.439.226.211.452.42.67.638.161.16.316.326.473.49.2.212.405.422.6.639.158.175.309.354.461.531.185.216.369.432.547.653.149.184.293.374.438.563.169.221.337.442.5.668.141.194.277.392.412.591.155.227.308.455.456.686.13.2.256.408.381.614q.212.35.414.706.18.316.349.635.192.36.373.725.162.324.316.653c.114.247.224.5.332.746.1.221.19.442.279.665.1.256.2.513.292.771.083.224.166.448.242.674.089.264.171.53.253.8.068.225.139.45.2.678.076.274.144.55.212.826.056.225.114.449.164.675.064.287.117.578.172.867.041.22.087.438.123.659.05.307.09.617.131.926.027.207.059.413.083.622.038.347.062.695.087,1.044.013.175.032.347.041.523q.045.787.044,1.582c0,.7-.032,1.394-.082,2.085-.014.205-.036.409-.055.613q-.07.764-.182,1.519c-.03.2-.057.4-.091.6-.113.673-.243,1.342-.4,2l0,.008c-.162.664-.355,1.319-.565,1.968-.061.19-.129.377-.194.565q-.248.718-.536,1.422c-.076.186-.149.372-.229.556q-.2.468-.421.932A26.838,26.838,0,0,0,51.889,51.7a26.633,26.633,0,0,0,6.925-10.848,26.053,26.053,0,0,0,.364-4.37c0-.424-.011-.839-.029-1.25,0-.022,0-.045,0-.067-.009-.19-.028-.375-.041-.563-.02-.271-.037-.544-.065-.814-.018-.178-.043-.353-.066-.529-.029-.24-.058-.481-.094-.72-.059-.377-.123-.752-.2-1.126-.074-.389-.154-.743-.235-1.089-.029-.121-.056-.241-.086-.361-.081-.323-.166-.633-.256-.926-.013-.046-.026-.092-.04-.138-.133-.455-.285-.9-.444-1.351-.046-.129-.087-.258-.135-.385q-.27-.728-.586-1.436c-.047-.105-.1-.209-.149-.314-.2-.427-.4-.851-.624-1.266-.024-.047-.05-.093-.075-.139-.267-.492-.548-.978-.848-1.454a26.019,26.019,0,0,0-2.2-3.064c-.072-.086-.144-.172-.217-.257q-.536-.629-1.11-1.22c-.04-.041-.077-.085-.118-.127-.331-.336-.68-.653-1.029-.97Zm-46.33,14.7c.159.256.312.516.479.765.182.273.376.535.566.8.175.245.346.493.528.732.2.257.408.5.613.753.191.231.377.468.575.693.212.241.435.47.653.7s.408.444.62.656.462.437.693.653.436.417.662.615.488.4.733.6.46.386.7.569c.253.194.515.373.774.558.242.173.48.353.728.518.266.178.541.34.813.509.251.156.5.319.754.467.279.162.568.308.853.461.257.138.511.283.773.412.3.147.6.276.9.412.261.118.518.245.782.355.31.13.628.241.942.36.264.1.523.207.789.3.325.112.656.2.986.3.264.079.524.169.79.241.34.093.687.166,1.031.245.261.061.519.131.783.184.364.074.734.127,1.1.186.248.04.5.091.745.124.418.057.841.09,1.263.128.2.018.408.048.613.061q.945.063,1.9.064c.7,0,1.4-.029,2.1-.079.231-.017.461-.05.691-.072.462-.045.923-.092,1.381-.159.272-.04.54-.094.809-.142.412-.073.823-.148,1.23-.239.284-.064.563-.139.844-.211.243-.062.484-.131.725-.2-.018-.158-.032-.316-.053-.472-.028-.21-.058-.42-.091-.629-.053-.331-.116-.661-.184-.99-.039-.194-.076-.387-.121-.579-.08-.346-.172-.688-.266-1.029-.048-.172-.092-.347-.143-.518-.114-.376-.242-.748-.374-1.118-.048-.131-.088-.265-.138-.4a23.93,23.93,0,0,0-1.327-2.909c-.083-.154-.175-.3-.261-.454-.177-.311-.356-.623-.547-.927-.111-.175-.229-.346-.345-.519q-.2-.3-.407-.59c-.232.026-.469.04-.7.059-.19.016-.374.036-.566.049-.535.033-1.072.054-1.609.054A25.627,25.627,0,0,1,18.1,30.722h0q-.668-.3-1.318-.636A26.026,26.026,0,0,1,9.809,24.8q-.5-.531-.962-1.088l0,0L8.84,23.7h0c-.306-.358-.617-.739-.9-1.132s-.565-.785-.833-1.19c-.083-.125-.161-.253-.242-.38-.183-.288-.363-.578-.535-.873l-.019-.031A26.536,26.536,0,0,0,3.9,31.485ZM45.122,7.5c-.36.027-.724.041-1.08.083-.456.052-.9.135-1.354.209-.337.055-.678.1-1.011.162-.479.1-.946.223-1.416.343-.293.075-.593.133-.883.217-.628.181-1.243.394-1.852.617-.186.068-.374.133-.559.205-.659.256-1.309.53-1.943.833-.258.122-.5.267-.757.4-.433.223-.869.44-1.289.685-.28.163-.545.346-.818.518-.377.238-.76.469-1.126.724-.277.193-.538.407-.808.61-.344.258-.693.51-1.024.785-.266.22-.517.459-.776.688-.315.281-.635.555-.936.85-.252.246-.488.508-.731.762-.288.3-.58.6-.853.913-.234.268-.451.552-.674.828-.261.323-.526.643-.772.977-.212.289-.409.591-.611.889-.233.343-.469.683-.687,1.037-.192.311-.366.632-.545.95-.2.361-.41.72-.6,1.091-.167.33-.319.67-.473,1.007-.174.377-.348.753-.5,1.14-.142.348-.268.707-.4,1.062-.141.392-.284.783-.409,1.184-.114.367-.213.741-.314,1.115-.072.271-.141.544-.206.818l.1.044q.934.378,1.892.676l.339.1c.642.188,1.292.351,1.948.484.1.022.21.039.315.059.676.128,1.357.23,2.048.3.073.007.147.011.22.017.729.066,1.462.105,2.2.105.5,0,1-.02,1.5-.051.158-.01.314-.027.472-.04.242-.021.482-.047.723-.075.084-.214.184-.419.274-.631.112-.264.222-.528.343-.788.145-.312.3-.618.459-.924.129-.252.255-.5.392-.751.168-.3.348-.6.528-.892.145-.239.285-.481.438-.714.192-.294.4-.578.6-.863.158-.222.311-.448.476-.665.218-.287.451-.562.681-.841.167-.2.329-.41.5-.608.25-.284.517-.556.779-.83.17-.176.333-.36.508-.532.3-.3.617-.576.933-.857.153-.137.3-.281.455-.414q.718-.613,1.485-1.175h0a25.971,25.971,0,0,1,6.854-3.585c.678-.234,1.363-.449,2.06-.626q.651-.165,1.313-.3c.024-.006.046-.02.07-.024.428-.082.869-.15,1.3-.216l.194-.031c.652-.085,1.293-.141,1.936-.18a30.2,30.2,0,0,0-2.178-2.361A27.545,27.545,0,0,0,46.07,7.426C45.753,7.444,45.438,7.472,45.122,7.5ZM23.864,4.964c-.147.087-.3.169-.443.258-.356.22-.7.453-1.05.688-.072.049-.147.094-.218.143q-.621.429-1.214.89c-.13.1-.253.208-.381.311-.263.211-.527.42-.78.64-.157.135-.306.278-.459.417-.217.2-.437.389-.648.59-.16.154-.312.316-.47.473-.194.2-.391.388-.58.589-.157.167-.306.342-.458.513-.178.2-.359.4-.532.6-.15.178-.292.363-.438.544-.165.205-.333.409-.492.619-.141.186-.275.378-.41.568-.154.213-.31.425-.457.643-.132.2-.257.4-.385.6-.14.218-.283.435-.417.657-.124.205-.24.415-.358.623-.128.224-.257.446-.379.674-.113.212-.219.427-.326.642-.116.23-.233.461-.343.695-.1.217-.2.438-.293.658-.1.238-.209.474-.306.715-.091.224-.174.451-.259.678-.091.242-.182.483-.266.728s-.152.464-.225.7-.157.492-.228.743c-.067.235-.127.472-.188.709q-.066.255-.127.51l.147.167c.444.5.9.986,1.388,1.446.033.032.07.062.1.094.467.439.955.855,1.455,1.256.1.076.191.156.288.23q.772.6,1.589,1.128c.113.074.229.145.343.217.564.354,1.138.69,1.728,1l.036.017c.063-.249.146-.489.214-.735.091-.326.183-.651.284-.971.151-.48.318-.951.49-1.42.111-.3.217-.6.337-.9.2-.5.421-.977.645-1.458.118-.252.227-.51.351-.758q.481-.957,1.025-1.87c.046-.077.085-.16.131-.237.411-.68.851-1.339,1.313-1.982.153-.213.32-.415.479-.624.32-.423.644-.844.986-1.248.2-.238.414-.466.622-.7.321-.357.645-.71.983-1.051.23-.233.467-.459.706-.684q.5-.482,1.034-.939c.25-.216.5-.427.759-.635.365-.3.74-.579,1.119-.858.259-.19.517-.382.782-.563.409-.28.827-.543,1.249-.8.252-.155.5-.317.756-.465.507-.292,1.027-.561,1.552-.823.184-.093.363-.2.55-.285q1.075-.513,2.193-.94c.177-.068.361-.122.539-.186.575-.208,1.154-.407,1.744-.581.277-.082.561-.148.841-.221.5-.132,1.007-.26,1.519-.368.314-.066.631-.119.948-.175.205-.037.408-.08.613-.118A28.533,28.533,0,0,0,31.994,3.814a28.529,28.529,0,0,0-8.082,1.122Zm31.012,11.41c-.2.006-.4.008-.6.02-.227.013-.451.034-.677.053-.184.016-.365.036-.547.056.1.1.2.216.3.321.194.205.388.411.576.621q.2.229.4.463.35.408.684.829c.068.086.137.173.2.26a28.525,28.525,0,0,1,2.655,4.1l.017.031c.281.532.55,1.07.8,1.619.067.148.125.3.19.449.163.38.321.761.468,1.148.069.184.133.367.2.552q.176.5.335,1a25.486,25.486,0,0,0-4.319-11.541C55.332,16.357,55.1,16.367,54.877,16.375ZM8.225,19.348c.041.068.088.133.13.2.252.411.53.8.806,1.2.039-.132.087-.259.128-.39.113-.363.229-.722.354-1.078.076-.219.157-.435.238-.651q.194-.513.406-1.018c.089-.212.178-.425.272-.635.153-.344.316-.683.481-1.021.095-.192.185-.385.283-.575.205-.4.422-.785.644-1.171.07-.122.134-.246.205-.366q.444-.747.931-1.468c.1-.144.2-.283.3-.427.235-.336.472-.67.72-1,.137-.179.279-.353.419-.529.225-.283.454-.562.689-.838.155-.18.312-.357.472-.535l.115-.127A30.732,30.732,0,0,0,12.1,12.112a27.682,27.682,0,0,0-4.646,5.813C7.7,18.407,7.948,18.886,8.225,19.348Z" transform="translate(200 85)"/>
  </g>
</svg>
