<svg xmlns="http://www.w3.org/2000/svg" width="64" height="64" viewBox="0 0 64 64">
  <g id="winter_sports" data-name="winter sports" transform="translate(-9623.881 1263.73)">
    <path id="패스_748" data-name="패스 748" d="M0,0V64H64V0Z" transform="translate(9623.881 -1263.73)" fill="rgba(255,255,255,0)"/>
    <path id="_11" data-name="11" d="M131.52,113.076l-2.063-1.184-3.354,2.132-1.956-1.123,4.454-2.789-2.055-1.184-4.431,2.8L120.16,110.6l5.272-3.285-2.07-1.192-5.226,3.308-1.895-1.1,7.495-4.653h0l-7.495-4.66,1.918-1.123,5.226,3.308,2.07-1.192-5.272-3.285,1.956-1.131,4.431,2.8,2.055-1.184-4.454-2.789,1.933-1.115,3.323,2.132,2.063-1.184-3.354-2.124,6.188-3.576-1.039-1.8L127.1,90.34l-.16-3.965-2.055,1.192.183,3.942-1.948,1.123-.191-5.249-2.055,1.184.214,5.241-1.956,1.131-.183-6.211-2.07,1.2.252,6.181-1.9,1.1-.283-8.817h0l-7.785,4.156V90.355l5.478-2.873V85.091l-5.478,2.918V85.718L111.8,83.28V80.912l-4.645,2.468V81.156l3.507-1.818V76.962L107.156,78.8V71.66h-2.078V78.8l-3.507-1.841v2.376l3.507,1.818V83.38l-4.637-2.46v2.368l4.637,2.437v2.292L99.6,85.1V87.49l5.478,2.873v2.185L97.3,88.392h0l-.283,8.817-1.9-1.1.252-6.181-2.07-1.2-.214,6.211-1.956-1.131.206-5.241-2.055-1.184-.191,5.249L87.14,91.509l.183-3.942-2.055-1.192-.16,3.965-6.188-3.576-1.039,1.8,6.2,3.576L80.73,94.259l2.063,1.184L86.1,93.312l1.948,1.123-4.454,2.789,2.055,1.184,4.431-2.8,1.956,1.131-5.272,3.285,2.07,1.192L94.077,97.9l1.9,1.093-7.495,4.66h0l7.495,4.653-1.9,1.1-5.226-3.308-2.07,1.192,5.272,3.285L90.1,111.7l-4.431-2.8L83.6,110.12l4.454,2.789-1.948,1.123L82.785,111.9l-2.063,1.184,3.362,2.116L77.9,118.776l1.039,1.8L85.123,117l.16,3.965,2.055-1.192-.2-3.95L89.1,114.7l.191,5.256,2.055-1.184-.206-5.241,1.948-1.123.214,6.211,2.07-1.2-.252-6.181,1.9-1.093.283,8.817h0l7.777-4.164V117L99.6,119.868v2.391l5.478-2.918v2.292l-4.637,2.437v2.368l4.637-2.46v2.185l-3.507,1.818v2.376l3.507-1.841v7.143h2.078v-7.143l3.514,1.841v-2.376l-3.514-1.818V123.91l4.645,2.46V124l-4.645-2.422v-2.292l5.478,2.918v-2.391L107.156,117V114.78l7.777,4.164h0l.29-8.817,1.9,1.093-.252,6.181,2.07,1.2.206-6.211,1.956,1.131-.214,5.241,2.055,1.184.191-5.256,1.948,1.123-.183,3.942,2.055,1.192.16-3.965,6.188,3.576,1.039-1.8-6.188-3.576ZM112.955,91.822l.237,6.555-3.43,1.986-.107-2.8-2.491,1.322V94.9Zm-7.877,7.036L102.6,97.544l-.1,2.819-3.453-1.994.237-6.563,5.8,3.056Zm-12.637,4.8L98,100.172l3.438,1.986-2.376,1.528,2.391,1.528-3.446,1.994Zm6.838,11.85-.229-6.563,3.43-1.986.1,2.8,2.5-1.322v3.973Zm7.877-7.044,2.483,1.314.1-2.819,3.446,1.994-.229,6.563-5.8-3.056Zm7.067-1.314-3.438-1.979,2.384-1.528-2.391-1.528,3.446-1.994,5.562,3.484Z" transform="translate(9550 -1335.39)"/>
  </g>
</svg>
