<svg xmlns="http://www.w3.org/2000/svg" width="64.001" height="64.002" viewBox="0 0 64.001 64.002">
  <g id="world" transform="translate(-175 -1018.999)">
    <path id="패스_794" data-name="패스 794" d="M0,0V64H63.981V0Z" transform="translate(175 1019)" fill="rgba(255,255,255,0)"/>
    <path id="패스_3209" data-name="패스 3209" d="M-9750.645,1388.612a32.2,32.2,0,0,1-4.935-6.357,30.185,30.185,0,0,1-4.332-13.865.052.052,0,0,1,0-.012c0-.007,0-.015,0-.022q-.085-1.169-.085-2.354c0-.076,0-.152,0-.228a29.337,29.337,0,0,1,2.4-12.073,31.27,31.27,0,0,1,2.278-4.388,32.184,32.184,0,0,1,4.673-5.922,32.146,32.146,0,0,1,7.217-5.443,30.411,30.411,0,0,1,14.291-3.929q.567-.02,1.138-.02l.425,0a30.138,30.138,0,0,1,22.262,9.4,29.476,29.476,0,0,1,7,10.3,28.631,28.631,0,0,1,2.311,11.772c0,.176,0,.353,0,.529a32.473,32.473,0,0,1-.3,4.417,29.881,29.881,0,0,1-3.782,11.25,32.169,32.169,0,0,1-5.274,6.944A31.793,31.793,0,0,1-9728,1398,31.786,31.786,0,0,1-9750.645,1388.612Zm21.332,5.463v-16.221a29.569,29.569,0,0,0-12.117,3.167,27.713,27.713,0,0,0,10.327,12.93Q-9730.218,1394.039-9729.312,1394.075Zm2.624-.007q.923-.043,1.824-.139a27.7,27.7,0,0,0,10.271-12.854,29.173,29.173,0,0,0-12.095-3.221Zm-21.21-8.167a27.229,27.229,0,0,0,11.313,6.957,31.321,31.321,0,0,1-7.138-10.54,28.8,28.8,0,0,0-4.378,3.379Q-9748,1385.8-9747.9,1385.9Zm28.568,6.875a27.625,27.625,0,0,0,11.218-6.975l.08-.082a28.836,28.836,0,0,0-4.278-3.328A31.279,31.279,0,0,1-9719.33,1392.775Zm7.95-12.822a31.537,31.537,0,0,1,5.078,3.855,26.963,26.963,0,0,0,6.359-16.541h-9.25A42.556,42.556,0,0,1-9711.38,1379.953Zm-38.448,3.832a31.3,31.3,0,0,1,5.183-3.905,42.575,42.575,0,0,1-2.163-12.612h-9.264A26.793,26.793,0,0,0-9749.828,1383.785Zm23.14-8.469a31.889,31.889,0,0,1,12.979,3.344,40.392,40.392,0,0,0,1.894-11.392h-14.873Zm-15.623,3.287a32.356,32.356,0,0,1,13-3.287v-8.049h-14.87A40.46,40.46,0,0,0-9742.312,1378.6Zm30.932-26.557a42.556,42.556,0,0,1,2.188,12.686h9.256a27.763,27.763,0,0,0-2.076-9.531,26.31,26.31,0,0,0-4.222-7.074A31.56,31.56,0,0,1-9711.38,1352.047Zm-15.309,4.639v8.046h14.873a40.476,40.476,0,0,0-1.892-11.392A31.87,31.87,0,0,1-9726.688,1356.686Zm-17.494,8.046h14.87v-8.049a32.275,32.275,0,0,1-13-3.287A40.475,40.475,0,0,0-9744.183,1364.732Zm-2.626,0a42.587,42.587,0,0,1,2.163-12.612,31.356,31.356,0,0,1-5.173-3.894,26.964,26.964,0,0,0-6.254,16.506Zm20.12-10.587a29.172,29.172,0,0,0,12.095-3.221,27.693,27.693,0,0,0-10.3-12.872q-.888-.088-1.8-.125Zm-14.741-3.165a29.568,29.568,0,0,0,12.117,3.165v-16.218q-.91.037-1.8.126A27.736,27.736,0,0,0-9741.43,1350.981Zm-2.293-1.3a31.335,31.335,0,0,1,7.114-10.516,27.716,27.716,0,0,0-11.29,6.935l-.2.2A28.742,28.742,0,0,0-9743.723,1349.683Zm31.412-.073a28.943,28.943,0,0,0,4.331-3.377l-.133-.13a27.232,27.232,0,0,0-11.3-6.952A31.315,31.315,0,0,1-9712.311,1349.609Z" transform="translate(9935 -315)"/>
  </g>
</svg>
